<svg width="537" height="218" viewBox="0 0 537 218" fill="none" xmlns="http://www.w3.org/2000/svg">
<path d="M205.401 196H174.601L165.601 165.8H114.601L105.601 196H75.8007L119.801 56H161.201L205.401 196ZM139.601 82L122.201 140.4H158.001L140.601 82H139.601ZM293.451 123.4C301.717 126.333 308.051 130.8 312.451 136.8C316.851 142.8 319.051 149.933 319.051 158.2C319.051 166.333 316.917 173.467 312.651 179.6C308.384 185.6 302.251 190.267 294.251 193.6C286.384 196.8 277.251 198.4 266.851 198.4C251.251 198.4 238.451 194.733 228.451 187.4C218.584 180.067 212.117 169.4 209.051 155.4L238.051 151.8C242.051 164.867 251.184 171.4 265.451 171.4C272.517 171.4 278.051 169.867 282.051 166.8C286.051 163.733 288.051 159.533 288.051 154.2C288.051 149.133 286.051 145.067 282.051 142C278.184 138.8 272.917 137.2 266.251 137.2H249.451V112.2H265.651C271.517 112.2 276.184 110.8 279.651 108C283.251 105.067 285.051 101.133 285.051 96.2C285.051 91.2667 283.251 87.3333 279.651 84.4C276.051 81.4667 271.251 80 265.251 80C258.851 80 253.451 81.5333 249.051 84.6C244.784 87.6667 241.717 92.1333 239.851 98L212.051 94.6C215.117 81.6667 221.384 71.6 230.851 64.4C240.451 57.2 252.317 53.6 266.451 53.6C275.784 53.6 284.117 55.2 291.451 58.4C298.917 61.6 304.717 66.0667 308.851 71.8C313.117 77.5333 315.251 84.1333 315.251 91.6C315.251 98.6667 313.317 105 309.451 110.6C305.717 116.067 300.384 120.333 293.451 123.4ZM414.154 123.4C422.421 126.333 428.754 130.8 433.154 136.8C437.554 142.8 439.754 149.933 439.754 158.2C439.754 166.333 437.621 173.467 433.354 179.6C429.087 185.6 422.954 190.267 414.954 193.6C407.087 196.8 397.954 198.4 387.554 198.4C371.954 198.4 359.154 194.733 349.154 187.4C339.287 180.067 332.821 169.4 329.754 155.4L358.754 151.8C362.754 164.867 371.887 171.4 386.154 171.4C393.221 171.4 398.754 169.867 402.754 166.8C406.754 163.733 408.754 159.533 408.754 154.2C408.754 149.133 406.754 145.067 402.754 142C398.887 138.8 393.621 137.2 386.954 137.2H370.154V112.2H386.354C392.221 112.2 396.887 110.8 400.354 108C403.954 105.067 405.754 101.133 405.754 96.2C405.754 91.2667 403.954 87.3333 400.354 84.4C396.754 81.4667 391.954 80 385.954 80C379.554 80 374.154 81.5333 369.754 84.6C365.487 87.6667 362.421 92.1333 360.554 98L332.754 94.6C335.821 81.6667 342.087 71.6 351.554 64.4C361.154 57.2 373.021 53.6 387.154 53.6C396.487 53.6 404.821 55.2 412.154 58.4C419.621 61.6 425.421 66.0667 429.554 71.8C433.821 77.5333 435.954 84.1333 435.954 91.6C435.954 98.6667 434.021 105 430.154 110.6C426.421 116.067 421.087 120.333 414.154 123.4ZM478.076 196V106.8H450.276V80.4H471.076C474.009 80.4 476.142 79.7333 477.476 78.4C478.942 76.9333 479.676 74.7333 479.676 71.8V56H508.276V196H478.076Z" fill="white"/>
<path d="M99.538 55.9093L-5.34715e-06 104.955L47.282 114.701L62.7818 155.723L99.538 55.9093Z" fill="white"/>
</svg>
