<svg width="54" height="54" viewBox="0 0 54 54" fill="none" xmlns="http://www.w3.org/2000/svg">
<path d="M21.5011 0.0868094C20.158 0.267768 18.6211 0.748243 17.4279 1.34728C15.5725 2.28951 13.9295 3.74341 12.6925 5.54051C11.9428 6.63874 11.2494 8.22368 10.9558 9.53407C10.0374 13.6462 11.1244 17.7271 13.9794 20.8471C15.3663 22.3696 17.6153 23.7424 19.6394 24.304C21.1075 24.7096 22.6694 24.8781 23.8376 24.7658C25.5993 24.591 26.9362 24.2291 28.3668 23.5427C30.241 22.6442 31.8591 21.2901 33.071 19.6116C34.2517 17.9705 35.1264 15.7366 35.3263 13.8334C35.4325 12.8412 35.3638 10.8507 35.2076 10.1144C34.6016 7.34385 33.5146 5.34083 31.6217 3.50629C29.8287 1.76535 27.8296 0.729523 25.3557 0.242808C24.0562 -0.0130295 22.6319 -0.069189 21.5011 0.0868094ZM24.0562 3.54373C26.0116 3.79957 27.6484 4.56708 29.1228 5.91491C30.4409 7.12546 31.4342 8.92256 31.7966 10.7571C31.9403 11.4997 31.9465 13.1532 31.7966 13.902C31.4342 15.774 30.6034 17.3652 29.3227 18.6444C28.1357 19.8362 26.83 20.585 25.2307 21.0031C23.6752 21.4087 21.6698 21.3275 20.108 20.7972C18.7398 20.3292 17.0968 19.181 16.1285 18.0141C14.9478 16.5977 14.3418 15.0876 14.1356 13.0596C13.9857 11.5995 14.2856 9.97711 14.9603 8.56064C15.7537 6.89458 17.3592 5.2722 19.046 4.43604C20.6203 3.64981 22.4257 3.33158 24.0562 3.54373Z" fill="#B3431D"/>
<path d="M43.6602 16.1108C43.3041 16.2731 42.8543 16.7348 42.7169 17.0655C42.6356 17.2527 42.6232 17.7332 42.6294 20.0794C42.6294 21.6144 42.6169 22.9124 42.5919 22.9685C42.5544 23.0684 42.2983 23.0746 39.6994 23.0746H36.8507L36.5383 23.2244C35.1639 23.8733 35.1702 25.7266 36.5571 26.363L36.8882 26.519H39.6682C42.0422 26.5253 42.467 26.5378 42.5419 26.6189C42.6232 26.7 42.6356 27.0931 42.6232 29.4331C42.6107 31.5235 42.6294 32.2099 42.6919 32.4033C43.0542 33.5327 44.4536 33.9695 45.3719 33.2394C45.5469 33.1084 45.7655 32.8651 45.8592 32.7028L46.0341 32.4033L46.0654 29.483L46.0966 26.5627L48.9079 26.5502C52.1439 26.5315 52.1002 26.5378 52.6562 25.9824C53.0248 25.6142 53.1623 25.2461 53.1435 24.697C53.1185 24.0855 52.8187 23.605 52.2564 23.2743L51.969 23.1058L49.0328 23.0746L46.0966 23.0434L46.0654 20.1418L46.0341 17.234L45.878 16.9283C45.6905 16.5663 45.172 16.1233 44.8347 16.0297C44.4411 15.9174 44.0038 15.9486 43.6602 16.1108Z" fill="#B3431D"/>
<path d="M21.3512 28.4413C18.1214 28.6784 14.6979 29.7142 11.7992 31.3241C8.13207 33.3708 4.78355 36.7341 2.79068 40.3907C0.99772 43.673 0.041892 47.2297 0.00440852 50.7865C-0.00808597 51.8598 -0.00183873 51.9533 0.129353 52.1842C0.316771 52.5337 0.754078 52.9205 1.12266 53.0641C1.42253 53.1826 1.93481 53.1826 23.013 53.1826C44.1349 53.1826 44.6035 53.1826 44.9096 53.0641C45.3469 52.8956 45.7842 52.465 45.9404 52.0532C46.0841 51.6601 46.1028 51.086 46.0029 49.6571C45.6405 44.5341 43.3353 39.3799 39.7181 35.6172C37.6753 33.4894 35.7761 32.0916 33.1335 30.7625C31.0032 29.6893 28.167 28.8593 25.5431 28.5349C24.631 28.4226 22.3008 28.3664 21.3512 28.4413ZM25.4494 32.0355C26.449 32.1603 26.98 32.2601 27.9171 32.5035C33.2397 33.87 37.769 37.4829 40.4303 42.4811C40.9988 43.5544 41.5923 45.0582 41.9047 46.2251C42.242 47.4793 42.5856 49.5385 42.4732 49.6446C42.4169 49.7007 5.22086 49.7382 4.29002 49.6883L3.58408 49.6446V49.2702C3.58408 49.0705 3.60907 48.7835 3.6403 48.6399C3.67154 48.4964 3.72777 48.1532 3.7715 47.8849C3.99015 46.4123 4.83353 43.8539 5.49573 42.6371C6.30163 41.1458 6.72644 40.4968 7.65103 39.3237C9.25033 37.302 11.4806 35.4487 13.7983 34.207C15.079 33.5206 16.9157 32.7905 18.0777 32.5097C19.5083 32.1603 20.2455 32.048 21.951 31.9107C22.5132 31.8608 24.7497 31.9419 25.4494 32.0355Z" fill="#B3431D"/>
</svg>
