<svg width="53" height="53" viewBox="0 0 53 53" fill="none" xmlns="http://www.w3.org/2000/svg">
<path d="M24.789 0.0465786C24.6596 0.0672797 24.256 0.113857 23.8833 0.150084C22.8276 0.24324 21.156 0.538231 20.0019 0.828047C14.3712 2.25643 9.17516 5.65142 5.63526 10.216C3.40989 13.0883 1.88835 16.121 0.9361 19.5833C0.620407 20.7374 0.273663 22.6057 0.154631 23.827C0.123579 24.1686 0.0718266 24.6189 0.0459501 24.8259C-0.0161534 25.3279 -0.0161534 27.4808 0.0511254 28.0397C0.0770018 28.283 0.139105 28.8315 0.185683 29.2611C0.615232 33.3599 1.9194 37.1275 4.10338 40.595C7.50872 46.0032 12.891 50.0709 19.003 51.8719C20.8972 52.4309 22.4187 52.7052 24.8977 52.9329C26.5227 53.083 28.8878 52.9432 30.9735 52.5706C35.5277 51.7581 39.5541 49.9312 43.1251 47.0486C48.6264 42.6185 52.1145 36.1442 52.808 29.08C52.8546 28.6401 52.9115 28.076 52.9426 27.8327C53.1134 26.3785 52.8546 23.2836 52.3681 20.9651C51.5815 17.2285 49.8943 13.5541 47.5655 10.5007C46.1267 8.62203 44.1601 6.66577 42.3332 5.30985C39.2539 3.01202 35.5847 1.34558 31.9827 0.595159C30.575 0.300168 29.8039 0.191487 28.1478 0.0465786C27.4646 -0.0155249 25.1358 -0.0155249 24.789 0.0465786ZM28.4428 3.17763C30.5491 3.37429 32.1483 3.70033 33.9027 4.29032C38.8347 5.94641 42.9698 9.09299 45.9094 13.4247C47.5965 15.9088 48.8179 18.807 49.4182 21.7569C49.7029 23.1646 49.8374 24.4118 49.8736 25.9748C49.9513 29.4164 49.3354 32.5992 47.9898 35.7302C46.0491 40.2482 42.7369 44.0365 38.4777 46.5983C37.6858 47.0744 35.9883 47.9128 35.1396 48.2441C32.9297 49.1083 30.6474 49.6414 28.3341 49.8329C27.5423 49.9001 25.4618 49.9001 24.6855 49.8329C23.3762 49.7242 22.2169 49.5327 20.7678 49.1808C18.2526 48.5701 15.5718 47.3694 13.3516 45.8582C10.7174 44.0624 8.62658 41.9354 6.91873 39.3167C5.51106 37.1638 4.44495 34.7728 3.85496 32.4439C3.32708 30.3634 3.10455 28.5987 3.10455 26.4664C3.10455 20.6132 5.19019 15.1998 9.15446 10.7594C10.5466 9.20167 12.5339 7.57663 14.5161 6.38631C15.251 5.94123 16.9743 5.08731 17.7506 4.77679C19.8777 3.9384 22.1548 3.38982 24.287 3.20351C24.6338 3.17763 25.0012 3.1414 25.0995 3.13105C25.6533 3.0793 27.713 3.11035 28.4428 3.17763Z" fill="#B3431D"/>
<path d="M19.8413 13.1709C19.5463 13.2744 19.2306 13.559 19.0857 13.854L18.9666 14.0972L18.9408 20.3852L18.9149 26.6732L17.5952 26.6991L16.2755 26.7249L16.0012 26.875C15.7114 27.0355 15.4267 27.3719 15.3232 27.6772C15.0541 28.4845 15.6337 29.4057 16.5084 29.5455C16.6947 29.5714 17.3157 29.5972 17.8953 29.5972H18.9408V30.7824C18.9408 31.8123 18.9304 31.9727 18.858 31.9986C18.8114 32.0141 18.2731 32.0296 17.6521 32.0296C16.5498 32.0296 16.5239 32.0296 16.26 32.1642C15.9546 32.3143 15.7631 32.5213 15.613 32.8577C15.463 33.1837 15.4733 33.7271 15.6286 34.0583C15.7476 34.3171 16.1047 34.6845 16.3428 34.788C16.4307 34.8294 16.9069 34.8605 17.6987 34.876L18.9149 34.9019L18.9408 36.8426C18.9718 38.9697 18.977 39.0214 19.2979 39.4251C19.391 39.539 19.5825 39.689 19.7378 39.7667C20.3174 40.0513 20.897 39.9789 21.3628 39.5597C21.8234 39.1456 21.8079 39.2181 21.8389 36.9203L21.8648 34.9019L26.8538 34.8915C30.6628 34.8864 31.879 34.8657 32.0032 34.8191C32.5052 34.6224 32.914 34.0169 32.914 33.4787C32.914 32.8784 32.6242 32.4074 32.0963 32.1486L31.8014 32.0037L26.8848 32.0193C24.1574 32.0296 21.9373 32.0141 21.901 31.9882C21.8544 31.9572 21.8389 31.6777 21.8493 30.7824L21.8648 29.6231L26.1862 29.5921C30.3833 29.5662 30.5231 29.561 31.1286 29.4471C34.3424 28.8468 36.7645 26.6887 37.6184 23.6663C37.872 22.7658 37.9496 22.0672 37.9185 21.0062C37.8771 19.7694 37.7478 19.0914 37.3596 18.0615C36.6402 16.1518 35.4396 14.8321 33.6127 13.9471C32.764 13.5331 32.1222 13.352 30.9009 13.1657C30.1349 13.0518 20.1673 13.057 19.8413 13.1709ZM30.3057 16.038C31.6254 16.1725 32.6553 16.6331 33.4988 17.4508C34.1768 18.1133 34.6529 19.0396 34.8858 20.1523C34.979 20.5767 34.979 22.0827 34.8858 22.4812C34.42 24.5617 33.1366 25.9072 31.113 26.4403C30.2436 26.6732 29.6588 26.6991 25.6945 26.6991C22.8585 26.6991 21.9476 26.6835 21.901 26.637C21.8544 26.5904 21.8389 25.338 21.8389 21.3168C21.8389 18.4238 21.8544 16.038 21.8751 16.0224C21.9321 15.9655 29.7468 15.981 30.3057 16.038Z" fill="#B3431D"/>
</svg>
