<svg width="53" height="53" viewBox="0 0 53 53" fill="none" xmlns="http://www.w3.org/2000/svg">
<path d="M6.54173 0.0589371C3.47767 0.617924 1.0761 2.7607 0.247978 5.70054C-0.0522178 6.7564 -0.0832725 8.55757 0.19622 9.58237C0.900126 12.2117 3.0429 14.4373 5.52727 15.1308L6.15872 15.3068V26.4554V37.6041L5.52727 37.78C3.00149 38.4736 0.931181 40.6371 0.19622 43.3388C-0.0832725 44.3429 -0.0625694 46.1441 0.247978 47.2103C0.99329 49.8603 3.05325 51.9099 5.7136 52.6656C6.3347 52.8416 6.79017 52.8933 7.71145 52.8933C9.15032 52.8933 9.86458 52.7173 11.231 52.0445C12.0591 51.6408 12.3593 51.4234 13.146 50.6263C14.2122 49.5601 14.7919 48.5871 15.1749 47.2103C15.4751 46.1544 15.4958 44.3533 15.2267 43.3388C14.5021 40.6474 12.4214 38.4736 9.89563 37.78L9.26419 37.6041V32.8009V28.0082H17.0796H24.895V32.8009V37.6041L24.2636 37.78C21.5929 38.515 19.4605 40.8544 18.8808 43.6908C18.6324 44.8708 18.6324 45.523 18.8911 46.7341C19.3673 49.0839 20.9097 51.0611 23.1042 52.1687C25.071 53.1521 27.8245 53.1521 29.7913 52.1687C31.8617 51.1232 33.4351 49.1771 33.9734 47.0033C34.2011 46.0302 34.2011 44.2291 33.963 43.3388C33.2384 40.6474 31.1577 38.4736 28.632 37.78L28.0005 37.6041V32.8009V28.0082H35.0706C39.3355 28.0082 42.3995 27.9667 42.8033 27.9046C44.7493 27.5941 46.3538 25.9689 46.6333 24.0228C46.6851 23.6191 46.7368 21.497 46.7368 19.3025V15.3068L47.389 15.1308C49.273 14.6029 51.1466 13.0501 52.0472 11.2386C52.7097 9.91362 52.8857 9.17867 52.8857 7.71909C52.8857 6.78745 52.8339 6.35269 52.6476 5.70054C51.9023 3.04019 49.8527 1.00093 47.182 0.245266C46.5505 0.0692902 46.1158 0.0175323 45.1841 0.0175323C43.7349 0.0278854 43.0206 0.203861 41.6646 0.86636C40.8365 1.27007 40.5363 1.49781 39.7495 2.28452C38.9732 3.05054 38.7247 3.38179 38.321 4.19956C37.2238 6.38374 37.1617 8.72319 38.1554 10.9074C39.0663 12.9259 40.9503 14.5615 42.9999 15.1308L43.6417 15.3068L43.6107 19.6337C43.5796 23.8158 43.5693 23.9607 43.3622 24.2505C42.8654 24.9337 43.1966 24.9027 35.2259 24.9027H28.0005V20.1099V15.3068L28.632 15.1308C29.9259 14.7789 31.1577 13.9921 32.1411 12.9259C35.64 9.1062 34.4806 3.1023 29.7913 0.742142C27.8349 -0.241257 25.0607 -0.241257 23.1042 0.742142C19.7917 2.40874 18.0423 6.12495 18.9429 9.59273C19.6261 12.2427 21.7378 14.4269 24.2636 15.1308L24.895 15.3068V20.1099V24.9027H17.0796H9.26419V20.1099V15.3068L9.89563 15.1308C11.9659 14.5615 13.8292 12.9259 14.7505 10.8867C15.2474 9.81011 15.4027 9.02339 15.413 7.71909C15.413 5.93863 15.0093 4.68608 13.9638 3.19546C12.9908 1.8187 11.2517 0.628273 9.60579 0.214211C8.80872 0.0175323 7.21458 -0.0652809 6.54173 0.0589371ZM8.97435 3.24722C10.5374 3.68198 11.8003 4.96558 12.204 6.52866C12.9804 9.46851 10.7445 12.3773 7.71145 12.3773C4.6888 12.3773 2.45286 9.46851 3.21888 6.52866C3.86067 4.03394 6.46927 2.55367 8.97435 3.24722ZM27.7107 3.24722C29.6982 3.8062 31.106 5.65913 31.106 7.71909C31.106 9.78941 29.6361 11.6941 27.6382 12.2117C25.6197 12.7396 23.5597 11.9011 22.4624 10.1C20.2886 6.52866 23.6632 2.12925 27.7107 3.24722ZM46.3021 3.21616C47.182 3.42319 47.6478 3.68198 48.362 4.34449C51.0224 6.80816 49.8941 11.3007 46.3745 12.2117C43.8902 12.8638 41.3333 11.3732 40.6812 8.90952C39.7909 5.48316 42.8343 2.39839 46.3021 3.21616ZM8.90188 40.6992C10.9204 41.2167 12.3697 43.1007 12.3697 45.1917C12.3697 47.2828 10.9204 49.1667 8.90188 49.6843C6.42786 50.3365 3.85032 48.8355 3.21888 46.3822C2.31829 42.9455 5.46517 39.7986 8.90188 40.6992ZM27.6382 40.6992C29.6361 41.2167 31.106 43.1214 31.106 45.1917C31.106 47.7382 28.9943 49.85 26.4478 49.85C24.3671 49.85 22.4728 48.3904 21.9552 46.3822C21.0546 42.9351 24.1911 39.7986 27.6382 40.6992Z" fill="#B3431D"/>
</svg>
