<svg width="61" height="54" viewBox="0 0 61 54" fill="none" xmlns="http://www.w3.org/2000/svg">
<path d="M0.92708 0.200137C-0.323053 0.825204 -0.285549 2.57539 0.989587 3.21296L1.53965 3.50049H30.1177C58.0207 3.50049 58.6957 3.48799 59.2083 3.25046C60.4709 2.6879 60.5959 0.962718 59.4333 0.250142C59.0333 0.000115871 58.8832 0.000115871 30.1677 0.000115871C4.62747 0.000115871 1.26462 0.0251186 0.92708 0.200137Z" fill="#B3431D"/>
<path d="M29.7926 7.1256C29.5676 7.1756 29.2301 7.32562 29.0426 7.47563C28.8425 7.61315 27.0674 9.35083 25.1046 11.3385C21.2417 15.2265 21.1042 15.4015 21.3543 16.3516C21.6418 17.4017 23.0044 17.9893 23.867 17.4267C24.042 17.3142 25.1172 16.2891 26.2798 15.1389L28.3675 13.0637V26.5652V40.0541L26.2173 37.9164C25.0296 36.7412 23.892 35.7161 23.7045 35.6411C22.6669 35.2411 21.5793 35.8161 21.3292 36.8913C21.1292 37.7289 21.3417 38.0164 25.0421 41.7418C26.9673 43.692 28.78 45.4422 29.0426 45.6422C29.5926 46.0547 30.3927 46.1297 30.9678 45.8297C31.1553 45.7297 32.968 43.967 35.0057 41.9168C38.9061 38.0039 39.1186 37.7289 38.9311 36.8663C38.8061 36.3037 38.181 35.6536 37.6685 35.5536C36.6684 35.3661 36.4559 35.5036 34.1306 37.8289C32.918 39.029 31.9179 40.0041 31.9054 40.0041C31.8804 40.0041 31.8679 33.9409 31.8679 26.5402V13.0637L33.9681 15.1389C35.1182 16.2891 36.1933 17.3142 36.3683 17.4267C36.7809 17.7017 37.5935 17.6767 38.081 17.3767C38.9061 16.8766 39.1811 15.989 38.7686 15.1765C38.5561 14.7764 31.1803 7.25061 30.9928 7.25061C30.9553 7.25061 30.7553 7.2006 30.5552 7.1506C30.3427 7.08809 30.0052 7.08809 29.7926 7.1256Z" fill="#B3431D"/>
<path d="M1.17707 49.818C0.00194446 50.2306 -0.385597 51.6557 0.439491 52.5558C0.61451 52.7433 0.90204 52.9433 1.07706 53.0183C1.26458 53.0809 12.5658 53.1309 30.2177 53.1309C58.2206 53.1309 59.0707 53.1184 59.4458 52.8933C60.5209 52.2433 60.4584 50.5306 59.3333 49.918C58.9582 49.7055 57.433 49.693 30.3052 49.668C5.81506 49.643 1.60211 49.668 1.17707 49.818Z" fill="#B3431D"/>
</svg>
