<svg width="364" height="148" viewBox="0 0 364 148" fill="none" xmlns="http://www.w3.org/2000/svg">
<mask id="mask0_53_172" style="mask-type:luminance" maskUnits="userSpaceOnUse" x="0" y="0" width="363" height="148">
<path d="M362.893 0H0V147.532H362.893V0Z" fill="white"/>
</mask>
<g mask="url(#mask0_53_172)">
<path d="M17.9295 0.683105V29.6H10.6618V0.683105H0V72.8868H10.6618V41.149H17.9295V72.8868H28.5912V0.683105H17.9295Z" fill="#F5F5F5"/>
<mask id="mask1_53_172" style="mask-type:luminance" maskUnits="userSpaceOnUse" x="0" y="0" width="363" height="148">
<path d="M362.893 0H0V147.532H362.893V0Z" fill="white"/>
</mask>
<g mask="url(#mask1_53_172)">
<path d="M46.8032 73.6711H44.725C36.2276 73.6711 31.7021 68.9149 31.7021 59.9843V45.5258H42.2655V58.1374C42.2655 61.439 43.2985 63.1846 45.758 63.1846C48.2174 63.1846 49.2504 61.439 49.2504 56.9737V55.3292C49.2504 50.1809 48.7831 48.334 44.9094 43.1983L38.1213 34.2677C33.5959 28.2465 32.2678 23.5915 32.2678 16.4065V14.079C32.2678 4.4653 36.99 0 45.3767 0H47.3566C56.1369 0 59.5309 3.98461 59.5309 12.5231V24.3631H49.2504V13.9778C49.2504 11.5491 48.7831 9.70222 46.2376 9.70222C43.692 9.70222 43.1263 11.3467 43.1263 14.7494V16.1029C43.1263 20.1761 43.8765 22.415 47.4673 27.1713L54.2677 36.1904C59.0759 42.5911 60.5885 46.2848 60.5885 54.4438V56.7713C60.5885 67.3463 56.1492 73.6585 46.8155 73.6585" fill="#F5F5F5"/>
</g>
<path d="M63.5894 0.683105V72.8868H88.4053V61.9196H74.2511V41.0605H84.9129V30.0933H74.2511V11.157H87.8396V0.683105H63.5894Z" fill="#F5F5F5"/>
<path d="M113.221 21.8331L116.05 48.5237H110.479L113.209 21.8331H113.221ZM107.085 0.683105L98.5015 72.8868H108.032L109.446 59.3012H117.181L118.595 72.8868H128.876L119.739 0.683105H107.097H107.085Z" fill="#F5F5F5"/>
<mask id="mask2_53_172" style="mask-type:luminance" maskUnits="userSpaceOnUse" x="0" y="0" width="363" height="148">
<path d="M362.893 0H0V147.532H362.893V0Z" fill="white"/>
</mask>
<g mask="url(#mask2_53_172)">
<path d="M141.247 30.3843H144.075C147.002 30.3843 147.949 28.4489 147.949 25.2359V15.1415C147.949 12.0298 147.285 10.4865 144.075 10.4865H141.247V30.3843ZM141.247 72.8868H130.585V0.683105H147.85C154.921 0.683105 158.512 3.7949 158.512 11.84V24.654C158.512 30.6752 155.77 33.0027 153.888 33.8755C156.249 34.9381 158.512 36.8861 158.512 41.7436V67.0807C158.512 69.9901 159.078 71.3562 159.545 72.4188V72.8995H148.982C148.514 72.1278 147.949 70.8629 147.949 66.9795V45.2349C147.949 42.0345 147.383 40.6684 143.989 40.6684H141.247V72.8868Z" fill="#F5F5F5"/>
</g>
<path d="M160.492 0.683105V11.157H169.457V72.8868H180.032V11.157H188.997V0.683105H160.492Z" fill="#F5F5F5"/>
<path d="M213.715 21.8331L216.543 48.5237H210.972L213.702 21.8331H213.715ZM207.578 0.683105L198.995 72.8868H208.525L209.939 59.3012H217.674L219.089 72.8868H229.369L220.22 0.683105H207.578Z" fill="#F5F5F5"/>
<path d="M249.856 0.683105V39.4034L240.695 0.683105H231.078V72.8868H240.695V31.3456L250.889 72.8868H259.571V0.683105H249.856Z" fill="#F5F5F5"/>
<mask id="mask3_53_172" style="mask-type:luminance" maskUnits="userSpaceOnUse" x="0" y="0" width="363" height="148">
<path d="M362.893 0H0V147.532H362.893V0Z" fill="white"/>
</mask>
<g mask="url(#mask3_53_172)">
<path d="M274.193 62.413H276.738C279.948 62.413 280.895 60.6673 280.895 56.7839V16.1155C280.895 11.9412 279.862 10.4865 277.218 10.4865H274.193V62.413ZM263.531 0.683105H279.85C288.999 0.683105 291.827 6.02123 291.827 14.5596V58.5295C291.827 67.3589 288.617 72.8868 279.85 72.8868H263.531V0.683105Z" fill="#F5F5F5"/>
<path d="M10.6618 136.084H13.2073C16.4169 136.084 17.3638 134.339 17.3638 130.455V89.7867C17.3638 85.6124 16.3185 84.1577 13.6869 84.1577H10.6618V136.084ZM0 74.3542H16.3185C25.4677 74.3542 28.2961 79.6924 28.2961 88.2308V132.201C28.2961 141.03 25.0865 146.558 16.3185 146.558H0V74.3542Z" fill="#F5F5F5"/>
</g>
<path d="M32.0834 74.3542V146.571H56.8993V135.603H42.7451V114.732H53.4069V103.765H42.7451V84.8407H56.3336V74.3542H32.0834Z" fill="#F5F5F5"/>
<mask id="mask4_53_172" style="mask-type:luminance" maskUnits="userSpaceOnUse" x="0" y="0" width="363" height="148">
<path d="M362.893 0H0V147.532H362.893V0Z" fill="white"/>
</mask>
<g mask="url(#mask4_53_172)">
<path d="M73.882 147.342H71.8037C63.3063 147.342 58.7809 142.586 58.7809 133.655V119.197H69.3443V131.809C69.3443 135.11 70.3772 136.856 72.8367 136.856C75.2962 136.856 76.3291 135.11 76.3291 130.645V129C76.3291 123.852 75.8618 122.018 71.9882 116.869L65.2001 107.939C60.6747 101.918 59.3466 97.2626 59.3466 90.0777V87.7502C59.3466 78.1365 64.0564 73.6838 72.4555 73.6838H74.4353C83.2156 73.6838 86.6097 77.6685 86.6097 86.2069V98.0469H76.3291V87.6616C76.3291 85.2329 75.8618 83.3861 73.304 83.3861C70.7462 83.3861 70.1928 85.0432 70.1928 88.4332V89.7867C70.1928 93.8599 70.9429 96.0989 74.5337 100.855L81.3218 109.874C86.1301 116.275 87.6426 119.969 87.6426 128.128V130.455C87.6426 141.03 83.2033 147.342 73.8697 147.342" fill="#F5F5F5"/>
</g>
<path d="M101.342 74.3542H90.6805V146.571H101.342V74.3542Z" fill="#F5F5F5"/>
<mask id="mask5_53_172" style="mask-type:luminance" maskUnits="userSpaceOnUse" x="0" y="0" width="363" height="148">
<path d="M362.893 0H0V147.532H362.893V0Z" fill="white"/>
</mask>
<g mask="url(#mask5_53_172)">
<path d="M115.213 147.532C108.991 147.532 105.019 141.802 105.019 134.326V89.1921C105.019 81.1343 108.044 73.6584 118.14 73.6584H120.218C131.63 73.6584 132.958 81.3241 132.958 89.8626V97.2373H122.579V89.0909C122.579 85.8906 121.829 84.1449 119.185 84.1449C116.923 84.1449 115.89 85.8906 115.89 89.0909V131.315C115.89 134.718 117.205 136.464 119.382 136.464C122.124 136.464 123.342 134.528 123.342 131.809V113.758H118.534V102.689H133.438V146.558H127.4C127.302 146.166 126.453 142.573 125.605 139.474C124.854 141.903 121.264 147.532 115.89 147.532H115.226H115.213Z" fill="#F5F5F5"/>
</g>
<path d="M155.881 74.3542V113.087L146.719 74.3542H137.103V146.571H146.719V105.029L156.913 146.571H165.595V74.3542H155.881Z" fill="#F5F5F5"/>
<mask id="mask6_53_172" style="mask-type:luminance" maskUnits="userSpaceOnUse" x="0" y="0" width="363" height="148">
<path d="M362.893 0H0V147.532H362.893V0Z" fill="white"/>
</mask>
<g mask="url(#mask6_53_172)">
<path d="M193.424 147.342H191.346C182.849 147.342 178.323 142.586 178.323 133.655V119.197H188.887V131.809C188.887 135.11 189.919 136.856 192.379 136.856C194.838 136.856 195.871 135.11 195.871 130.645V129C195.871 123.852 195.404 122.018 191.53 116.869L184.742 107.939C180.217 101.918 178.889 97.2626 178.889 90.0777V87.7502C178.889 78.1365 183.611 73.6838 191.998 73.6838H193.978C202.746 73.6838 206.152 77.6685 206.152 86.2069V98.0469H195.871V87.6616C195.871 85.2329 195.404 83.3861 192.846 83.3861C190.288 83.3861 189.735 85.0432 189.735 88.4332V89.7867C189.735 93.8599 190.485 96.0989 194.076 100.855L200.876 109.874C205.685 116.275 207.197 119.969 207.197 128.128V130.455C207.197 141.03 202.758 147.342 193.424 147.342Z" fill="#F5F5F5"/>
<path d="M227.684 131.91V115.124H238.162V131.821C238.162 139.588 235.715 147.443 225.422 147.443H223.061C212.301 147.443 209.952 139.487 209.952 132.201V88.1423C209.952 80.7676 213.063 73.6838 222.692 73.6838H225.139C236.834 73.6838 238.162 81.6404 238.162 88.7242V101.639H227.684V88.9266C227.684 85.8274 226.738 84.1703 224.094 84.1703C221.45 84.1703 220.798 85.7262 220.798 88.9266V131.821C220.798 135.022 221.831 136.767 224.192 136.767C226.738 136.767 227.684 134.832 227.684 131.91Z" fill="#F5F5F5"/>
</g>
<path d="M259.473 74.3542V103.284H252.205V74.3542H241.543V146.571H252.205V114.833H259.473V146.571H270.135V74.3542H259.473Z" fill="#F5F5F5"/>
<mask id="mask7_53_172" style="mask-type:luminance" maskUnits="userSpaceOnUse" x="0" y="0" width="363" height="148">
<path d="M362.893 0H0V147.532H362.893V0Z" fill="white"/>
</mask>
<g mask="url(#mask7_53_172)">
<path d="M292.122 89.6855C292.122 85.9033 290.893 84.1576 288.445 84.1576C285.703 84.1576 284.67 86.0045 284.67 89.6855V131.227C284.67 134.326 285.519 136.755 288.532 136.755C291.36 136.755 292.122 134.326 292.122 131.227V89.6855ZM302.969 130.455C302.969 140.549 299.673 147.443 289.38 147.443H287.585C277.39 147.443 273.812 140.549 273.812 130.455V90.2674C273.812 80.2742 277.489 73.6711 287.486 73.6711H289.282C299.661 73.6711 302.956 80.2742 302.956 90.1662V130.442L302.969 130.455Z" fill="#F5F5F5"/>
<path d="M324.673 89.6855C324.673 85.9033 323.443 84.1576 320.996 84.1576C318.254 84.1576 317.221 86.0045 317.221 89.6855V131.227C317.221 134.326 318.07 136.755 321.095 136.755C323.923 136.755 324.686 134.326 324.686 131.227V89.6855H324.673ZM335.519 130.455C335.519 140.549 332.211 147.443 321.931 147.443H320.135C309.941 147.443 306.363 140.549 306.363 130.455V90.2674C306.363 80.2742 310.039 73.6711 320.049 73.6711H321.845C332.224 73.6711 335.519 80.2742 335.519 90.1662V130.442V130.455Z" fill="#F5F5F5"/>
</g>
<path d="M339.209 74.3542V146.571H362.881V135.401H349.87V74.3542H339.209Z" fill="#F5F5F5"/>
</g>
</svg>
