<svg width="77" height="74" viewBox="0 0 77 74" fill="none" xmlns="http://www.w3.org/2000/svg">
<path d="M38.0312 0C59.0346 0.000203104 76.0615 16.5656 76.0615 37C76.0615 57.4343 59.0346 73.9998 38.0312 74C17.0277 74 3.34409e-05 57.4345 0 37C0 16.5655 17.0277 0 38.0312 0ZM56.167 24.0605C56.4952 20.4429 52.579 21.9072 52.54 21.9219C52.54 21.9219 43.9668 25.3437 41.4385 26.4131C34.8437 29.0866 15.8281 36.6787 15.8281 36.6787C11.3218 38.3897 13.96 39.9941 13.96 39.9941C14.0045 40.009 17.8262 41.2826 21.1045 42.2393C24.386 43.197 26.1434 42.1429 26.1602 42.1328C26.1602 42.1328 33.8544 37.2136 41.6582 31.9736C47.1538 28.338 45.8347 31.3319 44.5156 32.6152C41.6579 35.3955 36.9316 39.7797 32.9746 43.3086C31.2161 44.8057 32.0958 46.0889 32.8652 46.7305C35.723 49.0831 43.527 53.8961 43.9668 54.2168C44.5176 54.6454 47.5939 56.569 49.4619 56.1416C51.3304 55.7139 51.5508 53.2539 51.5508 53.2539C51.556 53.2217 52.9812 44.4704 54.2979 36.4648C55.1771 30.7974 56.057 25.5579 56.167 24.0605Z" fill="#FFFCF8"/>
</svg>
