<svg width="75" height="74" viewBox="0 0 75 74" fill="none" xmlns="http://www.w3.org/2000/svg">
<path d="M74.6523 46C74.6523 61.464 62.1163 74 46.6523 74H28C12.536 74 0 61.464 0 46V28C0 12.536 12.536 0 28 0H46.6523C62.1163 0 74.6523 12.536 74.6523 28V46ZM15.5215 24.1787C14.0437 24.1788 13.7481 24.8744 13.748 25.6436C13.748 26.999 15.4848 33.7398 21.915 42.6416C26.2019 48.7226 32.2259 52.0193 37.6953 52.0195C40.9843 52.0195 41.3916 51.2874 41.3916 50.042V45.4258C41.3916 43.9606 41.6871 43.668 42.7588 43.668C43.5349 43.668 44.8281 44.0342 47.8955 46.9648C51.4064 50.445 51.9983 52.0195 53.957 52.0195H59.1309C60.6089 52.0194 61.3477 51.287 60.9043 49.8584C60.4238 48.4297 58.7612 46.3415 56.5439 43.8506C55.3244 42.4219 53.5135 40.9197 52.9961 40.1504C51.9799 38.8552 53.5009 37.1654 54.4266 35.804C56.33 33.005 59.5072 28.1319 59.9434 26.0469C60.276 24.9479 59.9436 24.1788 58.3916 24.1787H53.2178C51.8874 24.1787 51.2955 24.8743 50.9629 25.6436C50.9629 25.6436 48.3391 32.0181 44.6064 36.1211C43.387 37.3299 42.8693 37.6963 42.2041 37.6963C41.8715 37.696 41.3916 37.3291 41.3916 36.2305V26.0469C41.3916 24.7281 41.0218 24.1787 39.9131 24.1787H31.7832C30.9702 24.1787 30.4522 24.8011 30.4521 25.3506C30.4521 26.5961 32.2997 26.8894 32.5215 30.333V37.8799C32.5214 39.528 32.2257 39.8213 31.5605 39.8213C29.8233 39.8202 25.5373 33.4461 23.0244 26.1201C22.507 24.7647 22.0257 24.1787 20.6953 24.1787H15.5215Z" fill="#FFFCF8"/>
</svg>
