<?xml version="1.0" standalone="no"?>
<!DOCTYPE svg PUBLIC "-//W3C//DTD SVG 1.1//EN" "http://www.w3.org/Graphics/SVG/1.1/DTD/svg11.dtd" >
<svg xmlns="http://www.w3.org/2000/svg" xmlns:xlink="http://www.w3.org/1999/xlink" version="1.1">
<metadata>
Created by FontForge 20201107 at Tue Mar 25 18:04:12 2025
 By 
Copyright (c) 2021-2025 by TypeType. All rights reserved.
</metadata>
<defs>
<font id="TTForsTrial-Rg" horiz-adv-x="540" >
  <font-face 
    font-family="TT Fors Trial"
    font-weight="400"
    font-stretch="normal"
    units-per-em="1000"
    panose-1="2 11 0 3 3 0 1 2 0 0"
    ascent="800"
    descent="-200"
    x-height="490"
    cap-height="700"
    bbox="-350 -255 1438 1016"
    underline-thickness="50"
    underline-position="-230"
    unicode-range="U+000D-FB04"
  />
<missing-glyph horiz-adv-x="900" 
d="M100 0v284h45v-139h33v139h50v31h-128v126l19 -61h23l34 106l33 -106h23l54 170h-32l-34 -110l-35 110h-19l-35 -110l-31 103v157h700v-150h-110v-170h110v-91q-6 13 -19.5 20t-30.5 7q-27 0 -43.5 -14.5t-16.5 -34.5q0 -22 14.5 -32.5t39.5 -17.5q17 -5 25.5 -9.5
t8.5 -13.5q0 -21 -28 -21q-14 0 -21 7t-7 18h-33q0 -24 17 -39.5t44 -15.5q17 0 30.5 6.5t19.5 13.5v-163h-700zM311 380h33v62h24l35 -62h37l-40 67q36 17 36 50q0 22 -16 37.5t-41 15.5h-68v-170zM469 550v-170h33v170h-33zM580 519v-139h32v139h50v31h-132v-31h50z
M344 473v46h35q10 0 17 -6.5t7 -16.5q0 -12 -7.5 -17.5t-16.5 -5.5h-35zM800 483h-78v36h78v-36zM800 411h-78v41h78v-41zM387.5 167.5q22.5 24.5 22.5 61.5t-23 62t-59 25t-59 -25t-23 -62t22.5 -61.5t59.5 -24.5t59.5 24.5zM633 162q19 19 19 47v106h-32v-106
q0 -15 -9.5 -25t-25.5 -10q-17 0 -26.5 10.5t-9.5 24.5v106h-32v-106q0 -28 19.5 -47t48.5 -19t48 19zM800 224q-15 14 -46 22q-16 5 -23 9t-7 12q0 9 7.5 14.5t18.5 5.5q10 0 18 -7t8 -18h24v-38zM291.5 190q-14.5 16 -14.5 39q0 25 14 40.5t37 15.5q24 0 37.5 -15.5
t13.5 -40.5q0 -23 -14.5 -39t-36.5 -16t-36.5 16z" />
    <glyph glyph-name="f_f.liga" unicode="ff" horiz-adv-x="610" 
d="M545 650q-37 0 -58.5 -21t-21.5 -59v-80h125v-68h-125v-422h-75v422h-205v-422h-75v422h-80v68h80v85q0 64 41.5 104.5t108.5 40.5h50v-70h-45q-37 0 -58.5 -21t-21.5 -59v-80h205v85q0 64 41.5 104.5t108.5 40.5h50v-70h-45z" />
    <glyph glyph-name="f_i.liga" unicode="fi" horiz-adv-x="539" 
d="M185 490h280v-490h-75v422h-205v-422h-75v422h-80v68h80v85q0 64 41.5 104.5t108.5 40.5h50v-70h-45q-37 0 -58.5 -21t-21.5 -59v-80zM385 585v90h85v-90h-85z" />
    <glyph glyph-name="f_l.liga" unicode="fl" horiz-adv-x="545" 
d="M465 720v-720h-75v650h-125q-37 0 -58.5 -21t-21.5 -59v-80h125v-68h-125v-422h-75v422h-80v68h80v85q0 64 41.5 104.5t108.5 40.5h205z" />
    <glyph glyph-name="f_f_i.liga" unicode="ffi" horiz-adv-x="819" 
d="M465 490h280v-490h-75v422h-205v-422h-75v422h-205v-422h-75v422h-80v68h80v85q0 64 41.5 104.5t108.5 40.5h50v-70h-45q-37 0 -58.5 -21t-21.5 -59v-80h205v85q0 64 41.5 104.5t108.5 40.5h50v-70h-45q-37 0 -58.5 -21t-21.5 -59v-80zM665 585v90h85v-90h-85z" />
    <glyph glyph-name="f_f_l.liga" unicode="ffl" horiz-adv-x="825" 
d="M745 720v-720h-75v650h-125q-37 0 -58.5 -21t-21.5 -59v-80h125v-68h-125v-422h-75v422h-205v-422h-75v422h-80v68h80v85q0 64 41.5 104.5t108.5 40.5h50v-70h-45q-37 0 -58.5 -21t-21.5 -59v-80h205v85q0 64 41.5 104.5t108.5 40.5h205z" />
    <glyph glyph-name=".notdef" horiz-adv-x="900" 
d="M100 0v284h45v-139h33v139h50v31h-128v126l19 -61h23l34 106l33 -106h23l54 170h-32l-34 -110l-35 110h-19l-35 -110l-31 103v157h700v-150h-110v-170h110v-91q-6 13 -19.5 20t-30.5 7q-27 0 -43.5 -14.5t-16.5 -34.5q0 -22 14.5 -32.5t39.5 -17.5q17 -5 25.5 -9.5
t8.5 -13.5q0 -21 -28 -21q-14 0 -21 7t-7 18h-33q0 -24 17 -39.5t44 -15.5q17 0 30.5 6.5t19.5 13.5v-163h-700zM311 380h33v62h24l35 -62h37l-40 67q36 17 36 50q0 22 -16 37.5t-41 15.5h-68v-170zM469 550v-170h33v170h-33zM580 519v-139h32v139h50v31h-132v-31h50z
M344 473v46h35q10 0 17 -6.5t7 -16.5q0 -12 -7.5 -17.5t-16.5 -5.5h-35zM800 483h-78v36h78v-36zM800 411h-78v41h78v-41zM387.5 167.5q22.5 24.5 22.5 61.5t-23 62t-59 25t-59 -25t-23 -62t22.5 -61.5t59.5 -24.5t59.5 24.5zM633 162q19 19 19 47v106h-32v-106
q0 -15 -9.5 -25t-25.5 -10q-17 0 -26.5 10.5t-9.5 24.5v106h-32v-106q0 -28 19.5 -47t48.5 -19t48 19zM800 224q-15 14 -46 22q-16 5 -23 9t-7 12q0 9 7.5 14.5t18.5 5.5q10 0 18 -7t8 -18h24v-38zM291.5 190q-14.5 16 -14.5 39q0 25 14 40.5t37 15.5q24 0 37.5 -15.5
t13.5 -40.5q0 -23 -14.5 -39t-36.5 -16t-36.5 16z" />
    <glyph glyph-name=".null" horiz-adv-x="600" 
 />
    <glyph glyph-name="nonmarkingreturn" unicode="&#xd;" horiz-adv-x="280" 
 />
    <glyph glyph-name="space" unicode=" " horiz-adv-x="280" 
 />
    <glyph glyph-name="exclam" unicode="!" horiz-adv-x="293" 
d="M184 185h-75l-5 515h85zM191 0h-89v97h89v-97z" />
    <glyph glyph-name="quotedbl" unicode="&#x22;" horiz-adv-x="360" 
d="M130 480h-60l-10 220h80zM290 480h-60l-10 220h80z" />
    <glyph glyph-name="numbersign" unicode="#" horiz-adv-x="682" 
d="M672 523l-18 -68h-127l-56 -210h128l-18 -68h-127l-47 -177h-72l47 177h-172l-47 -177h-72l47 177h-128l18 68h127l56 210h-128l18 68h127l47 177h72l-47 -177h172l47 177h72l-47 -177h128zM227 245h172l56 210h-172z" />
    <glyph glyph-name="dollar" unicode="$" horiz-adv-x="562" 
d="M458 53q-54 -52 -138 -61v-97h-75v98q-89 11 -141 67.5t-54 139.5h80q2 -59 43 -97t114 -38q65 0 103.5 31t38.5 84q0 41 -21.5 67.5t-53.5 41.5t-86 32q-66 23 -105 42.5t-67 58.5t-28 103q0 70 49 120.5t128 61.5v98h75v-97q77 -11 127.5 -65t52.5 -128h-80
q-2 53 -41 86.5t-97 33.5q-57 0 -94 -28t-37 -82q0 -38 20.5 -63t51 -39t84.5 -33q65 -21 106.5 -42t70 -61.5t28.5 -106.5q0 -75 -54 -127z" />
    <glyph glyph-name="percent" unicode="%" horiz-adv-x="831" 
d="M131 393q-40 23 -63 62t-23 85t23 85t63 62t87 23t87 -23t63 -62t23 -85t-23 -85t-63 -62t-87 -23t-87 23zM217 0h-83l480 700h83zM292.5 462.5q29.5 30.5 29.5 77.5t-29.5 77.5t-74.5 30.5t-74.5 -30.5t-29.5 -77.5t29.5 -77.5t74.5 -30.5t74.5 30.5zM526 13
q-40 23 -63 62t-23 85t23 85t63 62t87 23t87 -23t63 -62t23 -85t-23 -85t-63 -62t-87 -23t-87 23zM687.5 82.5q29.5 30.5 29.5 77.5t-29.5 77.5t-74.5 30.5t-74.5 -30.5t-29.5 -77.5t29.5 -77.5t74.5 -30.5t74.5 30.5z" />
    <glyph glyph-name="ampersand" unicode="&#x26;" horiz-adv-x="640" 
d="M635 300l-132 -153l132 -147h-100l-81 92q-50 -53 -97.5 -77.5t-111.5 -24.5q-60 0 -104 23t-67.5 61.5t-23.5 85.5q0 45 20.5 87.5t57.5 73.5l70 59l-39 45q-29 33 -44 60.5t-15 64.5q0 45 20.5 81.5t58 57.5t85.5 21t85.5 -20t58 -54.5t20.5 -76.5q0 -41 -18.5 -74
t-63.5 -71l-46 -39l156 -175l86 100h93zM253 427l30 25q35 29 52.5 52.5t17.5 54.5q0 34 -25 57.5t-64 23.5t-64 -26t-25 -64q0 -24 11.5 -42.5t37.5 -47.5zM326 77q34 17 81 67l-162 184l-65 -55q-29 -24 -42 -50t-13 -59q0 -41 30.5 -72.5t89.5 -31.5q47 0 81 17z" />
    <glyph glyph-name="quotesingle" unicode="'" horiz-adv-x="200" 
d="M130 480h-60l-10 220h80z" />
    <glyph glyph-name="parenleft" unicode="(" horiz-adv-x="272" 
d="M197 -200q-49 72 -88 198.5t-39 266.5t39 266.5t88 198.5h75q-49 -74 -88 -200.5t-39 -264.5t39 -264.5t88 -200.5h-75z" />
    <glyph glyph-name="parenright" unicode=")" horiz-adv-x="272" 
d="M0 -200q49 74 88 200.5t39 264.5t-39 264.5t-88 200.5h75q49 -72 88 -198.5t39 -266.5t-39 -266.5t-88 -198.5h-75z" />
    <glyph glyph-name="asterisk" unicode="*" horiz-adv-x="450" 
d="M395 605l20 -75l-140 -30l95 -115l-65 -45l-80 125l-80 -125l-65 45l95 115l-140 30l20 75l140 -50l-10 145h80l-10 -145z" />
    <glyph glyph-name="plus" unicode="+" 
d="M306 376h204v-72h-204v-204h-72v204h-204v72h204v204h72v-204z" />
    <glyph glyph-name="comma" unicode="," horiz-adv-x="245" 
d="M105 -133h-70l55 230h90z" />
    <glyph glyph-name="hyphen" unicode="-" horiz-adv-x="360" 
d="M310 219h-260v72h260v-72z" />
    <glyph glyph-name="period" unicode="." horiz-adv-x="239" 
d="M164 0h-89v97h89v-97z" />
    <glyph glyph-name="slash" unicode="/" horiz-adv-x="360" 
d="M76 -200h-76l284 930h76z" />
    <glyph glyph-name="zero" unicode="0" horiz-adv-x="632" 
d="M181 34q-58 44 -89.5 125.5t-31.5 190.5t31.5 190.5t89.5 125.5t135 44t135 -44t89.5 -125.5t31.5 -190.5t-31.5 -190.5t-89.5 -125.5t-135 -44t-135 44zM407 100q39 35 60.5 99.5t21.5 150.5t-21.5 150.5t-60.5 99.5t-91 35t-91 -35t-60.5 -99.5t-21.5 -150.5
t21.5 -150.5t60.5 -99.5t91 -35t91 35z" />
    <glyph glyph-name="one" unicode="1" horiz-adv-x="355" 
d="M20 620l175 80h55v-700h-80v611l-150 -69v78z" />
    <glyph glyph-name="two" unicode="2" horiz-adv-x="529" 
d="M161 80h328v-80h-457v50l272 298q48 52 65 87.5t17 68.5q0 59 -37.5 95t-97.5 36q-59 0 -97.5 -36t-43.5 -99h-80q2 62 32.5 110t80 74t108.5 26q60 0 109.5 -25.5t79 -72.5t29.5 -108q0 -46 -22.5 -91t-81.5 -109z" />
    <glyph glyph-name="three" unicode="3" horiz-adv-x="546" 
d="M461.5 298.5q34.5 -46.5 34.5 -107.5q0 -55 -29.5 -101t-81.5 -73t-116 -27q-65 0 -117 28t-81.5 77t-30.5 110h80q2 -61 43 -100.5t106 -39.5q62 0 103 37t41 95q0 56 -39.5 91t-108.5 35h-53v75h53q58 0 93 33.5t35 82.5q0 53 -36 87t-90 34q-56 0 -92.5 -35.5
t-40.5 -91.5h-80q2 58 30 104t75.5 72t107.5 26q58 0 105.5 -25.5t75.5 -69.5t28 -97t-28 -92t-76 -60q55 -21 89.5 -67.5z" />
    <glyph glyph-name="four" unicode="4" horiz-adv-x="555" 
d="M425 232h105v-72h-105v-160h-77v160h-328v50l350 490h55v-468zM348 552l-224 -320h224v320z" />
    <glyph glyph-name="five" unicode="5" horiz-adv-x="560" 
d="M392.5 428.5q54.5 -31.5 86 -85.5t31.5 -118q0 -65 -30 -118.5t-85 -85t-125 -31.5q-58 0 -108 23.5t-82.5 65.5t-39.5 96h80q11 -49 50 -79.5t97 -30.5q73 0 116.5 45.5t43.5 114.5q0 44 -20 81t-56.5 58t-83.5 21q-39 0 -72 -13.5t-56 -36.5l-55 25l85 340h320v-75
h-260l-45 -185q26 11 45.5 15.5t42.5 4.5q66 0 120.5 -31.5z" />
    <glyph glyph-name="six" unicode="6" horiz-adv-x="560" 
d="M407 424.5q51 -30.5 82 -83t31 -116.5t-32 -118t-87.5 -85.5t-120.5 -31.5t-120.5 31.5t-87.5 85.5t-32 118q0 39 13.5 77.5t47.5 90.5l199 307h93l-170 -257q38 12 76 12q57 0 108 -30.5zM359 86q36 21 57 58t21 81t-21 81t-57 58t-79 21t-79 -21t-57 -58t-21 -81
t21 -81t57 -58t79 -21t79 21z" />
    <glyph glyph-name="seven" unicode="7" horiz-adv-x="495" 
d="M15 625v75h450v-50l-305 -650h-87l294 625h-352z" />
    <glyph glyph-name="eight" unicode="8" horiz-adv-x="562" 
d="M478.5 309q33.5 -50 33.5 -109q0 -57 -31 -105t-84 -76.5t-116 -28.5t-116 28.5t-84 76.5t-31 105q0 59 33.5 109t85.5 73q-41 23 -65 62t-24 86q0 52 26.5 93t72.5 64t102 23t102 -23t72.5 -64t26.5 -93q0 -47 -24 -86t-65 -62q52 -23 85.5 -73zM196.5 603
q-33.5 -32 -33.5 -78t33.5 -78t84.5 -32t84.5 32t33.5 78t-33.5 78t-84.5 32t-84.5 -32zM356 83.5q34 18.5 53.5 50.5t19.5 71t-19.5 71t-53.5 50.5t-75 18.5t-75 -18.5t-53.5 -50.5t-19.5 -71t19.5 -71t53.5 -50.5t75 -18.5t75 18.5z" />
    <glyph glyph-name="nine" unicode="9" horiz-adv-x="560" 
d="M400.5 678.5q55.5 -31.5 87.5 -85.5t32 -118q0 -39 -13.5 -77.5t-47.5 -90.5l-199 -307h-93l170 257q-38 -12 -76 -12q-57 0 -108 30.5t-82 83t-31 116.5t32 118t87.5 85.5t120.5 31.5t120.5 -31.5zM359 336q36 21 57 58t21 81t-21 81t-57 58t-79 21t-79 -21t-57 -58
t-21 -81t21 -81t57 -58t79 -21t79 21z" />
    <glyph glyph-name="colon" unicode=":" horiz-adv-x="239" 
d="M164 393h-89v97h89v-97zM164 0h-89v97h89v-97z" />
    <glyph glyph-name="semicolon" unicode=";" horiz-adv-x="255" 
d="M179 393h-89v97h89v-97zM105 -133h-70l55 230h90z" />
    <glyph glyph-name="less" unicode="&#x3c;" 
d="M35 381l460 190v-79l-385 -151l385 -151v-79l-460 190v80z" />
    <glyph glyph-name="equal" unicode="=" 
d="M505 397h-470v72h470v-72zM505 213h-470v72h470v-72z" />
    <glyph glyph-name="greater" unicode="&#x3e;" 
d="M45 492v79l460 -190v-80l-460 -190v79l385 151z" />
    <glyph glyph-name="question" unicode="?" horiz-adv-x="507" 
d="M197 220q0 46 14 78t34 52.5t52 45.5q40 32 58.5 56t18.5 63q0 52 -36.5 86t-92.5 34t-92.5 -35t-37.5 -85h-80q1 54 29.5 98.5t76 70.5t104.5 26q58 0 106.5 -25t77 -69.5t28.5 -100.5q0 -38 -12.5 -66.5t-31.5 -48t-49 -43.5q-29 -24 -46.5 -41.5t-29 -42.5t-11.5 -58
v-30h-80v35zM282 0h-89v97h89v-97z" />
    <glyph glyph-name="at" unicode="@" horiz-adv-x="895" 
d="M658 601.5q90 -48.5 141 -133t51 -188.5q0 -64 -20 -113t-55 -75.5t-80 -26.5q-37 0 -66.5 18t-48.5 52q-24 -32 -61 -51t-83 -19q-51 0 -95 25.5t-70 70.5t-26 99t26 99t70 70.5t95 25.5q38 0 71.5 -15.5t52.5 -39.5v45h70v-240q0 -32 16.5 -53.5t48.5 -21.5
q42 0 63.5 38t21.5 112q0 89 -41.5 158.5t-115.5 108t-168 38.5q-99 0 -175 -41.5t-118 -115.5t-42 -168q0 -86 43.5 -155.5t118 -109.5t163.5 -40q85 0 145 24v-68q-56 -21 -145 -21q-109 0 -199.5 48.5t-143 133.5t-52.5 188q0 112 51.5 200.5t143.5 139t210 50.5
q113 0 203 -48.5zM529.5 167.5q35.5 37.5 35.5 92.5t-35.5 92.5t-89.5 37.5t-89.5 -37.5t-35.5 -92.5t35.5 -92.5t89.5 -37.5t89.5 37.5z" />
    <glyph glyph-name="A" unicode="A" horiz-adv-x="670" 
d="M650 0h-86l-75 190h-310l-75 -190h-84l285 700h60zM459 265l-125 316l-125 -316h250z" />
    <glyph glyph-name="B" unicode="B" horiz-adv-x="577" 
d="M493 310.5q34 -45.5 34 -105.5q0 -58 -30 -105t-84 -73.5t-123 -26.5h-195v700h185q67 0 116 -23.5t75 -65.5t26 -96q0 -44 -25.5 -82t-67.5 -58q55 -19 89 -64.5zM175 625v-220h105q62 0 98 31t36 79t-36 79t-98 31h-105zM290 75q69 0 111.5 37.5t42.5 92.5t-42.5 92.5
t-111.5 37.5h-115v-260h115z" />
    <glyph glyph-name="C" unicode="C" horiz-adv-x="776" 
d="M232 38q-82 48 -129.5 131t-47.5 181t47.5 181t129.5 131t179 48q111 0 195 -60.5t126 -164.5h-85q-35 69 -96.5 109.5t-139.5 40.5q-74 0 -137 -38t-99.5 -103t-36.5 -144t36.5 -144t99.5 -103t137 -38q81 0 143 40.5t97 109.5h85q-42 -104 -126.5 -164.5t-198.5 -60.5
q-97 0 -179 48z" />
    <glyph glyph-name="D" unicode="D" horiz-adv-x="721" 
d="M95 0v700h185q117 0 204 -43.5t134.5 -123t47.5 -183.5t-47.5 -183.5t-134.5 -123t-204 -43.5h-185zM280 75q93 0 161.5 34t105 96.5t36.5 144.5t-36.5 144.5t-105 96.5t-161.5 34h-105v-550h105z" />
    <glyph glyph-name="E" unicode="E" 
d="M175 325v-250h300v-75h-380v700h370v-75h-290v-225h280v-75h-280z" />
    <glyph glyph-name="F" unicode="F" horiz-adv-x="475" 
d="M425 700v-75h-250v-225h240v-75h-240v-325h-80v700h330z" />
    <glyph glyph-name="G" unicode="G" horiz-adv-x="801" 
d="M391 370h370v-30q0 -95 -44 -175t-122.5 -127.5t-178.5 -47.5q-99 0 -182 48t-131 131t-48 181t48 181t131 131t182 48q114 0 201 -61t129 -164h-85q-34 69 -99 109.5t-146 40.5q-76 0 -139.5 -38t-101 -103t-37.5 -144t37.5 -144t101 -103t139.5 -38q69 0 125.5 28.5
t92 80.5t42.5 121h-285v75z" />
    <glyph glyph-name="H" unicode="H" horiz-adv-x="720" 
d="M545 400v300h80v-700h-80v325h-370v-325h-80v700h80v-300h370z" />
    <glyph glyph-name="I" unicode="I" horiz-adv-x="280" 
d="M180 0h-80v700h80v-700z" />
    <glyph glyph-name="J" unicode="J" horiz-adv-x="510" 
d="M108 17.5q-48 27.5 -75.5 75.5t-27.5 107h80q0 -60 37 -97.5t94 -37.5q58 0 93.5 39t35.5 106v490h80v-490q0 -64 -27 -114t-74.5 -78t-107.5 -28t-108 27.5z" />
    <glyph glyph-name="K" unicode="K" horiz-adv-x="595" 
d="M260 361l330 -361h-106l-309 339v-339h-80v700h80v-325l294 325h98z" />
    <glyph glyph-name="L" unicode="L" horiz-adv-x="480" 
d="M445 0h-350v700h80v-625h270v-75z" />
    <glyph glyph-name="M" unicode="M" horiz-adv-x="910" 
d="M760 700l85 -700h-80l-60 516l-230 -516h-40l-232 519l-60 -519h-78l85 700h56l250 -561l250 561h54z" />
    <glyph glyph-name="N" unicode="N" horiz-adv-x="790" 
d="M617 148v552h78v-700h-50l-472 552v-552h-78v700h50z" />
    <glyph glyph-name="O" unicode="O" horiz-adv-x="832" 
d="M234 38q-83 48 -131 131t-48 181t48 181t131 131t182 48t182 -48t131 -131t48 -181t-48 -181t-131 -131t-182 -48t-182 48zM555.5 103q63.5 38 101 103t37.5 144t-37.5 144t-101 103t-139.5 38t-139.5 -38t-101 -103t-37.5 -144t37.5 -144t101 -103t139.5 -38t139.5 38z
" />
    <glyph glyph-name="P" unicode="P" horiz-adv-x="562" 
d="M300 700q67 0 118.5 -26t80 -71.5t28.5 -102.5t-28.5 -102.5t-80 -71.5t-118.5 -26h-125v-300h-80v700h205zM300 375q66 0 105 34t39 91t-39 91t-105 34h-125v-250h125z" />
    <glyph glyph-name="Q" unicode="Q" horiz-adv-x="832" 
d="M742 194.5q-35 -72.5 -96 -123.5l125 -146h-95l-91 106q-79 -41 -169 -41q-99 0 -182 48t-131 131t-48 181t48 181t131 131t182 48t182 -48t131 -131t48 -181q0 -83 -35 -155.5zM534 91l-153 179h95l119 -139q47 40 73 96.5t26 122.5q0 79 -37.5 144t-101 103t-139.5 38
t-139.5 -38t-101 -103t-37.5 -144t37.5 -144t101 -103t139.5 -38q63 0 118 26z" />
    <glyph glyph-name="R" unicode="R" horiz-adv-x="610" 
d="M505 0l-248 300h-82v-300h-80v700h205q67 0 118.5 -26t80 -71.5t28.5 -102.5q0 -75 -47.5 -128.5t-127.5 -67.5l253 -304h-100zM175 625v-250h125q66 0 105 34t39 91t-39 91t-105 34h-125z" />
    <glyph glyph-name="S" unicode="S" horiz-adv-x="562" 
d="M162 17q-53 27 -81.5 75t-30.5 108h80q2 -59 43 -97t114 -38q65 0 103.5 31t38.5 84q0 41 -21.5 67.5t-53.5 41.5t-86 32q-66 23 -105 42.5t-67 58.5t-28 103q0 52 28 94t77.5 66.5t111.5 24.5q59 0 107.5 -25.5t77.5 -70.5t30 -99h-80q-2 53 -41 86.5t-97 33.5
q-57 0 -94 -28t-37 -82q0 -38 20.5 -63t51 -39t84.5 -33q65 -21 106.5 -42t70 -61.5t28.5 -106.5q0 -54 -29.5 -97.5t-80.5 -68t-115 -24.5q-72 0 -125 27z" />
    <glyph glyph-name="T" unicode="T" horiz-adv-x="490" 
d="M285 0h-80v625h-180v75h440v-75h-180v-625z" />
    <glyph glyph-name="U" unicode="U" horiz-adv-x="694" 
d="M209.5 23.5q-59.5 33.5 -92 94.5t-32.5 140v442h80v-442q0 -87 49 -140t133 -53t133 53t49 140v442h80v-442q0 -79 -32.5 -140t-92 -94.5t-137.5 -33.5t-137.5 33.5z" />
    <glyph glyph-name="V" unicode="V" horiz-adv-x="610" 
d="M306 154l195 546h84l-255 -700h-50l-255 700h86z" />
    <glyph glyph-name="W" unicode="W" horiz-adv-x="980" 
d="M696 152l176 548h83l-235 -700h-51l-180 546l-180 -546h-49l-235 700h85l175 -545l180 545h50z" />
    <glyph glyph-name="X" unicode="X" horiz-adv-x="580" 
d="M339 363l216 -363h-90l-175 298l-176 -298h-89l216 363l-196 337h90l156 -272l155 272h89z" />
    <glyph glyph-name="Y" unicode="Y" horiz-adv-x="560" 
d="M281 384l175 316h89l-225 -395v-305h-80v305l-225 395h91z" />
    <glyph glyph-name="Z" unicode="Z" horiz-adv-x="570" 
d="M505 650l-345 -575h365v-75h-470v50l345 575h-325v75h430v-50z" />
    <glyph glyph-name="bracketleft" unicode="[" horiz-adv-x="305" 
d="M295 -200h-200v930h200v-70h-125v-790h125v-70z" />
    <glyph glyph-name="backslash" unicode="\" horiz-adv-x="360" 
d="M360 -200h-76l-284 930h76z" />
    <glyph glyph-name="bracketright" unicode="]" horiz-adv-x="305" 
d="M210 -200h-200v70h125v790h-125v70h200v-930z" />
    <glyph glyph-name="asciicircum" unicode="^" horiz-adv-x="390" 
d="M233 700l137 -302h-77l-99 230l-99 -230h-75l137 302h76z" />
    <glyph glyph-name="underscore" unicode="_" horiz-adv-x="350" 
d="M370 -170h-390v65h390v-65z" />
    <glyph glyph-name="grave" unicode="`" horiz-adv-x="236" 
d="M206 560h-76l-100 140h86z" />
    <glyph glyph-name="a" unicode="a" horiz-adv-x="621" 
d="M471 490h75v-490h-75v75q-31 -39 -78 -62t-102 -23q-67 0 -125 33.5t-92 92t-34 129.5t34 129.5t92 92t125 33.5q55 0 102 -23t78 -62v75zM387 84.5q41 24.5 65 66.5t24 94t-24 94t-65 66.5t-90 24.5t-90 -24.5t-65 -66.5t-24 -94t24 -94t65 -66.5t90 -24.5t90 24.5z" />
    <glyph glyph-name="b" unicode="b" horiz-adv-x="626" 
d="M460 466.5q58 -33.5 92 -92t34 -129.5t-34 -129.5t-92 -92t-125 -33.5q-55 0 -102 23t-78 62v-75h-75v720h75v-305q31 39 78 62t102 23q67 0 125 -33.5zM419.5 84.5q40.5 24.5 64.5 66.5t24 94t-24 94t-64.5 66.5t-89.5 24.5t-90.5 -24.5t-65.5 -66.5t-24 -94t24 -94
t65.5 -66.5t90.5 -24.5t89.5 24.5z" />
    <glyph glyph-name="c" unicode="c" horiz-adv-x="556" 
d="M165.5 23.5q-57.5 33.5 -91.5 92t-34 129.5t34 129.5t91.5 92t125.5 33.5q80 0 144.5 -44t90.5 -121h-80q-22 45 -64 70t-91 25q-47 0 -87 -24.5t-63 -66.5t-23 -94t23 -94t63 -66.5t87 -24.5q49 0 91 25t64 70h80q-26 -77 -90.5 -121t-144.5 -44q-68 0 -125.5 33.5z" />
    <glyph glyph-name="d" unicode="d" horiz-adv-x="626" 
d="M471 720h75v-720h-75v75q-31 -39 -78 -62t-102 -23q-67 0 -125 33.5t-92 92t-34 129.5t34 129.5t92 92t125 33.5q55 0 102 -23t78 -62v305zM387 84.5q41 24.5 65 66.5t24 94t-24 94t-65 66.5t-90 24.5t-90 -24.5t-65 -66.5t-24 -94t24 -94t65 -66.5t90 -24.5t90 24.5z
" />
    <glyph glyph-name="e" unicode="e" horiz-adv-x="563" 
d="M408.5 469.5q55.5 -30.5 87.5 -86t32 -126.5q0 -24 -2 -37h-407q7 -73 51.5 -116.5t115.5 -43.5q104 0 150 85h80q-30 -75 -89 -115t-141 -40q-69 0 -125.5 33.5t-88.5 91.5t-32 130t32 130t88.5 91.5t125.5 33.5q67 0 122.5 -30.5zM176.5 392q-43.5 -38 -54.5 -104h327
q-7 64 -52.5 103t-110.5 39q-66 0 -109.5 -38z" />
    <glyph glyph-name="f" unicode="f" horiz-adv-x="330" 
d="M265 650q-37 0 -58.5 -21t-21.5 -59v-80h125v-68h-125v-422h-75v422h-80v68h80v85q0 64 41.5 104.5t108.5 40.5h50v-70h-45z" />
    <glyph glyph-name="g" unicode="g" horiz-adv-x="611" 
d="M461 490h75v-460q0 -69 -31 -124t-86.5 -85.5t-127.5 -30.5q-86 0 -149 45.5t-86 124.5h75q18 -46 60.5 -73t99.5 -27q78 0 124 47t46 123v64q-32 -39 -76.5 -61.5t-98.5 -22.5q-68 0 -124 31t-89 87t-33 127t33 127t89 87t124 31q54 0 98.5 -22.5t76.5 -61.5v74z
M381 103q40 23 62.5 63t22.5 89t-22.5 89t-62.5 63t-89 23t-89 -23t-62.5 -63t-22.5 -89t22.5 -89t62.5 -63t89 -23t89 23z" />
    <glyph glyph-name="h" unicode="h" horiz-adv-x="580" 
d="M414.5 471.5q45.5 -28.5 70.5 -77.5t25 -109v-285h-75v285q0 65 -36 105t-99 40q-40 0 -73 -18.5t-52.5 -51.5t-19.5 -75v-285h-75v720h75v-295q30 37 69.5 56t85.5 19q59 0 104.5 -28.5z" />
    <glyph glyph-name="i" unicode="i" horiz-adv-x="225" 
d="M150 0h-75v490h75v-490zM156 584h-87v92h87v-92z" />
    <glyph glyph-name="j" unicode="j" horiz-adv-x="225" 
d="M-50 -200v70h45q38 0 59 21t21 59v540h75v-545q0 -64 -41.5 -104.5t-108.5 -40.5h-50zM156 584h-87v92h87v-92z" />
    <glyph glyph-name="k" unicode="k" horiz-adv-x="489" 
d="M235 253l249 -253h-102l-227 234v-234h-75v720h75v-453l216 223h96z" />
    <glyph glyph-name="l" unicode="l" horiz-adv-x="235" 
d="M155 0h-75v720h75v-720z" />
    <glyph glyph-name="m" unicode="m" horiz-adv-x="870" 
d="M711 472.5q42 -27.5 65.5 -75t23.5 -107.5v-290h-75v290q0 61 -32.5 100.5t-87.5 39.5q-35 0 -64.5 -18.5t-47.5 -50.5t-18 -71v-290h-75v290q0 61 -32.5 100.5t-87.5 39.5q-35 0 -64.5 -18.5t-47.5 -50.5t-18 -71v-290h-75v490h75v-65q26 37 62 56t78 19
q51 0 94.5 -27.5t65.5 -72.5q26 48 69 74t96 26q54 0 96 -27.5z" />
    <glyph glyph-name="n" unicode="n" horiz-adv-x="575" 
d="M409.5 471.5q45.5 -28.5 70.5 -77.5t25 -109v-285h-75v285q0 65 -36 105t-99 40q-40 0 -73 -18.5t-52.5 -51.5t-19.5 -75v-285h-75v490h75v-65q30 37 69.5 56t85.5 19q59 0 104.5 -28.5z" />
    <glyph glyph-name="o" unicode="o" horiz-adv-x="592" 
d="M167.5 23.5q-58.5 33.5 -93 92t-34.5 129.5t34.5 129.5t93 92t128.5 33.5t128.5 -33.5t93 -92t34.5 -129.5t-34.5 -129.5t-93 -92t-128.5 -33.5t-128.5 33.5zM385.5 84.5q40.5 24.5 64.5 66.5t24 94t-24 94t-64.5 66.5t-89.5 24.5t-89.5 -24.5t-64.5 -66.5t-24 -94
t24 -94t64.5 -66.5t89.5 -24.5t89.5 24.5z" />
    <glyph glyph-name="p" unicode="p" horiz-adv-x="621" 
d="M455 466.5q58 -33.5 92 -92t34 -129.5t-34 -129.5t-92 -92t-125 -33.5q-55 0 -102 23t-78 62v-275h-75v690h75v-75q31 39 78 62t102 23q67 0 125 -33.5zM414.5 84.5q40.5 24.5 64.5 66.5t24 94t-24 94t-64.5 66.5t-89.5 24.5t-90.5 -24.5t-65.5 -66.5t-24 -94t24 -94
t65.5 -66.5t90.5 -24.5t89.5 24.5z" />
    <glyph glyph-name="q" unicode="q" horiz-adv-x="621" 
d="M471 490h75v-690h-75v275q-31 -39 -78 -62t-102 -23q-67 0 -125 33.5t-92 92t-34 129.5t34 129.5t92 92t125 33.5q55 0 102 -23t78 -62v75zM387 84.5q41 24.5 65 66.5t24 94t-24 94t-65 66.5t-90 24.5t-90 -24.5t-65 -66.5t-24 -94t24 -94t65 -66.5t90 -24.5t90 24.5z
" />
    <glyph glyph-name="r" unicode="r" horiz-adv-x="355" 
d="M345 495v-70h-50q-40 0 -73 -18.5t-52.5 -51.5t-19.5 -75v-280h-75v490h75v-70q30 37 69.5 56t85.5 19h40z" />
    <glyph glyph-name="s" unicode="s" horiz-adv-x="483" 
d="M145.5 10q-43.5 20 -68.5 55t-27 80h75q3 -38 35 -61.5t86 -23.5q45 0 74.5 19t29.5 54q0 27 -16 43.5t-39.5 24.5t-66.5 18q-54 12 -86 24.5t-55 40.5t-23 76q0 39 24 71t64.5 50.5t88.5 18.5q47 0 86.5 -20t63.5 -54t25 -76h-75q-2 34 -31 57t-73 23q-40 0 -67.5 -19
t-27.5 -51q0 -24 15.5 -39t38 -23t63.5 -18q54 -12 87.5 -25.5t57.5 -42.5t24 -79q0 -64 -53 -103.5t-131 -39.5q-55 0 -98.5 20z" />
    <glyph glyph-name="t" unicode="t" horiz-adv-x="350" 
d="M310 422h-125v-272q0 -37 21.5 -58.5t58.5 -21.5h45v-70h-50q-67 0 -108.5 40.5t-41.5 104.5v277h-80v68h80v130h75v-130h125v-68z" />
    <glyph glyph-name="u" unicode="u" horiz-adv-x="566" 
d="M171.5 17.5q-48.5 27.5 -75 76.5t-26.5 111v285h75v-285q0 -64 38 -104.5t100 -40.5t100 40.5t38 104.5v285h75v-285q0 -62 -26.5 -111t-75 -76.5t-111.5 -27.5t-111.5 27.5z" />
    <glyph glyph-name="v" unicode="v" horiz-adv-x="510" 
d="M256 116l165 374h79l-220 -490h-50l-220 490h81z" />
    <glyph glyph-name="w" unicode="w" horiz-adv-x="800" 
d="M571 117l141 373h78l-195 -490h-51l-145 364l-145 -364h-49l-195 490h80l140 -370l145 370h50z" />
    <glyph glyph-name="x" unicode="x" horiz-adv-x="529" 
d="M312 257l187 -257h-93l-142 202l-145 -202h-89l186 254l-172 236h93l128 -184l132 184h90z" />
    <glyph glyph-name="y" unicode="y" horiz-adv-x="520" 
d="M267 119l163 371h80l-310 -690h-80l105 235l-215 455h84z" />
    <glyph glyph-name="z" unicode="z" horiz-adv-x="470" 
d="M420 445l-275 -377h285v-68h-390v45l275 377h-265v68h370v-45z" />
    <glyph glyph-name="braceleft" unicode="{" horiz-adv-x="340" 
d="M205 410q0 -52 -22 -89t-64 -56q42 -19 64 -56t22 -89v-130q0 -57 29.5 -88.5t85.5 -31.5h10v-70h-10q-92 0 -141 51t-49 139v130q0 53 -25 81.5t-75 28.5v70q50 0 75 28.5t25 81.5v130q0 88 49 139t141 51h10v-70h-10q-56 0 -85.5 -31.5t-29.5 -88.5v-130z" />
    <glyph glyph-name="bar" unicode="|" horiz-adv-x="315" 
d="M195 -200h-75v930h75v-930z" />
    <glyph glyph-name="braceright" unicode="}" horiz-adv-x="340" 
d="M210 410q0 -53 25 -81.5t75 -28.5v-70q-50 0 -75 -28.5t-25 -81.5v-130q0 -88 -49 -139t-141 -51h-10v70h10q56 0 85.5 31.5t29.5 88.5v130q0 52 22 89t64 56q-42 19 -64 56t-22 89v130q0 57 -29.5 88.5t-85.5 31.5h-10v70h10q92 0 141 -51t49 -139v-130z" />
    <glyph glyph-name="asciitilde" unicode="~" 
d="M30 289q0 62 34.5 100.5t94.5 38.5q42 0 70.5 -15.5t64.5 -44.5q26 -22 44 -32.5t40 -10.5q27 0 43.5 20.5t16.5 51.5v31h72v-36q0 -62 -34.5 -100.5t-94.5 -38.5q-42 0 -70.5 15.5t-64.5 44.5q-26 22 -44 32.5t-40 10.5q-27 0 -43.5 -20.5t-16.5 -51.5v-31h-72v36z" />
    <glyph glyph-name="uni00A0" unicode="&#xa0;" horiz-adv-x="280" 
 />
    <glyph glyph-name="exclamdown" unicode="&#xa1;" horiz-adv-x="293" 
d="M191 393h-89v97h89v-97zM189 -200h-85l5 505h75z" />
    <glyph glyph-name="cent" unicode="&#xa2;" horiz-adv-x="556" 
d="M382 85q42 25 64 70h80q-23 -69 -77 -111.5t-124 -51.5v-97h-75v98q-59 10 -107 45t-75.5 89t-27.5 118t27.5 118t75.5 89t107 45v98h75v-97q70 -9 124 -51.5t77 -111.5h-80q-22 45 -64 70t-91 25q-47 0 -87 -24.5t-63 -66.5t-23 -94t23 -94t62.5 -66.5t86.5 -24.5
q50 0 92 25z" />
    <glyph glyph-name="sterling" unicode="&#xa3;" horiz-adv-x="538" 
d="M498 80v-80h-458v56q51 20 86.5 62t35.5 96q0 28 -8 55h-114v75h79q-26 46 -39 80t-13 81q0 63 29.5 109.5t78 71t105.5 24.5q60 0 107.5 -23.5t74.5 -68t27 -103.5h-80q0 57 -36.5 88.5t-95.5 31.5q-51 0 -89 -31t-38 -99q0 -41 11 -70t34 -69l12 -22h237v-75h-209
q5 -25 5 -48q0 -86 -55 -141h313z" />
    <glyph glyph-name="currency" unicode="&#xa4;" horiz-adv-x="496" 
d="M396 262l60 -59l-48 -48l-59 58q-45 -32 -101 -32t-101 32l-59 -58l-48 48l60 59q-25 41 -25 89t25 89l-60 59l48 48l59 -58q45 32 101 32t101 -32l59 58l48 -48l-60 -59q25 -41 25 -89t-25 -89zM324 272.5q31 31.5 31 78.5t-31 78.5t-76 31.5t-76 -31.5t-31 -78.5
t31 -78.5t76 -31.5t76 31.5z" />
    <glyph glyph-name="yen" unicode="&#xa5;" horiz-adv-x="560" 
d="M456 700h89l-185 -325h118v-75h-158v-85h158v-75h-158v-140h-80v140h-158v75h158v85h-158v75h118l-185 325h91l175 -316z" />
    <glyph glyph-name="brokenbar" unicode="&#xa6;" horiz-adv-x="315" 
d="M195 350h-75v380h75v-380zM195 -200h-75v380h75v-380z" />
    <glyph glyph-name="section" unicode="&#xa7;" horiz-adv-x="640" 
d="M545 177q-15 -32 -42 -59q42 -42 42 -108q0 -50 -26.5 -91t-76 -65t-117.5 -24q-69 0 -122.5 26t-83 73t-29.5 106h80q4 -57 46 -93.5t109 -36.5q64 0 102 28t38 77q0 31 -21 56t-64 36l-130 33q-90 23 -130 63t-40 107q0 32 16 66t45 60q-36 40 -36 104q0 47 26.5 87.5
t74.5 64t109 23.5q67 0 119 -26t81.5 -73t29.5 -106h-80q0 57 -41.5 93.5t-108.5 36.5q-56 0 -93 -29t-37 -71q0 -32 21 -58t64 -37l120 -30q90 -22 130 -62t40 -108q0 -31 -15 -63zM396 173q34 -9 50 -17q34 35 34 84q0 37 -22.5 60.5t-67.5 34.5l-136 34q-34 9 -59 21
q-35 -37 -35 -85q0 -37 22.5 -60.5t67.5 -34.5z" />
    <glyph glyph-name="dieresis" unicode="&#xa8;" horiz-adv-x="332" 
d="M117 584h-87v92h87v-92zM302 584h-87v92h87v-92z" />
    <glyph glyph-name="copyright" unicode="&#xa9;" horiz-adv-x="830" 
d="M234 38q-83 48 -131 131t-48 181t48 181t131 131t181 48t181 -48t131 -131t48 -181t-48 -181t-131 -131t-181 -48t-181 48zM560.5 94.5q66.5 39.5 105.5 107t39 148.5t-39 148.5t-105.5 107t-145.5 39.5t-145.5 -39.5t-105.5 -107t-39 -148.5t39 -148.5t105.5 -107
t145.5 -39.5t145.5 39.5zM321.5 184.5q-43.5 24.5 -69 68t-25.5 97.5t25.5 97.5t69 68t95.5 24.5q61 0 109 -33t66 -92h-75q-30 60 -100 60q-52 0 -86 -36t-34 -89t34 -89t86 -36q70 0 100 60h75q-18 -59 -66 -92t-109 -33q-52 0 -95.5 24.5z" />
    <glyph glyph-name="ordfeminine" unicode="&#xaa;" horiz-adv-x="410" 
d="M290 705h65v-310h-65v40q-16 -20 -42 -32.5t-58 -12.5q-44 0 -81 21t-58 58t-21 81t21 81t58 58t81 21q32 0 58 -12.5t42 -32.5v40zM265.5 479.5q29.5 29.5 29.5 70.5t-29.5 70.5t-70.5 29.5t-70.5 -29.5t-29.5 -70.5t29.5 -70.5t70.5 -29.5t70.5 29.5z" />
    <glyph glyph-name="guillemotleft" unicode="&#xab;" horiz-adv-x="500" 
d="M255 75h-85l-145 180l145 180h85l-145 -180zM450 75h-85l-145 180l145 180h85l-145 -180z" />
    <glyph glyph-name="logicalnot" unicode="&#xac;" 
d="M510 223h-72v143h-408v72h480v-215z" />
    <glyph glyph-name="uni00AD" unicode="&#xad;" horiz-adv-x="0" 
 />
    <glyph glyph-name="registered" unicode="&#xae;" horiz-adv-x="388" 
d="M282 687q40 -23 63 -63t23 -88t-23 -88t-63 -63t-88 -23t-88 23t-63 63t-23 88t23 88t63 63t88 23t88 -23zM285 443q35 36 35 93t-35 93t-91 36t-91 -36t-35 -93t35 -93t91 -36t91 36zM255.5 537.5q-9.5 -14.5 -26.5 -20.5l49 -67h-48l-44 63h-14v-63h-41v180h74
q27 0 43.5 -16t16.5 -43q0 -19 -9.5 -33.5zM172 594v-45h21q17 0 25 5t8 17t-8 17.5t-25 5.5h-21z" />
    <glyph glyph-name="macron" unicode="&#xaf;" horiz-adv-x="344" 
d="M314 594h-284v66h284v-66z" />
    <glyph glyph-name="degree" unicode="&#xb0;" horiz-adv-x="318" 
d="M70 524.5q-35 34.5 -35 85.5t35 85.5t89 34.5t89 -34.5t35 -85.5t-35 -85.5t-89 -34.5t-89 34.5zM208 561.5q20 19.5 20 48.5t-20 48.5t-49 19.5t-49 -19.5t-20 -48.5t20 -48.5t49 -19.5t49 19.5z" />
    <glyph glyph-name="plusminus" unicode="&#xb1;" 
d="M306 677v-204h204v-72h-204v-204h-72v204h-204v72h204v204h72zM510 53h-480v72h480v-72z" />
    <glyph glyph-name="uni00B2" unicode="&#xb2;" horiz-adv-x="311" 
d="M136 546h150v-58h-249v42l135 139q22 22 30.5 38t8.5 34q0 20 -15 33t-37 13q-27 0 -42.5 -15.5t-16.5 -41.5h-65q1 57 36 86t88 29q51 0 85 -27.5t34 -73.5q0 -30 -13.5 -54t-43.5 -56z" />
    <glyph glyph-name="uni00B3" unicode="&#xb3;" horiz-adv-x="322" 
d="M271 638.5q16 -22.5 16 -51.5q0 -46 -33.5 -75t-92.5 -29q-58 0 -94 31t-37 86h68q1 -26 17.5 -42.5t45.5 -16.5q27 0 43 14.5t16 37.5q0 24 -17 37.5t-45 13.5h-30v49h28q24 0 39.5 14t15.5 37q0 19 -15 31.5t-38 12.5q-26 0 -40.5 -15.5t-15.5 -37.5h-65q1 52 36.5 81
t85.5 29q51 0 84.5 -27t33.5 -70q0 -27 -13.5 -46.5t-36.5 -29.5q28 -11 44 -33.5z" />
    <glyph glyph-name="acute" unicode="&#xb4;" horiz-adv-x="233" 
d="M103 560h-73l90 140h83z" />
    <glyph glyph-name="uni00B5" unicode="&#xb5;" horiz-adv-x="580" 
d="M430 490h75v-490h-75v65q-29 -37 -68.5 -56t-82.5 -19q-41 0 -74.5 13t-54.5 37v-240h-75v690h75v-285q0 -65 36 -105t99 -40q40 0 73 18.5t52.5 51.5t19.5 75v285z" />
    <glyph glyph-name="paragraph" unicode="&#xb6;" horiz-adv-x="562" 
d="M272 -80v400h-37q-53 0 -97.5 25t-71 68.5t-26.5 96.5t26.5 96.5t71 68.5t97.5 25h102v-780h-65zM477 -80h-65v780h65v-780z" />
    <glyph glyph-name="periodcentered" unicode="&#xb7;" horiz-adv-x="280" 
d="M184 206h-89v97h89v-97z" />
    <glyph glyph-name="cedilla" unicode="&#xb8;" horiz-adv-x="210" 
d="M103 -39q38 -4 57.5 -26t19.5 -50q0 -42 -27 -63.5t-68 -21.5h-55v50h45q22 0 33.5 9.5t11.5 25.5t-11.5 25.5t-33.5 9.5h-32v35l34 76l46 -22v-5z" />
    <glyph glyph-name="uni00B9" unicode="&#xb9;" horiz-adv-x="245" 
d="M30 799l89 41h61v-352h-63v288l-87 -37v60z" />
    <glyph glyph-name="ordmasculine" unicode="&#xba;" horiz-adv-x="380" 
d="M109 411q-37 21 -58 58t-21 81t21 81t58 58t81 21t81 -21t58 -58t21 -81t-21 -81t-58 -58t-81 -21t-81 21zM258 479q27 29 27 71t-27 71t-68 29t-68 -29t-27 -71t27 -71t68 -29t68 29z" />
    <glyph glyph-name="guillemotright" unicode="&#xbb;" horiz-adv-x="500" 
d="M135 75h-85l145 180l-145 180h85l145 -180zM330 75h-85l145 180l-145 180h85l145 -180z" />
    <glyph glyph-name="onequarter" unicode="&#xbc;" horiz-adv-x="658" 
d="M30 659l89 41h61v-352h-63v288l-87 -37v60zM118 0h-83l480 700h83zM587 128h51v-53h-51v-75h-62v75h-167v44l169 233h60v-224zM525 265l-98 -137h98v137z" />
    <glyph glyph-name="onehalf" unicode="&#xbd;" horiz-adv-x="689" 
d="M30 659l89 41h61v-352h-63v288l-87 -37v60zM118 0h-83l480 700h83zM514 58h150v-58h-249v42l135 139q22 22 30.5 38t8.5 34q0 20 -15 33t-37 13q-27 0 -42.5 -15.5t-16.5 -41.5h-65q1 57 36 86t88 29q51 0 85 -27.5t34 -73.5q0 -30 -13.5 -54t-43.5 -56z" />
    <glyph glyph-name="threequarters" unicode="&#xbe;" horiz-adv-x="735" 
d="M271 498.5q16 -22.5 16 -51.5q0 -46 -33.5 -75t-92.5 -29q-58 0 -94 31t-37 86h68q1 -26 17.5 -42.5t45.5 -16.5q27 0 43 14.5t16 37.5q0 24 -17 37.5t-45 13.5h-30v49h28q24 0 39.5 14t15.5 37q0 19 -15 31.5t-38 12.5q-26 0 -40.5 -15.5t-15.5 -37.5h-65q1 52 36.5 81
t85.5 29q51 0 84.5 -27t33.5 -70q0 -27 -13.5 -46.5t-36.5 -29.5q28 -11 44 -33.5zM195 0h-83l480 700h83zM664 128h51v-53h-51v-75h-62v75h-167v44l169 233h60v-224zM602 265l-98 -137h98v137z" />
    <glyph glyph-name="questiondown" unicode="&#xbf;" horiz-adv-x="492" 
d="M309 393h-89v97h89v-97zM150.5 -185q-48.5 25 -77 69.5t-28.5 100.5q0 38 12.5 66.5t31.5 48t49 43.5q29 24 46.5 41.5t29 42.5t11.5 58v20h80v-25q0 -46 -14 -78t-34 -52.5t-52 -45.5q-40 -32 -58.5 -56t-18.5 -63q0 -52 36.5 -86t92.5 -34q55 0 91.5 35t38.5 85h80
q-1 -54 -29.5 -98.5t-76 -70.5t-104.5 -26q-58 0 -106.5 25z" />
    <glyph glyph-name="Agrave" unicode="&#xc0;" horiz-adv-x="670" 
d="M650 0h-86l-75 190h-310l-75 -190h-84l285 700h60zM459 265l-125 316l-125 -316h250zM377 765h-76l-100 140h86z" />
    <glyph glyph-name="Aacute" unicode="&#xc1;" horiz-adv-x="670" 
d="M650 0h-86l-75 190h-310l-75 -190h-84l285 700h60zM459 265l-125 316l-125 -316h250zM358 765h-73l90 140h83z" />
    <glyph glyph-name="Acircumflex" unicode="&#xc2;" horiz-adv-x="670" 
d="M650 0h-86l-75 190h-310l-75 -190h-84l285 700h60zM459 265l-125 316l-125 -316h250zM259 765h-81l124 135h65l124 -135h-80l-76 84z" />
    <glyph glyph-name="Atilde" unicode="&#xc3;" horiz-adv-x="670" 
d="M650 0h-86l-75 190h-310l-75 -190h-84l285 700h60zM459 265l-125 316l-125 -316h250zM182 795q0 43 22 69t61 26q21 0 40.5 -9t43.5 -25q13 -8 25 -14.5t21 -6.5q17 0 24.5 11.5t7.5 34.5v9h60v-20q0 -43 -22 -69t-61 -26q-21 0 -40.5 9t-43.5 25q-13 8 -25 14.5t-21 6.5
q-17 0 -24.5 -11.5t-7.5 -34.5v-9h-60v20z" />
    <glyph glyph-name="Adieresis" unicode="&#xc4;" horiz-adv-x="670" 
d="M650 0h-86l-75 190h-310l-75 -190h-84l285 700h60zM459 265l-125 316l-125 -316h250zM286 789h-87v92h87v-92zM471 789h-87v92h87v-92z" />
    <glyph glyph-name="Aring" unicode="&#xc5;" horiz-adv-x="670" 
d="M650 0h-86l-75 190h-310l-75 -190h-84l285 700h60zM459 265l-125 316l-125 -316h250zM266 777q-27 27 -27 66t27 66t69 27t69 -27t27 -66t-27 -66t-69 -27t-69 27zM366 812q12 12 12 31t-12 31t-31 12t-31 -12t-12 -31t12 -31t31 -12t31 12z" />
    <glyph glyph-name="AE" unicode="&#xc6;" horiz-adv-x="885" 
d="M520 325v-250h300v-75h-380v210h-261l-129 -210h-90l430 700h420v-75h-290v-225h280v-75h-280zM440 635l-215 -350h215v350z" />
    <glyph glyph-name="Ccedilla" unicode="&#xc7;" horiz-adv-x="776" 
d="M736 215q-40 -98 -118 -157.5t-183 -66.5l-14 -30q38 -4 57.5 -26t19.5 -50q0 -42 -27 -63.5t-68 -21.5h-55v50h45q22 0 33.5 9.5t11.5 25.5t-11.5 25.5t-33.5 9.5h-32v35l16 37q-90 8 -163.5 57.5t-116 128.5t-42.5 172q0 98 47.5 181t129.5 131t179 48q111 0 195 -60.5
t126 -164.5h-85q-35 69 -96.5 109.5t-139.5 40.5q-74 0 -137 -38t-99.5 -103t-36.5 -144t36.5 -144t99.5 -103t137 -38q81 0 143 40.5t97 109.5h85z" />
    <glyph glyph-name="Egrave" unicode="&#xc8;" 
d="M175 325v-250h300v-75h-380v700h370v-75h-290v-225h280v-75h-280zM325 765h-76l-100 140h86z" />
    <glyph glyph-name="Eacute" unicode="&#xc9;" 
d="M175 325v-250h300v-75h-380v700h370v-75h-290v-225h280v-75h-280zM306 765h-73l90 140h83z" />
    <glyph glyph-name="Ecircumflex" unicode="&#xca;" 
d="M175 325v-250h300v-75h-380v700h370v-75h-290v-225h280v-75h-280zM207 765h-81l124 135h65l124 -135h-80l-76 84z" />
    <glyph glyph-name="Edieresis" unicode="&#xcb;" 
d="M175 325v-250h300v-75h-380v700h370v-75h-290v-225h280v-75h-280zM234 789h-87v92h87v-92zM419 789h-87v92h87v-92z" />
    <glyph glyph-name="Igrave" unicode="&#xcc;" horiz-adv-x="280" 
d="M180 0h-80v700h80v-700zM182 765h-76l-100 140h86z" />
    <glyph glyph-name="Iacute" unicode="&#xcd;" horiz-adv-x="280" 
d="M180 0h-80v700h80v-700zM163 765h-73l90 140h83z" />
    <glyph glyph-name="Icircumflex" unicode="&#xce;" horiz-adv-x="280" 
d="M180 0h-80v700h80v-700zM64 765h-81l124 135h65l124 -135h-80l-76 84z" />
    <glyph glyph-name="Idieresis" unicode="&#xcf;" horiz-adv-x="280" 
d="M180 0h-80v700h80v-700zM91 789h-87v92h87v-92zM276 789h-87v92h87v-92z" />
    <glyph glyph-name="Eth" unicode="&#xd0;" horiz-adv-x="731" 
d="M290 700q117 0 204 -43.5t134.5 -123t47.5 -183.5t-47.5 -183.5t-134.5 -123t-204 -43.5h-185v317h-90v70h90v313h185zM290 75q93 0 161.5 34t105 96.5t36.5 144.5t-36.5 144.5t-105 96.5t-161.5 34h-105v-238h215v-70h-215v-242h105z" />
    <glyph glyph-name="Ntilde" unicode="&#xd1;" horiz-adv-x="790" 
d="M617 148v552h78v-700h-50l-472 552v-552h-78v700h50zM242 795q0 43 22 69t61 26q21 0 40.5 -9t43.5 -25q13 -8 25 -14.5t21 -6.5q17 0 24.5 11.5t7.5 34.5v9h60v-20q0 -43 -22 -69t-61 -26q-21 0 -40.5 9t-43.5 25q-13 8 -25 14.5t-21 6.5q-17 0 -24.5 -11.5t-7.5 -34.5
v-9h-60v20z" />
    <glyph glyph-name="Ograve" unicode="&#xd2;" horiz-adv-x="832" 
d="M234 38q-83 48 -131 131t-48 181t48 181t131 131t182 48t182 -48t131 -131t48 -181t-48 -181t-131 -131t-182 -48t-182 48zM555.5 103q63.5 38 101 103t37.5 144t-37.5 144t-101 103t-139.5 38t-139.5 -38t-101 -103t-37.5 -144t37.5 -144t101 -103t139.5 -38t139.5 38z
M458 765h-76l-100 140h86z" />
    <glyph glyph-name="Oacute" unicode="&#xd3;" horiz-adv-x="832" 
d="M234 38q-83 48 -131 131t-48 181t48 181t131 131t182 48t182 -48t131 -131t48 -181t-48 -181t-131 -131t-182 -48t-182 48zM555.5 103q63.5 38 101 103t37.5 144t-37.5 144t-101 103t-139.5 38t-139.5 -38t-101 -103t-37.5 -144t37.5 -144t101 -103t139.5 -38t139.5 38z
M439 765h-73l90 140h83z" />
    <glyph glyph-name="Ocircumflex" unicode="&#xd4;" horiz-adv-x="832" 
d="M234 38q-83 48 -131 131t-48 181t48 181t131 131t182 48t182 -48t131 -131t48 -181t-48 -181t-131 -131t-182 -48t-182 48zM555.5 103q63.5 38 101 103t37.5 144t-37.5 144t-101 103t-139.5 38t-139.5 -38t-101 -103t-37.5 -144t37.5 -144t101 -103t139.5 -38t139.5 38z
M340 765h-81l124 135h65l124 -135h-80l-76 84z" />
    <glyph glyph-name="Otilde" unicode="&#xd5;" horiz-adv-x="832" 
d="M234 38q-83 48 -131 131t-48 181t48 181t131 131t182 48t182 -48t131 -131t48 -181t-48 -181t-131 -131t-182 -48t-182 48zM555.5 103q63.5 38 101 103t37.5 144t-37.5 144t-101 103t-139.5 38t-139.5 -38t-101 -103t-37.5 -144t37.5 -144t101 -103t139.5 -38t139.5 38z
M263 795q0 43 22 69t61 26q21 0 40.5 -9t43.5 -25q13 -8 25 -14.5t21 -6.5q17 0 24.5 11.5t7.5 34.5v9h60v-20q0 -43 -22 -69t-61 -26q-21 0 -40.5 9t-43.5 25q-13 8 -25 14.5t-21 6.5q-17 0 -24.5 -11.5t-7.5 -34.5v-9h-60v20z" />
    <glyph glyph-name="Odieresis" unicode="&#xd6;" horiz-adv-x="832" 
d="M234 38q-83 48 -131 131t-48 181t48 181t131 131t182 48t182 -48t131 -131t48 -181t-48 -181t-131 -131t-182 -48t-182 48zM555.5 103q63.5 38 101 103t37.5 144t-37.5 144t-101 103t-139.5 38t-139.5 -38t-101 -103t-37.5 -144t37.5 -144t101 -103t139.5 -38t139.5 38z
M367 789h-87v92h87v-92zM552 789h-87v92h87v-92z" />
    <glyph glyph-name="multiply" unicode="&#xd7;" 
d="M435 554l48 -48l-165 -165l165 -165l-48 -48l-165 165l-165 -165l-48 48l165 165l-165 165l48 48l165 -165z" />
    <glyph glyph-name="Oslash" unicode="&#xd8;" horiz-adv-x="832" 
d="M664 613q53 -50 83 -118t30 -145q0 -98 -48 -181t-131 -131t-182 -48q-104 0 -191 54l-42 -54h-90l75 97q-53 50 -83 118t-30 145q0 98 48 181t131 131t182 48q104 0 191 -54l42 54h90zM158.5 240.5q20.5 -51.5 58.5 -90.5l343 445q-67 40 -144 40q-76 0 -139.5 -38
t-101 -103t-37.5 -144q0 -58 20.5 -109.5zM555.5 103q63.5 38 101 103t37.5 144q0 58 -20.5 109.5t-58.5 90.5l-343 -445q67 -40 144 -40q76 0 139.5 38z" />
    <glyph glyph-name="Ugrave" unicode="&#xd9;" horiz-adv-x="694" 
d="M209.5 23.5q-59.5 33.5 -92 94.5t-32.5 140v442h80v-442q0 -87 49 -140t133 -53t133 53t49 140v442h80v-442q0 -79 -32.5 -140t-92 -94.5t-137.5 -33.5t-137.5 33.5zM389 765h-76l-100 140h86z" />
    <glyph glyph-name="Uacute" unicode="&#xda;" horiz-adv-x="694" 
d="M209.5 23.5q-59.5 33.5 -92 94.5t-32.5 140v442h80v-442q0 -87 49 -140t133 -53t133 53t49 140v442h80v-442q0 -79 -32.5 -140t-92 -94.5t-137.5 -33.5t-137.5 33.5zM370 765h-73l90 140h83z" />
    <glyph glyph-name="Ucircumflex" unicode="&#xdb;" horiz-adv-x="694" 
d="M209.5 23.5q-59.5 33.5 -92 94.5t-32.5 140v442h80v-442q0 -87 49 -140t133 -53t133 53t49 140v442h80v-442q0 -79 -32.5 -140t-92 -94.5t-137.5 -33.5t-137.5 33.5zM271 765h-81l124 135h65l124 -135h-80l-76 84z" />
    <glyph glyph-name="Udieresis" unicode="&#xdc;" horiz-adv-x="694" 
d="M209.5 23.5q-59.5 33.5 -92 94.5t-32.5 140v442h80v-442q0 -87 49 -140t133 -53t133 53t49 140v442h80v-442q0 -79 -32.5 -140t-92 -94.5t-137.5 -33.5t-137.5 33.5zM298 789h-87v92h87v-92zM483 789h-87v92h87v-92z" />
    <glyph glyph-name="Yacute" unicode="&#xdd;" horiz-adv-x="560" 
d="M281 384l175 316h89l-225 -395v-305h-80v305l-225 395h91zM303 765h-73l90 140h83z" />
    <glyph glyph-name="Thorn" unicode="&#xde;" horiz-adv-x="677" 
d="M420 545q67 0 117 -25t77.5 -69.5t27.5 -100.5t-27.5 -100.5t-77.5 -69.5t-117 -25h-245v-155h-80v700h80v-155h245zM420 230q66 0 102.5 32.5t36.5 87.5t-36.5 87.5t-102.5 32.5h-245v-240h245z" />
    <glyph glyph-name="germandbls" unicode="&#xdf;" horiz-adv-x="563" 
d="M485.5 309q32.5 -44 32.5 -109q0 -60 -27.5 -105.5t-76.5 -70t-110 -24.5h-58v70h58q60 0 98 35.5t38 94.5t-38 94.5t-98 35.5h-58v68h36q57 0 93 32t36 89q0 58 -35.5 89.5t-88.5 31.5q-62 0 -97 -40t-35 -105v-495h-75v495q0 62 26 111t73 76.5t108 27.5
q56 0 101.5 -23t72.5 -65t27 -98q0 -54 -24.5 -93.5t-64.5 -59.5q54 -18 86.5 -62z" />
    <glyph glyph-name="agrave" unicode="&#xe0;" horiz-adv-x="621" 
d="M471 490h75v-490h-75v75q-31 -39 -78 -62t-102 -23q-67 0 -125 33.5t-92 92t-34 129.5t34 129.5t92 92t125 33.5q55 0 102 -23t78 -62v75zM387 84.5q41 24.5 65 66.5t24 94t-24 94t-65 66.5t-90 24.5t-90 -24.5t-65 -66.5t-24 -94t24 -94t65 -66.5t90 -24.5t90 24.5z
M352 560h-76l-100 140h86z" />
    <glyph glyph-name="aacute" unicode="&#xe1;" horiz-adv-x="621" 
d="M471 490h75v-490h-75v75q-31 -39 -78 -62t-102 -23q-67 0 -125 33.5t-92 92t-34 129.5t34 129.5t92 92t125 33.5q55 0 102 -23t78 -62v75zM387 84.5q41 24.5 65 66.5t24 94t-24 94t-65 66.5t-90 24.5t-90 -24.5t-65 -66.5t-24 -94t24 -94t65 -66.5t90 -24.5t90 24.5z
M334 560h-73l90 140h83z" />
    <glyph glyph-name="acircumflex" unicode="&#xe2;" horiz-adv-x="621" 
d="M471 490h75v-490h-75v75q-31 -39 -78 -62t-102 -23q-67 0 -125 33.5t-92 92t-34 129.5t34 129.5t92 92t125 33.5q55 0 102 -23t78 -62v75zM387 84.5q41 24.5 65 66.5t24 94t-24 94t-65 66.5t-90 24.5t-90 -24.5t-65 -66.5t-24 -94t24 -94t65 -66.5t90 -24.5t90 24.5z
M235 560h-81l124 135h65l124 -135h-80l-76 84z" />
    <glyph glyph-name="atilde" unicode="&#xe3;" horiz-adv-x="621" 
d="M471 490h75v-490h-75v75q-31 -39 -78 -62t-102 -23q-67 0 -125 33.5t-92 92t-34 129.5t34 129.5t92 92t125 33.5q55 0 102 -23t78 -62v75zM387 84.5q41 24.5 65 66.5t24 94t-24 94t-65 66.5t-90 24.5t-90 -24.5t-65 -66.5t-24 -94t24 -94t65 -66.5t90 -24.5t90 24.5z
M158 590q0 43 22 69t61 26q21 0 40.5 -9t43.5 -25q13 -8 25 -14.5t21 -6.5q17 0 24.5 11.5t7.5 34.5v9h60v-20q0 -43 -22 -69t-61 -26q-21 0 -40.5 9t-43.5 25q-13 8 -25 14.5t-21 6.5q-17 0 -24.5 -11.5t-7.5 -34.5v-9h-60v20z" />
    <glyph glyph-name="adieresis" unicode="&#xe4;" horiz-adv-x="621" 
d="M471 490h75v-490h-75v75q-31 -39 -78 -62t-102 -23q-67 0 -125 33.5t-92 92t-34 129.5t34 129.5t92 92t125 33.5q55 0 102 -23t78 -62v75zM387 84.5q41 24.5 65 66.5t24 94t-24 94t-65 66.5t-90 24.5t-90 -24.5t-65 -66.5t-24 -94t24 -94t65 -66.5t90 -24.5t90 24.5z
M262 584h-87v92h87v-92zM447 584h-87v92h87v-92z" />
    <glyph glyph-name="aring" unicode="&#xe5;" horiz-adv-x="621" 
d="M471 490h75v-490h-75v75q-31 -39 -78 -62t-102 -23q-67 0 -125 33.5t-92 92t-34 129.5t34 129.5t92 92t125 33.5q55 0 102 -23t78 -62v75zM387 84.5q41 24.5 65 66.5t24 94t-24 94t-65 66.5t-90 24.5t-90 -24.5t-65 -66.5t-24 -94t24 -94t65 -66.5t90 -24.5t90 24.5z
M242 572q-27 27 -27 66t27 66t69 27t69 -27t27 -66t-27 -66t-69 -27t-69 27zM342 607q12 12 12 31t-12 31t-31 12t-31 -12t-12 -31t12 -31t31 -12t31 12z" />
    <glyph glyph-name="ae" unicode="&#xe6;" horiz-adv-x="923" 
d="M769.5 469q54.5 -31 86.5 -86t32 -126q0 -24 -2 -37h-397q7 -73 50.5 -116.5t110.5 -43.5q49 0 86 22t60 63h80q-30 -75 -88.5 -115t-137.5 -40q-61 0 -114 28t-86 82q-29 -48 -83 -79t-122 -31q-55 0 -98 19t-67.5 53t-24.5 78q0 70 50.5 109t134.5 39h170v32
q0 47 -36.5 78.5t-98.5 31.5q-53 0 -85.5 -21t-44.5 -54h-75q13 65 68 105t137 40q65 0 111 -26.5t72 -73.5q35 50 85.5 75t107.5 25q64 0 118.5 -31zM545.5 392q-42.5 -38 -53.5 -104h317q-7 63 -52 102.5t-106 39.5q-63 0 -105.5 -38zM331 79q38 19 58.5 50t20.5 66v25
h-170q-107 0 -107 -80q0 -35 29 -57.5t83 -22.5q48 0 86 19z" />
    <glyph glyph-name="ccedilla" unicode="&#xe7;" horiz-adv-x="556" 
d="M382 85q42 25 64 70h80q-23 -71 -80.5 -114t-130.5 -50l-14 -30q38 -4 57.5 -26t19.5 -50q0 -42 -27 -63.5t-68 -21.5h-55v50h45q22 0 33.5 9.5t11.5 25.5t-11.5 25.5t-33.5 9.5h-32v35l17 37q-61 8 -111 43t-78.5 90t-28.5 120q0 71 34 129.5t91.5 92t125.5 33.5
q80 0 144.5 -44t90.5 -121h-80q-22 45 -64 70t-91 25q-47 0 -87 -24.5t-63 -66.5t-23 -94t23 -94t63 -66.5t87 -24.5q49 0 91 25z" />
    <glyph glyph-name="egrave" unicode="&#xe8;" horiz-adv-x="563" 
d="M408.5 469.5q55.5 -30.5 87.5 -86t32 -126.5q0 -24 -2 -37h-407q7 -73 51.5 -116.5t115.5 -43.5q104 0 150 85h80q-30 -75 -89 -115t-141 -40q-69 0 -125.5 33.5t-88.5 91.5t-32 130t32 130t88.5 91.5t125.5 33.5q67 0 122.5 -30.5zM176.5 392q-43.5 -38 -54.5 -104h327
q-7 64 -52.5 103t-110.5 39q-66 0 -109.5 -38zM326 560h-76l-100 140h86z" />
    <glyph glyph-name="eacute" unicode="&#xe9;" horiz-adv-x="563" 
d="M408.5 469.5q55.5 -30.5 87.5 -86t32 -126.5q0 -24 -2 -37h-407q7 -73 51.5 -116.5t115.5 -43.5q104 0 150 85h80q-30 -75 -89 -115t-141 -40q-69 0 -125.5 33.5t-88.5 91.5t-32 130t32 130t88.5 91.5t125.5 33.5q67 0 122.5 -30.5zM176.5 392q-43.5 -38 -54.5 -104h327
q-7 64 -52.5 103t-110.5 39q-66 0 -109.5 -38zM308 560h-73l90 140h83z" />
    <glyph glyph-name="ecircumflex" unicode="&#xea;" horiz-adv-x="563" 
d="M408.5 469.5q55.5 -30.5 87.5 -86t32 -126.5q0 -24 -2 -37h-407q7 -73 51.5 -116.5t115.5 -43.5q104 0 150 85h80q-30 -75 -89 -115t-141 -40q-69 0 -125.5 33.5t-88.5 91.5t-32 130t32 130t88.5 91.5t125.5 33.5q67 0 122.5 -30.5zM176.5 392q-43.5 -38 -54.5 -104h327
q-7 64 -52.5 103t-110.5 39q-66 0 -109.5 -38zM209 560h-81l124 135h65l124 -135h-80l-76 84z" />
    <glyph glyph-name="edieresis" unicode="&#xeb;" horiz-adv-x="563" 
d="M408.5 469.5q55.5 -30.5 87.5 -86t32 -126.5q0 -24 -2 -37h-407q7 -73 51.5 -116.5t115.5 -43.5q104 0 150 85h80q-30 -75 -89 -115t-141 -40q-69 0 -125.5 33.5t-88.5 91.5t-32 130t32 130t88.5 91.5t125.5 33.5q67 0 122.5 -30.5zM176.5 392q-43.5 -38 -54.5 -104h327
q-7 64 -52.5 103t-110.5 39q-66 0 -109.5 -38zM236 584h-87v92h87v-92zM421 584h-87v92h87v-92z" />
    <glyph glyph-name="igrave" unicode="&#xec;" horiz-adv-x="225" 
d="M150 0h-75v490h75v-490zM154 560h-76l-100 140h86z" />
    <glyph glyph-name="iacute" unicode="&#xed;" horiz-adv-x="225" 
d="M150 0h-75v490h75v-490zM136 560h-73l90 140h83z" />
    <glyph glyph-name="icircumflex" unicode="&#xee;" horiz-adv-x="225" 
d="M150 0h-75v490h75v-490zM37 560h-81l124 135h65l124 -135h-80l-76 84z" />
    <glyph glyph-name="idieresis" unicode="&#xef;" horiz-adv-x="225" 
d="M150 0h-75v490h75v-490zM89 584h-87v92h87v-92zM224 584h-87v92h87v-92z" />
    <glyph glyph-name="eth" unicode="&#xf0;" horiz-adv-x="545" 
d="M366 595q70 -73 104.5 -162t34.5 -188q0 -78 -31 -135.5t-84.5 -88.5t-119.5 -31q-64 0 -118 30.5t-85.5 83t-31.5 116.5t31.5 116.5t85.5 83t118 30.5q40 0 76 -13t63 -36q-12 38 -40 80t-68 80l-131 -66l-35 60l109 55q-47 35 -104 60l60 45q60 -31 111 -71l109 56
l35 -60zM351 81q37 21 58 58t21 81t-21 81t-58 58t-81 21t-81 -21t-58 -58t-21 -81t21 -81t58 -58t81 -21t81 21z" />
    <glyph glyph-name="ntilde" unicode="&#xf1;" horiz-adv-x="575" 
d="M409.5 471.5q45.5 -28.5 70.5 -77.5t25 -109v-285h-75v285q0 65 -36 105t-99 40q-40 0 -73 -18.5t-52.5 -51.5t-19.5 -75v-285h-75v490h75v-65q30 37 69.5 56t85.5 19q59 0 104.5 -28.5zM137 590q0 43 22 69t61 26q21 0 40.5 -9t43.5 -25q13 -8 25 -14.5t21 -6.5
q17 0 24.5 11.5t7.5 34.5v9h60v-20q0 -43 -22 -69t-61 -26q-21 0 -40.5 9t-43.5 25q-13 8 -25 14.5t-21 6.5q-17 0 -24.5 -11.5t-7.5 -34.5v-9h-60v20z" />
    <glyph glyph-name="ograve" unicode="&#xf2;" horiz-adv-x="592" 
d="M167.5 23.5q-58.5 33.5 -93 92t-34.5 129.5t34.5 129.5t93 92t128.5 33.5t128.5 -33.5t93 -92t34.5 -129.5t-34.5 -129.5t-93 -92t-128.5 -33.5t-128.5 33.5zM385.5 84.5q40.5 24.5 64.5 66.5t24 94t-24 94t-64.5 66.5t-89.5 24.5t-89.5 -24.5t-64.5 -66.5t-24 -94
t24 -94t64.5 -66.5t89.5 -24.5t89.5 24.5zM337 560h-76l-100 140h86z" />
    <glyph glyph-name="oacute" unicode="&#xf3;" horiz-adv-x="592" 
d="M167.5 23.5q-58.5 33.5 -93 92t-34.5 129.5t34.5 129.5t93 92t128.5 33.5t128.5 -33.5t93 -92t34.5 -129.5t-34.5 -129.5t-93 -92t-128.5 -33.5t-128.5 33.5zM385.5 84.5q40.5 24.5 64.5 66.5t24 94t-24 94t-64.5 66.5t-89.5 24.5t-89.5 -24.5t-64.5 -66.5t-24 -94
t24 -94t64.5 -66.5t89.5 -24.5t89.5 24.5zM319 560h-73l90 140h83z" />
    <glyph glyph-name="ocircumflex" unicode="&#xf4;" horiz-adv-x="592" 
d="M167.5 23.5q-58.5 33.5 -93 92t-34.5 129.5t34.5 129.5t93 92t128.5 33.5t128.5 -33.5t93 -92t34.5 -129.5t-34.5 -129.5t-93 -92t-128.5 -33.5t-128.5 33.5zM385.5 84.5q40.5 24.5 64.5 66.5t24 94t-24 94t-64.5 66.5t-89.5 24.5t-89.5 -24.5t-64.5 -66.5t-24 -94
t24 -94t64.5 -66.5t89.5 -24.5t89.5 24.5zM220 560h-81l124 135h65l124 -135h-80l-76 84z" />
    <glyph glyph-name="otilde" unicode="&#xf5;" horiz-adv-x="592" 
d="M167.5 23.5q-58.5 33.5 -93 92t-34.5 129.5t34.5 129.5t93 92t128.5 33.5t128.5 -33.5t93 -92t34.5 -129.5t-34.5 -129.5t-93 -92t-128.5 -33.5t-128.5 33.5zM385.5 84.5q40.5 24.5 64.5 66.5t24 94t-24 94t-64.5 66.5t-89.5 24.5t-89.5 -24.5t-64.5 -66.5t-24 -94
t24 -94t64.5 -66.5t89.5 -24.5t89.5 24.5zM143 590q0 43 22 69t61 26q21 0 40.5 -9t43.5 -25q13 -8 25 -14.5t21 -6.5q17 0 24.5 11.5t7.5 34.5v9h60v-20q0 -43 -22 -69t-61 -26q-21 0 -40.5 9t-43.5 25q-13 8 -25 14.5t-21 6.5q-17 0 -24.5 -11.5t-7.5 -34.5v-9h-60v20z
" />
    <glyph glyph-name="odieresis" unicode="&#xf6;" horiz-adv-x="592" 
d="M167.5 23.5q-58.5 33.5 -93 92t-34.5 129.5t34.5 129.5t93 92t128.5 33.5t128.5 -33.5t93 -92t34.5 -129.5t-34.5 -129.5t-93 -92t-128.5 -33.5t-128.5 33.5zM385.5 84.5q40.5 24.5 64.5 66.5t24 94t-24 94t-64.5 66.5t-89.5 24.5t-89.5 -24.5t-64.5 -66.5t-24 -94
t24 -94t64.5 -66.5t89.5 -24.5t89.5 24.5zM247 584h-87v92h87v-92zM432 584h-87v92h87v-92z" />
    <glyph glyph-name="divide" unicode="&#xf7;" 
d="M314 463h-88v97h88v-97zM510 304h-480v72h480v-72zM314 121h-88v97h88v-97z" />
    <glyph glyph-name="oslash" unicode="&#xf8;" horiz-adv-x="592" 
d="M478 425q35 -34 54.5 -80.5t19.5 -99.5q0 -71 -34.5 -129.5t-93 -92t-128.5 -33.5q-71 0 -132 36l-28 -36h-80l58 74q-35 35 -54.5 81.5t-19.5 99.5q0 71 34.5 129.5t93 92t128.5 33.5q72 0 133 -36l28 36h80zM129 178.5q11 -31.5 32 -55.5l223 284q-40 23 -88 23
q-49 0 -89.5 -24.5t-64.5 -66.5t-24 -94q0 -35 11 -66.5zM385.5 84.5q40.5 24.5 64.5 66.5t24 94q0 69 -42 121l-223 -283q40 -23 87 -23q49 0 89.5 24.5z" />
    <glyph glyph-name="ugrave" unicode="&#xf9;" horiz-adv-x="566" 
d="M171.5 17.5q-48.5 27.5 -75 76.5t-26.5 111v285h75v-285q0 -64 38 -104.5t100 -40.5t100 40.5t38 104.5v285h75v-285q0 -62 -26.5 -111t-75 -76.5t-111.5 -27.5t-111.5 27.5zM324 560h-76l-100 140h86z" />
    <glyph glyph-name="uacute" unicode="&#xfa;" horiz-adv-x="566" 
d="M171.5 17.5q-48.5 27.5 -75 76.5t-26.5 111v285h75v-285q0 -64 38 -104.5t100 -40.5t100 40.5t38 104.5v285h75v-285q0 -62 -26.5 -111t-75 -76.5t-111.5 -27.5t-111.5 27.5zM306 560h-73l90 140h83z" />
    <glyph glyph-name="ucircumflex" unicode="&#xfb;" horiz-adv-x="566" 
d="M171.5 17.5q-48.5 27.5 -75 76.5t-26.5 111v285h75v-285q0 -64 38 -104.5t100 -40.5t100 40.5t38 104.5v285h75v-285q0 -62 -26.5 -111t-75 -76.5t-111.5 -27.5t-111.5 27.5zM207 560h-81l124 135h65l124 -135h-80l-76 84z" />
    <glyph glyph-name="udieresis" unicode="&#xfc;" horiz-adv-x="566" 
d="M171.5 17.5q-48.5 27.5 -75 76.5t-26.5 111v285h75v-285q0 -64 38 -104.5t100 -40.5t100 40.5t38 104.5v285h75v-285q0 -62 -26.5 -111t-75 -76.5t-111.5 -27.5t-111.5 27.5zM234 584h-87v92h87v-92zM419 584h-87v92h87v-92z" />
    <glyph glyph-name="yacute" unicode="&#xfd;" horiz-adv-x="520" 
d="M267 119l163 371h80l-310 -690h-80l105 235l-215 455h84zM283 560h-73l90 140h83z" />
    <glyph glyph-name="thorn" unicode="&#xfe;" horiz-adv-x="626" 
d="M460 466.5q58 -33.5 92 -92t34 -129.5t-34 -129.5t-92 -92t-125 -33.5q-55 0 -102 23t-78 62v-275h-75v920h75v-305q31 39 78 62t102 23q67 0 125 -33.5zM419 84.5q41 24.5 65 66.5t24 94t-24 94t-65 66.5t-90 24.5t-90 -24.5t-65 -66.5t-24 -94t24 -94t65 -66.5
t90 -24.5t90 24.5z" />
    <glyph glyph-name="ydieresis" unicode="&#xff;" horiz-adv-x="520" 
d="M267 119l163 371h80l-310 -690h-80l105 235l-215 455h84zM211 584h-87v92h87v-92zM396 584h-87v92h87v-92z" />
    <glyph glyph-name="Amacron" unicode="&#x100;" horiz-adv-x="670" 
d="M650 0h-86l-75 190h-310l-75 -190h-84l285 700h60zM459 265l-125 316l-125 -316h250zM477 799h-284v66h284v-66z" />
    <glyph glyph-name="amacron" unicode="&#x101;" horiz-adv-x="621" 
d="M471 490h75v-490h-75v75q-31 -39 -78 -62t-102 -23q-67 0 -125 33.5t-92 92t-34 129.5t34 129.5t92 92t125 33.5q55 0 102 -23t78 -62v75zM387 84.5q41 24.5 65 66.5t24 94t-24 94t-65 66.5t-90 24.5t-90 -24.5t-65 -66.5t-24 -94t24 -94t65 -66.5t90 -24.5t90 24.5z
M453 594h-284v66h284v-66z" />
    <glyph glyph-name="Abreve" unicode="&#x102;" horiz-adv-x="670" 
d="M650 0h-86l-75 190h-310l-75 -190h-84l285 700h60zM459 265l-125 316l-125 -316h250zM226 795.5q-42 38.5 -46 99.5h68q4 -37 27 -56t60 -19t60 19t27 56h68q-4 -61 -46 -99.5t-109 -38.5t-109 38.5z" />
    <glyph glyph-name="abreve" unicode="&#x103;" horiz-adv-x="621" 
d="M471 490h75v-490h-75v75q-31 -39 -78 -62t-102 -23q-67 0 -125 33.5t-92 92t-34 129.5t34 129.5t92 92t125 33.5q55 0 102 -23t78 -62v75zM387 84.5q41 24.5 65 66.5t24 94t-24 94t-65 66.5t-90 24.5t-90 -24.5t-65 -66.5t-24 -94t24 -94t65 -66.5t90 -24.5t90 24.5z
M202 590.5q-42 38.5 -46 99.5h68q4 -37 27 -56t60 -19t60 19t27 56h68q-4 -61 -46 -99.5t-109 -38.5t-109 38.5z" />
    <glyph glyph-name="Aogonek" unicode="&#x104;" horiz-adv-x="670" 
d="M583.5 -127q16.5 -14 50.5 -14h16v-59h-31q-49 0 -81.5 27.5t-32.5 76.5q0 61 59 97l-75 189h-310l-75 -190h-84l285 700h60l285 -700q-38 -11 -60.5 -34.5t-22.5 -53.5q0 -25 16.5 -39zM459 265l-125 316l-125 -316h250z" />
    <glyph glyph-name="aogonek" unicode="&#x105;" horiz-adv-x="621" 
d="M546 0q-38 -11 -60.5 -34.5t-22.5 -53.5q0 -25 16.5 -39t50.5 -14h16v-59h-31q-49 0 -81.5 27.5t-32.5 76.5q0 65 70 104v67q-31 -39 -78 -62t-102 -23q-67 0 -125 33.5t-92 92t-34 129.5t34 129.5t92 92t125 33.5q55 0 102 -23t78 -62v75h75v-490zM387 84.5
q41 24.5 65 66.5t24 94t-24 94t-65 66.5t-90 24.5t-90 -24.5t-65 -66.5t-24 -94t24 -94t65 -66.5t90 -24.5t90 24.5z" />
    <glyph glyph-name="Cacute" unicode="&#x106;" horiz-adv-x="776" 
d="M232 38q-82 48 -129.5 131t-47.5 181t47.5 181t129.5 131t179 48q111 0 195 -60.5t126 -164.5h-85q-35 69 -96.5 109.5t-139.5 40.5q-74 0 -137 -38t-99.5 -103t-36.5 -144t36.5 -144t99.5 -103t137 -38q81 0 143 40.5t97 109.5h85q-42 -104 -126.5 -164.5t-198.5 -60.5
q-97 0 -179 48zM432 765h-73l90 140h83z" />
    <glyph glyph-name="cacute" unicode="&#x107;" horiz-adv-x="556" 
d="M165.5 23.5q-57.5 33.5 -91.5 92t-34 129.5t34 129.5t91.5 92t125.5 33.5q80 0 144.5 -44t90.5 -121h-80q-22 45 -64 70t-91 25q-47 0 -87 -24.5t-63 -66.5t-23 -94t23 -94t63 -66.5t87 -24.5q49 0 91 25t64 70h80q-26 -77 -90.5 -121t-144.5 -44q-68 0 -125.5 33.5z
M319 560h-73l90 140h83z" />
    <glyph glyph-name="Ccircumflex" unicode="&#x108;" horiz-adv-x="776" 
d="M232 38q-82 48 -129.5 131t-47.5 181t47.5 181t129.5 131t179 48q111 0 195 -60.5t126 -164.5h-85q-35 69 -96.5 109.5t-139.5 40.5q-74 0 -137 -38t-99.5 -103t-36.5 -144t36.5 -144t99.5 -103t137 -38q81 0 143 40.5t97 109.5h85q-42 -104 -126.5 -164.5t-198.5 -60.5
q-97 0 -179 48zM333 765h-81l124 135h65l124 -135h-80l-76 84z" />
    <glyph glyph-name="ccircumflex" unicode="&#x109;" horiz-adv-x="556" 
d="M165.5 23.5q-57.5 33.5 -91.5 92t-34 129.5t34 129.5t91.5 92t125.5 33.5q80 0 144.5 -44t90.5 -121h-80q-22 45 -64 70t-91 25q-47 0 -87 -24.5t-63 -66.5t-23 -94t23 -94t63 -66.5t87 -24.5q49 0 91 25t64 70h80q-26 -77 -90.5 -121t-144.5 -44q-68 0 -125.5 33.5z
M220 560h-81l124 135h65l124 -135h-80l-76 84z" />
    <glyph glyph-name="Cdotaccent" unicode="&#x10a;" horiz-adv-x="776" 
d="M232 38q-82 48 -129.5 131t-47.5 181t47.5 181t129.5 131t179 48q111 0 195 -60.5t126 -164.5h-85q-35 69 -96.5 109.5t-139.5 40.5q-74 0 -137 -38t-99.5 -103t-36.5 -144t36.5 -144t99.5 -103t137 -38q81 0 143 40.5t97 109.5h85q-42 -104 -126.5 -164.5t-198.5 -60.5
q-97 0 -179 48zM452 789h-87v92h87v-92z" />
    <glyph glyph-name="cdotaccent" unicode="&#x10b;" horiz-adv-x="556" 
d="M165.5 23.5q-57.5 33.5 -91.5 92t-34 129.5t34 129.5t91.5 92t125.5 33.5q80 0 144.5 -44t90.5 -121h-80q-22 45 -64 70t-91 25q-47 0 -87 -24.5t-63 -66.5t-23 -94t23 -94t63 -66.5t87 -24.5q49 0 91 25t64 70h80q-26 -77 -90.5 -121t-144.5 -44q-68 0 -125.5 33.5z
M339 584h-87v92h87v-92z" />
    <glyph glyph-name="Ccaron" unicode="&#x10c;" horiz-adv-x="776" 
d="M232 38q-82 48 -129.5 131t-47.5 181t47.5 181t129.5 131t179 48q111 0 195 -60.5t126 -164.5h-85q-35 69 -96.5 109.5t-139.5 40.5q-74 0 -137 -38t-99.5 -103t-36.5 -144t36.5 -144t99.5 -103t137 -38q81 0 143 40.5t97 109.5h85q-42 -104 -126.5 -164.5t-198.5 -60.5
q-97 0 -179 48zM441 765h-65l-124 135h80l76 -84l76 84h81z" />
    <glyph glyph-name="ccaron" unicode="&#x10d;" horiz-adv-x="556" 
d="M165.5 23.5q-57.5 33.5 -91.5 92t-34 129.5t34 129.5t91.5 92t125.5 33.5q80 0 144.5 -44t90.5 -121h-80q-22 45 -64 70t-91 25q-47 0 -87 -24.5t-63 -66.5t-23 -94t23 -94t63 -66.5t87 -24.5q49 0 91 25t64 70h80q-26 -77 -90.5 -121t-144.5 -44q-68 0 -125.5 33.5z
M328 560h-65l-124 135h80l76 -84l76 84h81z" />
    <glyph glyph-name="Dcaron" unicode="&#x10e;" horiz-adv-x="721" 
d="M95 0v700h185q117 0 204 -43.5t134.5 -123t47.5 -183.5t-47.5 -183.5t-134.5 -123t-204 -43.5h-185zM280 75q93 0 161.5 34t105 96.5t36.5 144.5t-36.5 144.5t-105 96.5t-161.5 34h-105v-550h105zM393 765h-65l-124 135h80l76 -84l76 84h81z" />
    <glyph glyph-name="dcaron" unicode="&#x10f;" horiz-adv-x="626" 
d="M471 720h75v-720h-75v75q-31 -39 -78 -62t-102 -23q-67 0 -125 33.5t-92 92t-34 129.5t34 129.5t92 92t125 33.5q55 0 102 -23t78 -62v305zM387 84.5q41 24.5 65 66.5t24 94t-24 94t-65 66.5t-90 24.5t-90 -24.5t-65 -66.5t-24 -94t24 -94t65 -66.5t90 -24.5t90 24.5z
M668 560h-61l20 160h74z" />
    <glyph glyph-name="Dcroat" unicode="&#x110;" horiz-adv-x="731" 
d="M290 700q117 0 204 -43.5t134.5 -123t47.5 -183.5t-47.5 -183.5t-134.5 -123t-204 -43.5h-185v317h-90v70h90v313h185zM290 75q93 0 161.5 34t105 96.5t36.5 144.5t-36.5 144.5t-105 96.5t-161.5 34h-105v-238h215v-70h-215v-242h105z" />
    <glyph glyph-name="dcroat" unicode="&#x111;" horiz-adv-x="606" 
d="M601 626v-65h-75v-561h-75v67q-27 -34 -72.5 -55.5t-97.5 -21.5q-65 0 -120 30t-88 85t-33 125t33 125t88 85t120 30q52 0 97.5 -21.5t72.5 -55.5v168h-165v65h165v94h75v-94h75zM372.5 81.5q38.5 21.5 61 60.5t22.5 88t-22.5 88t-61 60.5t-85.5 21.5t-85.5 -21.5
t-61 -60.5t-22.5 -88t22.5 -88t61 -60.5t85.5 -21.5t85.5 21.5z" />
    <glyph glyph-name="Emacron" unicode="&#x112;" 
d="M175 325v-250h300v-75h-380v700h370v-75h-290v-225h280v-75h-280zM425 799h-284v66h284v-66z" />
    <glyph glyph-name="emacron" unicode="&#x113;" horiz-adv-x="563" 
d="M408.5 469.5q55.5 -30.5 87.5 -86t32 -126.5q0 -24 -2 -37h-407q7 -73 51.5 -116.5t115.5 -43.5q104 0 150 85h80q-30 -75 -89 -115t-141 -40q-69 0 -125.5 33.5t-88.5 91.5t-32 130t32 130t88.5 91.5t125.5 33.5q67 0 122.5 -30.5zM176.5 392q-43.5 -38 -54.5 -104h327
q-7 64 -52.5 103t-110.5 39q-66 0 -109.5 -38zM427 594h-284v66h284v-66z" />
    <glyph glyph-name="Ebreve" unicode="&#x114;" 
d="M175 325v-250h300v-75h-380v700h370v-75h-290v-225h280v-75h-280zM174 795.5q-42 38.5 -46 99.5h68q4 -37 27 -56t60 -19t60 19t27 56h68q-4 -61 -46 -99.5t-109 -38.5t-109 38.5z" />
    <glyph glyph-name="ebreve" unicode="&#x115;" horiz-adv-x="563" 
d="M408.5 469.5q55.5 -30.5 87.5 -86t32 -126.5q0 -24 -2 -37h-407q7 -73 51.5 -116.5t115.5 -43.5q104 0 150 85h80q-30 -75 -89 -115t-141 -40q-69 0 -125.5 33.5t-88.5 91.5t-32 130t32 130t88.5 91.5t125.5 33.5q67 0 122.5 -30.5zM176.5 392q-43.5 -38 -54.5 -104h327
q-7 64 -52.5 103t-110.5 39q-66 0 -109.5 -38zM176 590.5q-42 38.5 -46 99.5h68q4 -37 27 -56t60 -19t60 19t27 56h68q-4 -61 -46 -99.5t-109 -38.5t-109 38.5z" />
    <glyph glyph-name="Edotaccent" unicode="&#x116;" 
d="M175 325v-250h300v-75h-380v700h370v-75h-290v-225h280v-75h-280zM326 789h-87v92h87v-92z" />
    <glyph glyph-name="edotaccent" unicode="&#x117;" horiz-adv-x="563" 
d="M408.5 469.5q55.5 -30.5 87.5 -86t32 -126.5q0 -24 -2 -37h-407q7 -73 51.5 -116.5t115.5 -43.5q104 0 150 85h80q-30 -75 -89 -115t-141 -40q-69 0 -125.5 33.5t-88.5 91.5t-32 130t32 130t88.5 91.5t125.5 33.5q67 0 122.5 -30.5zM176.5 392q-43.5 -38 -54.5 -104h327
q-7 64 -52.5 103t-110.5 39q-66 0 -109.5 -38zM328 584h-87v92h87v-92z" />
    <glyph glyph-name="Eogonek" unicode="&#x118;" 
d="M475 0q-38 -11 -60.5 -34.5t-22.5 -53.5q0 -25 16.5 -39t50.5 -14h16v-59h-31q-49 0 -81.5 27.5t-32.5 76.5q0 60 57 96h-292v700h370v-75h-290v-225h280v-75h-280v-250h300v-75z" />
    <glyph glyph-name="eogonek" unicode="&#x119;" horiz-adv-x="563" 
d="M408.5 469.5q55.5 -30.5 87.5 -86t32 -126.5q0 -24 -2 -37h-407q7 -73 51.5 -116.5t115.5 -43.5q104 0 150 85h80q-11 -34 -30 -61t-50 -63q-31 -35 -45.5 -57.5t-14.5 -47.5q0 -57 67 -57h21v-59h-25q-54 0 -89.5 29t-35.5 82q0 50 38 86q-28 -7 -66 -7
q-69 0 -125.5 33.5t-88.5 91.5t-32 130t32 130t88.5 91.5t125.5 33.5q67 0 122.5 -30.5zM176.5 392q-43.5 -38 -54.5 -104h327q-7 64 -52.5 103t-110.5 39q-66 0 -109.5 -38z" />
    <glyph glyph-name="Ecaron" unicode="&#x11a;" 
d="M175 325v-250h300v-75h-380v700h370v-75h-290v-225h280v-75h-280zM315 765h-65l-124 135h80l76 -84l76 84h81z" />
    <glyph glyph-name="ecaron" unicode="&#x11b;" horiz-adv-x="563" 
d="M408.5 469.5q55.5 -30.5 87.5 -86t32 -126.5q0 -24 -2 -37h-407q7 -73 51.5 -116.5t115.5 -43.5q104 0 150 85h80q-30 -75 -89 -115t-141 -40q-69 0 -125.5 33.5t-88.5 91.5t-32 130t32 130t88.5 91.5t125.5 33.5q67 0 122.5 -30.5zM176.5 392q-43.5 -38 -54.5 -104h327
q-7 64 -52.5 103t-110.5 39q-66 0 -109.5 -38zM317 560h-65l-124 135h80l76 -84l76 84h81z" />
    <glyph glyph-name="Gcircumflex" unicode="&#x11c;" horiz-adv-x="801" 
d="M391 370h370v-30q0 -95 -44 -175t-122.5 -127.5t-178.5 -47.5q-99 0 -182 48t-131 131t-48 181t48 181t131 131t182 48q114 0 201 -61t129 -164h-85q-34 69 -99 109.5t-146 40.5q-76 0 -139.5 -38t-101 -103t-37.5 -144t37.5 -144t101 -103t139.5 -38q69 0 125.5 28.5
t92 80.5t42.5 121h-285v75zM340 765h-81l124 135h65l124 -135h-80l-76 84z" />
    <glyph glyph-name="gcircumflex" unicode="&#x11d;" horiz-adv-x="611" 
d="M461 490h75v-460q0 -69 -31 -124t-86.5 -85.5t-127.5 -30.5q-86 0 -149 45.5t-86 124.5h75q18 -46 60.5 -73t99.5 -27q78 0 124 47t46 123v64q-32 -39 -76.5 -61.5t-98.5 -22.5q-68 0 -124 31t-89 87t-33 127t33 127t89 87t124 31q54 0 98.5 -22.5t76.5 -61.5v74z
M381 103q40 23 62.5 63t22.5 89t-22.5 89t-62.5 63t-89 23t-89 -23t-62.5 -63t-22.5 -89t22.5 -89t62.5 -63t89 -23t89 23zM230 560h-81l124 135h65l124 -135h-80l-76 84z" />
    <glyph glyph-name="Gbreve" unicode="&#x11e;" horiz-adv-x="801" 
d="M391 370h370v-30q0 -95 -44 -175t-122.5 -127.5t-178.5 -47.5q-99 0 -182 48t-131 131t-48 181t48 181t131 131t182 48q114 0 201 -61t129 -164h-85q-34 69 -99 109.5t-146 40.5q-76 0 -139.5 -38t-101 -103t-37.5 -144t37.5 -144t101 -103t139.5 -38q69 0 125.5 28.5
t92 80.5t42.5 121h-285v75zM307 795.5q-42 38.5 -46 99.5h68q4 -37 27 -56t60 -19t60 19t27 56h68q-4 -61 -46 -99.5t-109 -38.5t-109 38.5z" />
    <glyph glyph-name="gbreve" unicode="&#x11f;" horiz-adv-x="611" 
d="M461 490h75v-460q0 -69 -31 -124t-86.5 -85.5t-127.5 -30.5q-86 0 -149 45.5t-86 124.5h75q18 -46 60.5 -73t99.5 -27q78 0 124 47t46 123v64q-32 -39 -76.5 -61.5t-98.5 -22.5q-68 0 -124 31t-89 87t-33 127t33 127t89 87t124 31q54 0 98.5 -22.5t76.5 -61.5v74z
M381 103q40 23 62.5 63t22.5 89t-22.5 89t-62.5 63t-89 23t-89 -23t-62.5 -63t-22.5 -89t22.5 -89t62.5 -63t89 -23t89 23zM197 590.5q-42 38.5 -46 99.5h68q4 -37 27 -56t60 -19t60 19t27 56h68q-4 -61 -46 -99.5t-109 -38.5t-109 38.5z" />
    <glyph glyph-name="Gdotaccent" unicode="&#x120;" horiz-adv-x="801" 
d="M391 370h370v-30q0 -95 -44 -175t-122.5 -127.5t-178.5 -47.5q-99 0 -182 48t-131 131t-48 181t48 181t131 131t182 48q114 0 201 -61t129 -164h-85q-34 69 -99 109.5t-146 40.5q-76 0 -139.5 -38t-101 -103t-37.5 -144t37.5 -144t101 -103t139.5 -38q69 0 125.5 28.5
t92 80.5t42.5 121h-285v75zM459 789h-87v92h87v-92z" />
    <glyph glyph-name="gdotaccent" unicode="&#x121;" horiz-adv-x="611" 
d="M461 490h75v-460q0 -69 -31 -124t-86.5 -85.5t-127.5 -30.5q-86 0 -149 45.5t-86 124.5h75q18 -46 60.5 -73t99.5 -27q78 0 124 47t46 123v64q-32 -39 -76.5 -61.5t-98.5 -22.5q-68 0 -124 31t-89 87t-33 127t33 127t89 87t124 31q54 0 98.5 -22.5t76.5 -61.5v74z
M381 103q40 23 62.5 63t22.5 89t-22.5 89t-62.5 63t-89 23t-89 -23t-62.5 -63t-22.5 -89t22.5 -89t62.5 -63t89 -23t89 23zM349 584h-87v92h87v-92z" />
    <glyph glyph-name="uni0122" unicode="&#x122;" horiz-adv-x="801" 
d="M391 370h370v-30q0 -95 -44 -175t-122.5 -127.5t-178.5 -47.5q-99 0 -182 48t-131 131t-48 181t48 181t131 131t182 48q114 0 201 -61t129 -164h-85q-34 69 -99 109.5t-146 40.5q-76 0 -139.5 -38t-101 -103t-37.5 -144t37.5 -144t101 -103t139.5 -38q69 0 125.5 28.5
t92 80.5t42.5 121h-285v75zM384 -255h-69l47 170h84z" />
    <glyph glyph-name="uni0123" unicode="&#x123;" horiz-adv-x="611" 
d="M461 490h75v-460q0 -69 -31 -124t-86.5 -85.5t-127.5 -30.5q-86 0 -149 45.5t-86 124.5h75q18 -46 60.5 -73t99.5 -27q78 0 124 47t46 123v64q-32 -39 -76.5 -61.5t-98.5 -22.5q-68 0 -124 31t-89 87t-33 127t33 127t89 87t124 31q54 0 98.5 -22.5t76.5 -61.5v74z
M381 103q40 23 62.5 63t22.5 89t-22.5 89t-62.5 63t-89 23t-89 -23t-62.5 -63t-22.5 -89t22.5 -89t62.5 -63t89 -23t89 23zM346 560h-83l77 170h70z" />
    <glyph glyph-name="Hcircumflex" unicode="&#x124;" horiz-adv-x="720" 
d="M545 400v300h80v-700h-80v325h-370v-325h-80v700h80v-300h370zM284 765h-81l124 135h65l124 -135h-80l-76 84z" />
    <glyph glyph-name="hcircumflex" unicode="&#x125;" horiz-adv-x="580" 
d="M414.5 471.5q45.5 -28.5 70.5 -77.5t25 -109v-285h-75v285q0 65 -36 105t-99 40q-40 0 -73 -18.5t-52.5 -51.5t-19.5 -75v-285h-75v720h75v-295q30 37 69.5 56t85.5 19q59 0 104.5 -28.5zM219 785h-81l124 135h65l124 -135h-80l-76 84z" />
    <glyph glyph-name="Hbar" unicode="&#x126;" horiz-adv-x="740" 
d="M635 585h90v-70h-90v-515h-80v325h-370v-325h-80v515h-90v70h90v115h80v-115h370v115h80v-115zM185 515v-115h370v115h-370z" />
    <glyph glyph-name="hbar" unicode="&#x127;" horiz-adv-x="580" 
d="M414.5 441.5q45.5 -28.5 70.5 -77.5t25 -109v-255h-75v255q0 65 -36 105t-99 40q-40 0 -73 -18.5t-52.5 -51.5t-19.5 -75v-255h-75v561h-75v65h75v94h75v-94h165v-65h-165v-166q30 37 69.5 56t85.5 19q59 0 104.5 -28.5z" />
    <glyph glyph-name="Itilde" unicode="&#x128;" horiz-adv-x="280" 
d="M180 0h-80v700h80v-700zM-13 795q0 43 22 69t61 26q21 0 40.5 -9t43.5 -25q13 -8 25 -14.5t21 -6.5q17 0 24.5 11.5t7.5 34.5v9h60v-20q0 -43 -22 -69t-61 -26q-21 0 -40.5 9t-43.5 25q-13 8 -25 14.5t-21 6.5q-17 0 -24.5 -11.5t-7.5 -34.5v-9h-60v20z" />
    <glyph glyph-name="itilde" unicode="&#x129;" horiz-adv-x="225" 
d="M150 0h-75v490h75v-490zM-40 590q0 43 22 69t61 26q21 0 40.5 -9t43.5 -25q13 -8 25 -14.5t21 -6.5q17 0 24.5 11.5t7.5 34.5v9h60v-20q0 -43 -22 -69t-61 -26q-21 0 -40.5 9t-43.5 25q-13 8 -25 14.5t-21 6.5q-17 0 -24.5 -11.5t-7.5 -34.5v-9h-60v20z" />
    <glyph glyph-name="Imacron" unicode="&#x12a;" horiz-adv-x="280" 
d="M180 0h-80v700h80v-700zM282 799h-284v66h284v-66z" />
    <glyph glyph-name="imacron" unicode="&#x12b;" horiz-adv-x="225" 
d="M150 0h-75v490h75v-490zM255 594h-284v66h284v-66z" />
    <glyph glyph-name="Ibreve" unicode="&#x12c;" horiz-adv-x="280" 
d="M180 0h-80v700h80v-700zM31 795.5q-42 38.5 -46 99.5h68q4 -37 27 -56t60 -19t60 19t27 56h68q-4 -61 -46 -99.5t-109 -38.5t-109 38.5z" />
    <glyph glyph-name="ibreve" unicode="&#x12d;" horiz-adv-x="225" 
d="M150 0h-75v490h75v-490zM4 590.5q-42 38.5 -46 99.5h68q4 -37 27 -56t60 -19t60 19t27 56h68q-4 -61 -46 -99.5t-109 -38.5t-109 38.5z" />
    <glyph glyph-name="Iogonek" unicode="&#x12e;" horiz-adv-x="280" 
d="M180 0q-38 -11 -60.5 -34.5t-22.5 -53.5q0 -25 16.5 -39t50.5 -14h16v-59h-31q-49 0 -81.5 27.5t-32.5 76.5q0 64 65 101v695h80v-700z" />
    <glyph glyph-name="iogonek" unicode="&#x12f;" horiz-adv-x="225" 
d="M69 584v92h87v-92h-87zM75 490h75v-490q-38 -11 -60.5 -34.5t-22.5 -53.5q0 -25 16.5 -39t50.5 -14h16v-59h-31q-49 0 -81.5 27.5t-32.5 76.5q0 65 70 104v482z" />
    <glyph glyph-name="Idotaccent" unicode="&#x130;" horiz-adv-x="280" 
d="M180 0h-80v700h80v-700zM183 789h-87v92h87v-92z" />
    <glyph glyph-name="dotlessi" unicode="&#x131;" horiz-adv-x="225" 
d="M150 0h-75v490h75v-490z" />
    <glyph glyph-name="IJ" unicode="&#x132;" horiz-adv-x="790" 
d="M180 0h-80v700h80v-700zM388 17.5q-48 27.5 -75.5 75.5t-27.5 107h80q0 -60 37 -97.5t94 -37.5q58 0 93.5 39t35.5 106v490h80v-490q0 -64 -27 -114t-74.5 -78t-107.5 -28t-108 27.5z" />
    <glyph glyph-name="ij" unicode="&#x133;" horiz-adv-x="450" 
d="M150 0h-75v490h75v-490zM156 584h-87v92h87v-92zM175 -200v70h45q38 0 59 21t21 59v540h75v-545q0 -64 -41.5 -104.5t-108.5 -40.5h-50zM381 584h-87v92h87v-92z" />
    <glyph glyph-name="Jcircumflex" unicode="&#x134;" horiz-adv-x="510" 
d="M108 17.5q-48 27.5 -75.5 75.5t-27.5 107h80q0 -60 37 -97.5t94 -37.5q58 0 93.5 39t35.5 106v490h80v-490q0 -64 -27 -114t-74.5 -78t-107.5 -28t-108 27.5zM309 765h-81l124 135h65l124 -135h-80l-76 84z" />
    <glyph glyph-name="jcircumflex" unicode="&#x135;" horiz-adv-x="225" 
d="M-50 -200v70h45q38 0 59 21t21 59v540h75v-545q0 -64 -41.5 -104.5t-108.5 -40.5h-50zM37 560h-81l124 135h65l124 -135h-80l-76 84z" />
    <glyph glyph-name="uni0136" unicode="&#x136;" horiz-adv-x="595" 
d="M260 361l330 -361h-106l-309 339v-339h-80v700h80v-325l294 325h98zM296 -255h-69l47 170h84z" />
    <glyph glyph-name="uni0137" unicode="&#x137;" horiz-adv-x="489" 
d="M235 253l249 -253h-102l-227 234v-234h-75v720h75v-453l216 223h96zM243 -255h-69l47 170h84z" />
    <glyph glyph-name="Lacute" unicode="&#x139;" horiz-adv-x="480" 
d="M445 0h-350v700h80v-625h270v-75zM158 765h-73l90 140h83z" />
    <glyph glyph-name="lacute" unicode="&#x13a;" horiz-adv-x="235" 
d="M155 0h-75v720h75v-720zM142 785h-73l90 140h83z" />
    <glyph glyph-name="uni013B" unicode="&#x13b;" horiz-adv-x="480" 
d="M445 0h-350v700h80v-625h270v-75zM248 -255h-69l47 170h84z" />
    <glyph glyph-name="uni013C" unicode="&#x13c;" horiz-adv-x="235" 
d="M155 0h-75v720h75v-720zM96 -255h-69l47 170h84z" />
    <glyph glyph-name="Lcaron" unicode="&#x13d;" horiz-adv-x="480" 
d="M445 0h-350v700h80v-625h270v-75zM297 540h-61l20 160h74z" />
    <glyph glyph-name="lcaron" unicode="&#x13e;" horiz-adv-x="235" 
d="M155 0h-75v720h75v-720zM277 560h-61l20 160h74z" />
    <glyph glyph-name="Ldot" unicode="&#x13f;" horiz-adv-x="480" 
d="M445 0h-350v700h80v-625h270v-75zM420 336h-89v97h89v-97z" />
    <glyph glyph-name="ldot" unicode="&#x140;" horiz-adv-x="274" 
d="M155 0h-75v720h75v-720zM299 321h-89v97h89v-97z" />
    <glyph glyph-name="Lslash" unicode="&#x141;" horiz-adv-x="490" 
d="M185 323v-248h270v-75h-350v289l-95 -40v78l95 40v333h80v-299l201 86v-78z" />
    <glyph glyph-name="lslash" unicode="&#x142;" horiz-adv-x="275" 
d="M175 424l100 52v-79l-100 -52v-345h-75v307l-100 -52v79l100 52v334h75v-296z" />
    <glyph glyph-name="Nacute" unicode="&#x143;" horiz-adv-x="790" 
d="M617 148v552h78v-700h-50l-472 552v-552h-78v700h50zM418 765h-73l90 140h83z" />
    <glyph glyph-name="nacute" unicode="&#x144;" horiz-adv-x="575" 
d="M409.5 471.5q45.5 -28.5 70.5 -77.5t25 -109v-285h-75v285q0 65 -36 105t-99 40q-40 0 -73 -18.5t-52.5 -51.5t-19.5 -75v-285h-75v490h75v-65q30 37 69.5 56t85.5 19q59 0 104.5 -28.5zM313 560h-73l90 140h83z" />
    <glyph glyph-name="uni0145" unicode="&#x145;" horiz-adv-x="790" 
d="M617 148v552h78v-700h-50l-472 552v-552h-78v700h50zM373 -255h-69l47 170h84z" />
    <glyph glyph-name="uni0146" unicode="&#x146;" horiz-adv-x="575" 
d="M409.5 471.5q45.5 -28.5 70.5 -77.5t25 -109v-285h-75v285q0 65 -36 105t-99 40q-40 0 -73 -18.5t-52.5 -51.5t-19.5 -75v-285h-75v490h75v-65q30 37 69.5 56t85.5 19q59 0 104.5 -28.5zM268 -255h-69l47 170h84z" />
    <glyph glyph-name="Ncaron" unicode="&#x147;" horiz-adv-x="790" 
d="M617 148v552h78v-700h-50l-472 552v-552h-78v700h50zM427 765h-65l-124 135h80l76 -84l76 84h81z" />
    <glyph glyph-name="ncaron" unicode="&#x148;" horiz-adv-x="575" 
d="M409.5 471.5q45.5 -28.5 70.5 -77.5t25 -109v-285h-75v285q0 65 -36 105t-99 40q-40 0 -73 -18.5t-52.5 -51.5t-19.5 -75v-285h-75v490h75v-65q30 37 69.5 56t85.5 19q59 0 104.5 -28.5zM322 560h-65l-124 135h80l76 -84l76 84h81z" />
    <glyph glyph-name="Eng" unicode="&#x14a;" horiz-adv-x="790" 
d="M617 700h78v-755q0 -64 -41.5 -104.5t-108.5 -40.5h-50v70h42q38 0 59 21t21 59v83l-444 519v-552h-78v700h50l472 -552v552z" />
    <glyph glyph-name="eng" unicode="&#x14b;" horiz-adv-x="575" 
d="M409.5 471.5q45.5 -28.5 70.5 -77.5t25 -109v-340q0 -64 -41.5 -104.5t-108.5 -40.5h-50v70h45q38 0 59 21t21 59v335q0 65 -36 105t-99 40q-40 0 -73 -18.5t-52.5 -51.5t-19.5 -75v-285h-75v490h75v-65q30 37 69.5 56t85.5 19q59 0 104.5 -28.5z" />
    <glyph glyph-name="Omacron" unicode="&#x14c;" horiz-adv-x="832" 
d="M234 38q-83 48 -131 131t-48 181t48 181t131 131t182 48t182 -48t131 -131t48 -181t-48 -181t-131 -131t-182 -48t-182 48zM555.5 103q63.5 38 101 103t37.5 144t-37.5 144t-101 103t-139.5 38t-139.5 -38t-101 -103t-37.5 -144t37.5 -144t101 -103t139.5 -38t139.5 38z
M558 799h-284v66h284v-66z" />
    <glyph glyph-name="omacron" unicode="&#x14d;" horiz-adv-x="592" 
d="M167.5 23.5q-58.5 33.5 -93 92t-34.5 129.5t34.5 129.5t93 92t128.5 33.5t128.5 -33.5t93 -92t34.5 -129.5t-34.5 -129.5t-93 -92t-128.5 -33.5t-128.5 33.5zM385.5 84.5q40.5 24.5 64.5 66.5t24 94t-24 94t-64.5 66.5t-89.5 24.5t-89.5 -24.5t-64.5 -66.5t-24 -94
t24 -94t64.5 -66.5t89.5 -24.5t89.5 24.5zM438 594h-284v66h284v-66z" />
    <glyph glyph-name="Obreve" unicode="&#x14e;" horiz-adv-x="832" 
d="M234 38q-83 48 -131 131t-48 181t48 181t131 131t182 48t182 -48t131 -131t48 -181t-48 -181t-131 -131t-182 -48t-182 48zM555.5 103q63.5 38 101 103t37.5 144t-37.5 144t-101 103t-139.5 38t-139.5 -38t-101 -103t-37.5 -144t37.5 -144t101 -103t139.5 -38t139.5 38z
M307 795.5q-42 38.5 -46 99.5h68q4 -37 27 -56t60 -19t60 19t27 56h68q-4 -61 -46 -99.5t-109 -38.5t-109 38.5z" />
    <glyph glyph-name="obreve" unicode="&#x14f;" horiz-adv-x="592" 
d="M167.5 23.5q-58.5 33.5 -93 92t-34.5 129.5t34.5 129.5t93 92t128.5 33.5t128.5 -33.5t93 -92t34.5 -129.5t-34.5 -129.5t-93 -92t-128.5 -33.5t-128.5 33.5zM385.5 84.5q40.5 24.5 64.5 66.5t24 94t-24 94t-64.5 66.5t-89.5 24.5t-89.5 -24.5t-64.5 -66.5t-24 -94
t24 -94t64.5 -66.5t89.5 -24.5t89.5 24.5zM187 590.5q-42 38.5 -46 99.5h68q4 -37 27 -56t60 -19t60 19t27 56h68q-4 -61 -46 -99.5t-109 -38.5t-109 38.5z" />
    <glyph glyph-name="Ohungarumlaut" unicode="&#x150;" horiz-adv-x="832" 
d="M234 38q-83 48 -131 131t-48 181t48 181t131 131t182 48t182 -48t131 -131t48 -181t-48 -181t-131 -131t-182 -48t-182 48zM555.5 103q63.5 38 101 103t37.5 144t-37.5 144t-101 103t-139.5 38t-139.5 -38t-101 -103t-37.5 -144t37.5 -144t101 -103t139.5 -38t139.5 38z
M378 765h-74l90 140h84zM514 765h-73l94 140h83z" />
    <glyph glyph-name="ohungarumlaut" unicode="&#x151;" horiz-adv-x="592" 
d="M167.5 23.5q-58.5 33.5 -93 92t-34.5 129.5t34.5 129.5t93 92t128.5 33.5t128.5 -33.5t93 -92t34.5 -129.5t-34.5 -129.5t-93 -92t-128.5 -33.5t-128.5 33.5zM385.5 84.5q40.5 24.5 64.5 66.5t24 94t-24 94t-64.5 66.5t-89.5 24.5t-89.5 -24.5t-64.5 -66.5t-24 -94
t24 -94t64.5 -66.5t89.5 -24.5t89.5 24.5zM255 560h-74l90 140h84zM391 560h-73l94 140h83z" />
    <glyph glyph-name="OE" unicode="&#x152;" horiz-adv-x="1105" 
d="M740 75h300v-75h-380v117q-102 -127 -262 -127q-94 0 -172.5 48t-124.5 131t-46 181t46 181t124.5 131t172.5 48q160 0 262 -127v117h370v-75h-290v-225h280v-75h-280v-250zM530 103q60 38 95 103t35 144t-35 144t-95 103t-131 38t-131 -38t-95 -103t-35 -144t35 -144
t95 -103t131 -38t131 38z" />
    <glyph glyph-name="oe" unicode="&#x153;" horiz-adv-x="967" 
d="M813.5 469q54.5 -31 86.5 -86t32 -126q0 -24 -2 -37h-397q7 -73 51 -116.5t111 -43.5q49 0 85.5 22t59.5 63h80q-30 -75 -88 -115t-137 -40q-65 0 -118 30.5t-84 86.5q-32 -56 -86.5 -86.5t-120.5 -30.5q-65 0 -121.5 32.5t-90.5 91t-34 131.5t34 131.5t90.5 91
t121.5 32.5q66 0 120.5 -31t86.5 -88q30 55 84 87t118 32t118.5 -31zM369.5 83.5q38.5 23.5 61.5 66t23 95.5t-23 95.5t-61.5 66t-83.5 23.5t-83.5 -23.5t-61.5 -66t-23 -95.5t23 -95.5t61.5 -66t83.5 -23.5t83.5 23.5zM589.5 392q-42.5 -38 -53.5 -104h317q-7 63 -52 102.5
t-106 39.5q-63 0 -105.5 -38z" />
    <glyph glyph-name="Racute" unicode="&#x154;" horiz-adv-x="610" 
d="M505 0l-248 300h-82v-300h-80v700h205q67 0 118.5 -26t80 -71.5t28.5 -102.5q0 -75 -47.5 -128.5t-127.5 -67.5l253 -304h-100zM175 625v-250h125q66 0 105 34t39 91t-39 91t-105 34h-125zM323 765h-73l90 140h83z" />
    <glyph glyph-name="racute" unicode="&#x155;" horiz-adv-x="355" 
d="M345 495v-70h-50q-40 0 -73 -18.5t-52.5 -51.5t-19.5 -75v-280h-75v490h75v-70q30 37 69.5 56t85.5 19h40zM241 560h-73l90 140h83z" />
    <glyph glyph-name="uni0156" unicode="&#x156;" horiz-adv-x="610" 
d="M505 0l-248 300h-82v-300h-80v700h205q67 0 118.5 -26t80 -71.5t28.5 -102.5q0 -75 -47.5 -128.5t-127.5 -67.5l253 -304h-100zM175 625v-250h125q66 0 105 34t39 91t-39 91t-105 34h-125zM303 -255h-69l47 170h84z" />
    <glyph glyph-name="uni0157" unicode="&#x157;" horiz-adv-x="355" 
d="M345 495v-70h-50q-40 0 -73 -18.5t-52.5 -51.5t-19.5 -75v-280h-75v490h75v-70q30 37 69.5 56t85.5 19h40zM90 -255h-69l47 170h84z" />
    <glyph glyph-name="Rcaron" unicode="&#x158;" horiz-adv-x="610" 
d="M505 0l-248 300h-82v-300h-80v700h205q67 0 118.5 -26t80 -71.5t28.5 -102.5q0 -75 -47.5 -128.5t-127.5 -67.5l253 -304h-100zM175 625v-250h125q66 0 105 34t39 91t-39 91t-105 34h-125zM332 765h-65l-124 135h80l76 -84l76 84h81z" />
    <glyph glyph-name="rcaron" unicode="&#x159;" horiz-adv-x="355" 
d="M345 495v-70h-50q-40 0 -73 -18.5t-52.5 -51.5t-19.5 -75v-280h-75v490h75v-70q30 37 69.5 56t85.5 19h40zM250 560h-65l-124 135h80l76 -84l76 84h81z" />
    <glyph glyph-name="Sacute" unicode="&#x15a;" horiz-adv-x="562" 
d="M162 17q-53 27 -81.5 75t-30.5 108h80q2 -59 43 -97t114 -38q65 0 103.5 31t38.5 84q0 41 -21.5 67.5t-53.5 41.5t-86 32q-66 23 -105 42.5t-67 58.5t-28 103q0 52 28 94t77.5 66.5t111.5 24.5q59 0 107.5 -25.5t77.5 -70.5t30 -99h-80q-2 53 -41 86.5t-97 33.5
q-57 0 -94 -28t-37 -82q0 -38 20.5 -63t51 -39t84.5 -33q65 -21 106.5 -42t70 -61.5t28.5 -106.5q0 -54 -29.5 -97.5t-80.5 -68t-115 -24.5q-72 0 -125 27zM309 765h-73l90 140h83z" />
    <glyph glyph-name="sacute" unicode="&#x15b;" horiz-adv-x="483" 
d="M145.5 10q-43.5 20 -68.5 55t-27 80h75q3 -38 35 -61.5t86 -23.5q45 0 74.5 19t29.5 54q0 27 -16 43.5t-39.5 24.5t-66.5 18q-54 12 -86 24.5t-55 40.5t-23 76q0 39 24 71t64.5 50.5t88.5 18.5q47 0 86.5 -20t63.5 -54t25 -76h-75q-2 34 -31 57t-73 23q-40 0 -67.5 -19
t-27.5 -51q0 -24 15.5 -39t38 -23t63.5 -18q54 -12 87.5 -25.5t57.5 -42.5t24 -79q0 -64 -53 -103.5t-131 -39.5q-55 0 -98.5 20zM270 560h-73l90 140h83z" />
    <glyph glyph-name="Scircumflex" unicode="&#x15c;" horiz-adv-x="562" 
d="M162 17q-53 27 -81.5 75t-30.5 108h80q2 -59 43 -97t114 -38q65 0 103.5 31t38.5 84q0 41 -21.5 67.5t-53.5 41.5t-86 32q-66 23 -105 42.5t-67 58.5t-28 103q0 52 28 94t77.5 66.5t111.5 24.5q59 0 107.5 -25.5t77.5 -70.5t30 -99h-80q-2 53 -41 86.5t-97 33.5
q-57 0 -94 -28t-37 -82q0 -38 20.5 -63t51 -39t84.5 -33q65 -21 106.5 -42t70 -61.5t28.5 -106.5q0 -54 -29.5 -97.5t-80.5 -68t-115 -24.5q-72 0 -125 27zM210 765h-81l124 135h65l124 -135h-80l-76 84z" />
    <glyph glyph-name="scircumflex" unicode="&#x15d;" horiz-adv-x="483" 
d="M145.5 10q-43.5 20 -68.5 55t-27 80h75q3 -38 35 -61.5t86 -23.5q45 0 74.5 19t29.5 54q0 27 -16 43.5t-39.5 24.5t-66.5 18q-54 12 -86 24.5t-55 40.5t-23 76q0 39 24 71t64.5 50.5t88.5 18.5q47 0 86.5 -20t63.5 -54t25 -76h-75q-2 34 -31 57t-73 23q-40 0 -67.5 -19
t-27.5 -51q0 -24 15.5 -39t38 -23t63.5 -18q54 -12 87.5 -25.5t57.5 -42.5t24 -79q0 -64 -53 -103.5t-131 -39.5q-55 0 -98.5 20zM171 560h-81l124 135h65l124 -135h-80l-76 84z" />
    <glyph glyph-name="Scedilla" unicode="&#x15e;" horiz-adv-x="562" 
d="M486 87.5q-26 -41.5 -72 -67t-104 -29.5l-14 -30q38 -4 57.5 -26t19.5 -50q0 -42 -27 -63.5t-68 -21.5h-55v50h45q22 0 33.5 9.5t11.5 25.5t-11.5 25.5t-33.5 9.5h-32v35l16 37q-93 10 -146.5 67t-55.5 141h80q2 -59 43 -97t114 -38q65 0 103.5 31t38.5 84
q0 41 -21.5 67.5t-53.5 41.5t-86 32q-66 23 -105 42.5t-67 58.5t-28 103q0 52 28 94t77.5 66.5t111.5 24.5q59 0 107.5 -25.5t77.5 -70.5t30 -99h-80q-2 53 -41 86.5t-97 33.5q-57 0 -94 -28t-37 -82q0 -38 20.5 -63t51 -39t84.5 -33q65 -21 106.5 -42t70 -61.5t28.5 -106.5
q0 -51 -26 -92.5z" />
    <glyph glyph-name="scedilla" unicode="&#x15f;" horiz-adv-x="483" 
d="M383.5 36.5q-44.5 -38.5 -112.5 -45.5l-14 -30q38 -4 57.5 -26t19.5 -50q0 -42 -27 -63.5t-68 -21.5h-55v50h45q22 0 33.5 9.5t11.5 25.5t-11.5 25.5t-33.5 9.5h-32v35l16 37q-71 7 -115.5 49t-47.5 104h75q3 -38 35 -61.5t86 -23.5q45 0 74.5 19t29.5 54q0 27 -16 43.5
t-39.5 24.5t-66.5 18q-54 12 -86 24.5t-55 40.5t-23 76q0 39 24 71t64.5 50.5t88.5 18.5q47 0 86.5 -20t63.5 -54t25 -76h-75q-2 34 -31 57t-73 23q-40 0 -67.5 -19t-27.5 -51q0 -24 15.5 -39t38 -23t63.5 -18q54 -12 87.5 -25.5t57.5 -42.5t24 -79q0 -58 -44.5 -96.5z" />
    <glyph glyph-name="Scaron" unicode="&#x160;" horiz-adv-x="562" 
d="M162 17q-53 27 -81.5 75t-30.5 108h80q2 -59 43 -97t114 -38q65 0 103.5 31t38.5 84q0 41 -21.5 67.5t-53.5 41.5t-86 32q-66 23 -105 42.5t-67 58.5t-28 103q0 52 28 94t77.5 66.5t111.5 24.5q59 0 107.5 -25.5t77.5 -70.5t30 -99h-80q-2 53 -41 86.5t-97 33.5
q-57 0 -94 -28t-37 -82q0 -38 20.5 -63t51 -39t84.5 -33q65 -21 106.5 -42t70 -61.5t28.5 -106.5q0 -54 -29.5 -97.5t-80.5 -68t-115 -24.5q-72 0 -125 27zM318 765h-65l-124 135h80l76 -84l76 84h81z" />
    <glyph glyph-name="scaron" unicode="&#x161;" horiz-adv-x="483" 
d="M145.5 10q-43.5 20 -68.5 55t-27 80h75q3 -38 35 -61.5t86 -23.5q45 0 74.5 19t29.5 54q0 27 -16 43.5t-39.5 24.5t-66.5 18q-54 12 -86 24.5t-55 40.5t-23 76q0 39 24 71t64.5 50.5t88.5 18.5q47 0 86.5 -20t63.5 -54t25 -76h-75q-2 34 -31 57t-73 23q-40 0 -67.5 -19
t-27.5 -51q0 -24 15.5 -39t38 -23t63.5 -18q54 -12 87.5 -25.5t57.5 -42.5t24 -79q0 -64 -53 -103.5t-131 -39.5q-55 0 -98.5 20zM279 560h-65l-124 135h80l76 -84l76 84h81z" />
    <glyph glyph-name="uni0162" unicode="&#x162;" horiz-adv-x="490" 
d="M285 0h-12l-18 -39q38 -4 57.5 -26t19.5 -50q0 -42 -27 -63.5t-68 -21.5h-55v50h45q22 0 33.5 9.5t11.5 25.5t-11.5 25.5t-33.5 9.5h-32v35l20 45h-10v625h-180v75h440v-75h-180v-625z" />
    <glyph glyph-name="uni0163" unicode="&#x163;" horiz-adv-x="350" 
d="M310 422h-125v-272q0 -37 21.5 -58.5t58.5 -21.5h45v-70h-50q-14 0 -21 1l-19 -40q38 -4 57.5 -26t19.5 -50q0 -42 -27 -63.5t-68 -21.5h-55v50h45q22 0 33.5 9.5t11.5 25.5t-11.5 25.5t-33.5 9.5h-32v35l27 61q-36 17 -56.5 51t-20.5 78v277h-80v68h80v130h75v-130h125
v-68z" />
    <glyph glyph-name="Tcaron" unicode="&#x164;" horiz-adv-x="490" 
d="M285 0h-80v625h-180v75h440v-75h-180v-625zM277 765h-65l-124 135h80l76 -84l76 84h81z" />
    <glyph glyph-name="tcaron" unicode="&#x165;" horiz-adv-x="350" 
d="M310 422h-125v-272q0 -37 21.5 -58.5t58.5 -21.5h45v-70h-50q-67 0 -108.5 40.5t-41.5 104.5v277h-80v68h80v130h75v-130h125v-68zM307 560h-61l20 160h74z" />
    <glyph glyph-name="Tbar" unicode="&#x166;" horiz-adv-x="490" 
d="M465 700v-75h-180v-252h155v-70h-155v-303h-80v303h-155v70h155v252h-180v75h440z" />
    <glyph glyph-name="tbar" unicode="&#x167;" horiz-adv-x="350" 
d="M310 422h-125v-107h115v-65h-115v-100q0 -37 21.5 -58.5t58.5 -21.5h45v-70h-50q-67 0 -108.5 40.5t-41.5 104.5v105h-70v65h70v107h-80v68h80v130h75v-130h125v-68z" />
    <glyph glyph-name="Utilde" unicode="&#x168;" horiz-adv-x="694" 
d="M209.5 23.5q-59.5 33.5 -92 94.5t-32.5 140v442h80v-442q0 -87 49 -140t133 -53t133 53t49 140v442h80v-442q0 -79 -32.5 -140t-92 -94.5t-137.5 -33.5t-137.5 33.5zM194 795q0 43 22 69t61 26q21 0 40.5 -9t43.5 -25q13 -8 25 -14.5t21 -6.5q17 0 24.5 11.5t7.5 34.5v9
h60v-20q0 -43 -22 -69t-61 -26q-21 0 -40.5 9t-43.5 25q-13 8 -25 14.5t-21 6.5q-17 0 -24.5 -11.5t-7.5 -34.5v-9h-60v20z" />
    <glyph glyph-name="utilde" unicode="&#x169;" horiz-adv-x="566" 
d="M171.5 17.5q-48.5 27.5 -75 76.5t-26.5 111v285h75v-285q0 -64 38 -104.5t100 -40.5t100 40.5t38 104.5v285h75v-285q0 -62 -26.5 -111t-75 -76.5t-111.5 -27.5t-111.5 27.5zM130 590q0 43 22 69t61 26q21 0 40.5 -9t43.5 -25q13 -8 25 -14.5t21 -6.5q17 0 24.5 11.5
t7.5 34.5v9h60v-20q0 -43 -22 -69t-61 -26q-21 0 -40.5 9t-43.5 25q-13 8 -25 14.5t-21 6.5q-17 0 -24.5 -11.5t-7.5 -34.5v-9h-60v20z" />
    <glyph glyph-name="Umacron" unicode="&#x16a;" horiz-adv-x="694" 
d="M209.5 23.5q-59.5 33.5 -92 94.5t-32.5 140v442h80v-442q0 -87 49 -140t133 -53t133 53t49 140v442h80v-442q0 -79 -32.5 -140t-92 -94.5t-137.5 -33.5t-137.5 33.5zM489 799h-284v66h284v-66z" />
    <glyph glyph-name="umacron" unicode="&#x16b;" horiz-adv-x="566" 
d="M171.5 17.5q-48.5 27.5 -75 76.5t-26.5 111v285h75v-285q0 -64 38 -104.5t100 -40.5t100 40.5t38 104.5v285h75v-285q0 -62 -26.5 -111t-75 -76.5t-111.5 -27.5t-111.5 27.5zM425 594h-284v66h284v-66z" />
    <glyph glyph-name="Ubreve" unicode="&#x16c;" horiz-adv-x="694" 
d="M209.5 23.5q-59.5 33.5 -92 94.5t-32.5 140v442h80v-442q0 -87 49 -140t133 -53t133 53t49 140v442h80v-442q0 -79 -32.5 -140t-92 -94.5t-137.5 -33.5t-137.5 33.5zM238 795.5q-42 38.5 -46 99.5h68q4 -37 27 -56t60 -19t60 19t27 56h68q-4 -61 -46 -99.5t-109 -38.5
t-109 38.5z" />
    <glyph glyph-name="ubreve" unicode="&#x16d;" horiz-adv-x="566" 
d="M171.5 17.5q-48.5 27.5 -75 76.5t-26.5 111v285h75v-285q0 -64 38 -104.5t100 -40.5t100 40.5t38 104.5v285h75v-285q0 -62 -26.5 -111t-75 -76.5t-111.5 -27.5t-111.5 27.5zM174 590.5q-42 38.5 -46 99.5h68q4 -37 27 -56t60 -19t60 19t27 56h68q-4 -61 -46 -99.5
t-109 -38.5t-109 38.5z" />
    <glyph glyph-name="Uring" unicode="&#x16e;" horiz-adv-x="694" 
d="M209.5 23.5q-59.5 33.5 -92 94.5t-32.5 140v442h80v-442q0 -87 49 -140t133 -53t133 53t49 140v442h80v-442q0 -79 -32.5 -140t-92 -94.5t-137.5 -33.5t-137.5 33.5zM278 777q-27 27 -27 66t27 66t69 27t69 -27t27 -66t-27 -66t-69 -27t-69 27zM378 812q12 12 12 31
t-12 31t-31 12t-31 -12t-12 -31t12 -31t31 -12t31 12z" />
    <glyph glyph-name="uring" unicode="&#x16f;" horiz-adv-x="566" 
d="M171.5 17.5q-48.5 27.5 -75 76.5t-26.5 111v285h75v-285q0 -64 38 -104.5t100 -40.5t100 40.5t38 104.5v285h75v-285q0 -62 -26.5 -111t-75 -76.5t-111.5 -27.5t-111.5 27.5zM214 572q-27 27 -27 66t27 66t69 27t69 -27t27 -66t-27 -66t-69 -27t-69 27zM314 607
q12 12 12 31t-12 31t-31 12t-31 -12t-12 -31t12 -31t31 -12t31 12z" />
    <glyph glyph-name="Uhungarumlaut" unicode="&#x170;" horiz-adv-x="694" 
d="M209.5 23.5q-59.5 33.5 -92 94.5t-32.5 140v442h80v-442q0 -87 49 -140t133 -53t133 53t49 140v442h80v-442q0 -79 -32.5 -140t-92 -94.5t-137.5 -33.5t-137.5 33.5zM309 765h-74l90 140h84zM445 765h-73l94 140h83z" />
    <glyph glyph-name="uhungarumlaut" unicode="&#x171;" horiz-adv-x="566" 
d="M171.5 17.5q-48.5 27.5 -75 76.5t-26.5 111v285h75v-285q0 -64 38 -104.5t100 -40.5t100 40.5t38 104.5v285h75v-285q0 -62 -26.5 -111t-75 -76.5t-111.5 -27.5t-111.5 27.5zM242 560h-74l90 140h84zM378 560h-73l94 140h83z" />
    <glyph glyph-name="Uogonek" unicode="&#x172;" horiz-adv-x="694" 
d="M529 700h80v-442q0 -82 -31 -138t-82 -90q-61 -41 -83.5 -65t-22.5 -53q0 -25 16.5 -39t50.5 -14h16v-59h-31q-49 0 -81.5 27.5t-32.5 76.5t44 87q-7 -1 -24 -1q-79 0 -138.5 33.5t-92 94t-32.5 140.5v442h80v-442q0 -87 49 -140t133 -53t133 53t49 140v442z" />
    <glyph glyph-name="uogonek" unicode="&#x173;" horiz-adv-x="566" 
d="M421 490h75v-285q0 -57 -17.5 -95t-48.5 -67q-55 -53 -75 -78t-20 -53q0 -25 16.5 -39t50.5 -14h16v-59h-31q-49 0 -81.5 27.5t-32.5 76.5q0 28 12.5 50.5t32.5 36.5l-35 -1q-63 0 -111.5 27.5t-75 76.5t-26.5 111v285h75v-285q0 -64 38 -104.5t100 -40.5t100 40.5
t38 104.5v285z" />
    <glyph glyph-name="Wcircumflex" unicode="&#x174;" horiz-adv-x="980" 
d="M696 152l176 548h83l-235 -700h-51l-180 546l-180 -546h-49l-235 700h85l175 -545l180 545h50zM414 765h-81l124 135h65l124 -135h-80l-76 84z" />
    <glyph glyph-name="wcircumflex" unicode="&#x175;" horiz-adv-x="800" 
d="M571 117l141 373h78l-195 -490h-51l-145 364l-145 -364h-49l-195 490h80l140 -370l145 370h50zM324 560h-81l124 135h65l124 -135h-80l-76 84z" />
    <glyph glyph-name="Ycircumflex" unicode="&#x176;" horiz-adv-x="560" 
d="M281 384l175 316h89l-225 -395v-305h-80v305l-225 395h91zM204 765h-81l124 135h65l124 -135h-80l-76 84z" />
    <glyph glyph-name="ycircumflex" unicode="&#x177;" horiz-adv-x="520" 
d="M267 119l163 371h80l-310 -690h-80l105 235l-215 455h84zM184 560h-81l124 135h65l124 -135h-80l-76 84z" />
    <glyph glyph-name="Ydieresis" unicode="&#x178;" horiz-adv-x="560" 
d="M281 384l175 316h89l-225 -395v-305h-80v305l-225 395h91zM231 789h-87v92h87v-92zM416 789h-87v92h87v-92z" />
    <glyph glyph-name="Zacute" unicode="&#x179;" horiz-adv-x="570" 
d="M505 650l-345 -575h365v-75h-470v50l345 575h-325v75h430v-50zM313 765h-73l90 140h83z" />
    <glyph glyph-name="zacute" unicode="&#x17a;" horiz-adv-x="470" 
d="M420 445l-275 -377h285v-68h-390v45l275 377h-265v68h370v-45zM258 560h-73l90 140h83z" />
    <glyph glyph-name="Zdotaccent" unicode="&#x17b;" horiz-adv-x="570" 
d="M505 650l-345 -575h365v-75h-470v50l345 575h-325v75h430v-50zM333 789h-87v92h87v-92z" />
    <glyph glyph-name="zdotaccent" unicode="&#x17c;" horiz-adv-x="470" 
d="M420 445l-275 -377h285v-68h-390v45l275 377h-265v68h370v-45zM278 584h-87v92h87v-92z" />
    <glyph glyph-name="Zcaron" unicode="&#x17d;" horiz-adv-x="570" 
d="M505 650l-345 -575h365v-75h-470v50l345 575h-325v75h430v-50zM322 765h-65l-124 135h80l76 -84l76 84h81z" />
    <glyph glyph-name="zcaron" unicode="&#x17e;" horiz-adv-x="470" 
d="M420 445l-275 -377h285v-68h-390v45l275 377h-265v68h370v-45zM267 560h-65l-124 135h80l76 -84l76 84h81z" />
    <glyph glyph-name="uni018F" unicode="&#x18f;" horiz-adv-x="807" 
d="M576 662.5q81 -47.5 128.5 -130t47.5 -182.5t-47 -182.5t-127.5 -130t-176.5 -47.5q-98 0 -178.5 48.5t-126.5 131.5t-46 182q0 12 2 36h615q-8 71 -46 127.5t-96.5 88t-127.5 31.5q-88 0 -151 -44t-98 -118h-85q38 107 127 172t207 65q98 0 179 -47.5zM526 97
q58 32 95.5 88.5t45.5 127.5h-532q8 -71 45.5 -127.5t95.5 -88.5t125 -32t125 32z" />
    <glyph glyph-name="florin" unicode="&#x192;" horiz-adv-x="390" 
d="M400 700l-10 -70h-20q-100 0 -115 -95l-20 -130h120l-10 -65h-120l-50 -330q-11 -76 -60 -118t-130 -42h-30l10 70h20q100 0 115 95l50 325h-100l10 65h99l21 135q11 76 60 118t130 42h30z" />
    <glyph glyph-name="uni01C4" unicode="&#x1c4;" horiz-adv-x="1251" 
d="M95 0v700h185q117 0 204 -43.5t134.5 -123t47.5 -183.5t-47.5 -183.5t-134.5 -123t-204 -43.5h-185zM280 75q93 0 161.5 34t105 96.5t36.5 144.5t-36.5 144.5t-105 96.5t-161.5 34h-105v-550h105zM1186 650l-345 -575h365v-75h-470v50l345 575h-325v75h430v-50zM1003 765
h-65l-124 135h80l76 -84l76 84h81z" />
    <glyph glyph-name="uni01C5" unicode="&#x1c5;" horiz-adv-x="1181" 
d="M95 0v700h185q117 0 204 -43.5t134.5 -123t47.5 -183.5t-47.5 -183.5t-134.5 -123t-204 -43.5h-185zM280 75q93 0 161.5 34t105 96.5t36.5 144.5t-36.5 144.5t-105 96.5t-161.5 34h-105v-550h105zM1131 445l-275 -377h285v-68h-390v45l275 377h-265v68h370v-45zM978 560
h-65l-124 135h80l76 -84l76 84h81z" />
    <glyph glyph-name="uni01C6" unicode="&#x1c6;" horiz-adv-x="1096" 
d="M471 720h75v-720h-75v75q-31 -39 -78 -62t-102 -23q-67 0 -125 33.5t-92 92t-34 129.5t34 129.5t92 92t125 33.5q55 0 102 -23t78 -62v305zM387 84.5q41 24.5 65 66.5t24 94t-24 94t-65 66.5t-90 24.5t-90 -24.5t-65 -66.5t-24 -94t24 -94t65 -66.5t90 -24.5t90 24.5z
M1046 445l-275 -377h285v-68h-390v45l275 377h-265v68h370v-45zM893 560h-65l-124 135h80l76 -84l76 84h81z" />
    <glyph glyph-name="uni01C7" unicode="&#x1c7;" horiz-adv-x="990" 
d="M445 0h-350v700h80v-625h270v-75zM588 17.5q-48 27.5 -75.5 75.5t-27.5 107h80q0 -60 37 -97.5t94 -37.5q58 0 93.5 39t35.5 106v490h80v-490q0 -64 -27 -114t-74.5 -78t-107.5 -28t-108 27.5z" />
    <glyph glyph-name="uni01C8" unicode="&#x1c8;" horiz-adv-x="705" 
d="M445 0h-350v700h80v-625h270v-75zM430 -200v70h45q38 0 59 21t21 59v540h75v-545q0 -64 -41.5 -104.5t-108.5 -40.5h-50zM636 584h-87v92h87v-92z" />
    <glyph glyph-name="uni01C9" unicode="&#x1c9;" horiz-adv-x="460" 
d="M155 0h-75v720h75v-720zM185 -200v70h45q38 0 59 21t21 59v540h75v-545q0 -64 -41.5 -104.5t-108.5 -40.5h-50zM391 584h-87v92h87v-92z" />
    <glyph glyph-name="uni01CA" unicode="&#x1ca;" horiz-adv-x="1300" 
d="M617 148v552h78v-700h-50l-472 552v-552h-78v700h50zM898 17.5q-48 27.5 -75.5 75.5t-27.5 107h80q0 -60 37 -97.5t94 -37.5q58 0 93.5 39t35.5 106v490h80v-490q0 -64 -27 -114t-74.5 -78t-107.5 -28t-108 27.5z" />
    <glyph glyph-name="uni01CB" unicode="&#x1cb;" horiz-adv-x="1015" 
d="M617 148v552h78v-700h-50l-472 552v-552h-78v700h50zM740 -200v70h45q38 0 59 21t21 59v540h75v-545q0 -64 -41.5 -104.5t-108.5 -40.5h-50zM946 584h-87v92h87v-92z" />
    <glyph glyph-name="uni01CC" unicode="&#x1cc;" horiz-adv-x="800" 
d="M409.5 471.5q45.5 -28.5 70.5 -77.5t25 -109v-285h-75v285q0 65 -36 105t-99 40q-40 0 -73 -18.5t-52.5 -51.5t-19.5 -75v-285h-75v490h75v-65q30 37 69.5 56t85.5 19q59 0 104.5 -28.5zM525 -200v70h45q38 0 59 21t21 59v540h75v-545q0 -64 -41.5 -104.5t-108.5 -40.5
h-50zM731 584h-87v92h87v-92z" />
    <glyph glyph-name="uni01CD" unicode="&#x1cd;" horiz-adv-x="670" 
d="M650 0h-86l-75 190h-310l-75 -190h-84l285 700h60zM459 265l-125 316l-125 -316h250zM367 765h-65l-124 135h80l76 -84l76 84h81z" />
    <glyph glyph-name="uni01CE" unicode="&#x1ce;" horiz-adv-x="621" 
d="M471 490h75v-490h-75v75q-31 -39 -78 -62t-102 -23q-67 0 -125 33.5t-92 92t-34 129.5t34 129.5t92 92t125 33.5q55 0 102 -23t78 -62v75zM387 84.5q41 24.5 65 66.5t24 94t-24 94t-65 66.5t-90 24.5t-90 -24.5t-65 -66.5t-24 -94t24 -94t65 -66.5t90 -24.5t90 24.5z
M343 560h-65l-124 135h80l76 -84l76 84h81z" />
    <glyph glyph-name="uni01D3" unicode="&#x1d3;" horiz-adv-x="694" 
d="M209.5 23.5q-59.5 33.5 -92 94.5t-32.5 140v442h80v-442q0 -87 49 -140t133 -53t133 53t49 140v442h80v-442q0 -79 -32.5 -140t-92 -94.5t-137.5 -33.5t-137.5 33.5zM379 765h-65l-124 135h80l76 -84l76 84h81z" />
    <glyph glyph-name="uni01D4" unicode="&#x1d4;" horiz-adv-x="566" 
d="M171.5 17.5q-48.5 27.5 -75 76.5t-26.5 111v285h75v-285q0 -64 38 -104.5t100 -40.5t100 40.5t38 104.5v285h75v-285q0 -62 -26.5 -111t-75 -76.5t-111.5 -27.5t-111.5 27.5zM315 560h-65l-124 135h80l76 -84l76 84h81z" />
    <glyph glyph-name="Gcaron" unicode="&#x1e6;" horiz-adv-x="801" 
d="M391 370h370v-30q0 -95 -44 -175t-122.5 -127.5t-178.5 -47.5q-99 0 -182 48t-131 131t-48 181t48 181t131 131t182 48q114 0 201 -61t129 -164h-85q-34 69 -99 109.5t-146 40.5q-76 0 -139.5 -38t-101 -103t-37.5 -144t37.5 -144t101 -103t139.5 -38q69 0 125.5 28.5
t92 80.5t42.5 121h-285v75zM448 765h-65l-124 135h80l76 -84l76 84h81z" />
    <glyph glyph-name="gcaron" unicode="&#x1e7;" horiz-adv-x="611" 
d="M461 490h75v-460q0 -69 -31 -124t-86.5 -85.5t-127.5 -30.5q-86 0 -149 45.5t-86 124.5h75q18 -46 60.5 -73t99.5 -27q78 0 124 47t46 123v64q-32 -39 -76.5 -61.5t-98.5 -22.5q-68 0 -124 31t-89 87t-33 127t33 127t89 87t124 31q54 0 98.5 -22.5t76.5 -61.5v74z
M381 103q40 23 62.5 63t22.5 89t-22.5 89t-62.5 63t-89 23t-89 -23t-62.5 -63t-22.5 -89t22.5 -89t62.5 -63t89 -23t89 23zM338 560h-65l-124 135h80l76 -84l76 84h81z" />
    <glyph glyph-name="uni01F1" unicode="&#x1f1;" horiz-adv-x="1251" 
d="M95 0v700h185q117 0 204 -43.5t134.5 -123t47.5 -183.5t-47.5 -183.5t-134.5 -123t-204 -43.5h-185zM280 75q93 0 161.5 34t105 96.5t36.5 144.5t-36.5 144.5t-105 96.5t-161.5 34h-105v-550h105zM1186 650l-345 -575h365v-75h-470v50l345 575h-325v75h430v-50z" />
    <glyph glyph-name="uni01F2" unicode="&#x1f2;" horiz-adv-x="1181" 
d="M95 0v700h185q117 0 204 -43.5t134.5 -123t47.5 -183.5t-47.5 -183.5t-134.5 -123t-204 -43.5h-185zM280 75q93 0 161.5 34t105 96.5t36.5 144.5t-36.5 144.5t-105 96.5t-161.5 34h-105v-550h105zM1131 445l-275 -377h285v-68h-390v45l275 377h-265v68h370v-45z" />
    <glyph glyph-name="uni01F3" unicode="&#x1f3;" horiz-adv-x="1096" 
d="M471 720h75v-720h-75v75q-31 -39 -78 -62t-102 -23q-67 0 -125 33.5t-92 92t-34 129.5t34 129.5t92 92t125 33.5q55 0 102 -23t78 -62v305zM387 84.5q41 24.5 65 66.5t24 94t-24 94t-65 66.5t-90 24.5t-90 -24.5t-65 -66.5t-24 -94t24 -94t65 -66.5t90 -24.5t90 24.5z
M1046 445l-275 -377h285v-68h-390v45l275 377h-265v68h370v-45z" />
    <glyph glyph-name="uni01F4" unicode="&#x1f4;" horiz-adv-x="801" 
d="M391 370h370v-30q0 -95 -44 -175t-122.5 -127.5t-178.5 -47.5q-99 0 -182 48t-131 131t-48 181t48 181t131 131t182 48q114 0 201 -61t129 -164h-85q-34 69 -99 109.5t-146 40.5q-76 0 -139.5 -38t-101 -103t-37.5 -144t37.5 -144t101 -103t139.5 -38q69 0 125.5 28.5
t92 80.5t42.5 121h-285v75zM439 765h-73l90 140h83z" />
    <glyph glyph-name="uni01F5" unicode="&#x1f5;" horiz-adv-x="611" 
d="M461 490h75v-460q0 -69 -31 -124t-86.5 -85.5t-127.5 -30.5q-86 0 -149 45.5t-86 124.5h75q18 -46 60.5 -73t99.5 -27q78 0 124 47t46 123v64q-32 -39 -76.5 -61.5t-98.5 -22.5q-68 0 -124 31t-89 87t-33 127t33 127t89 87t124 31q54 0 98.5 -22.5t76.5 -61.5v74z
M381 103q40 23 62.5 63t22.5 89t-22.5 89t-62.5 63t-89 23t-89 -23t-62.5 -63t-22.5 -89t22.5 -89t62.5 -63t89 -23t89 23zM329 560h-73l90 140h83z" />
    <glyph glyph-name="Aringacute" unicode="&#x1fa;" horiz-adv-x="670" 
d="M650 0h-86l-75 190h-310l-75 -190h-84l285 700h60zM459 265l-125 316l-125 -316h250zM378 927q24 -11 38.5 -33.5t14.5 -50.5q0 -39 -27 -66t-69 -27t-69 27t-27 66q0 31 18.5 55.5t48.5 33.5l50 84h83zM366 812q12 12 12 31t-12 31t-31 12t-31 -12t-12 -31t12 -31
t31 -12t31 12z" />
    <glyph glyph-name="aringacute" unicode="&#x1fb;" horiz-adv-x="621" 
d="M471 490h75v-490h-75v75q-31 -39 -78 -62t-102 -23q-67 0 -125 33.5t-92 92t-34 129.5t34 129.5t92 92t125 33.5q55 0 102 -23t78 -62v75zM387 84.5q41 24.5 65 66.5t24 94t-24 94t-65 66.5t-90 24.5t-90 -24.5t-65 -66.5t-24 -94t24 -94t65 -66.5t90 -24.5t90 24.5z
M354 722q24 -11 38.5 -33.5t14.5 -50.5q0 -39 -27 -66t-69 -27t-69 27t-27 66q0 31 18.5 55.5t48.5 33.5l50 84h83zM342 607q12 12 12 31t-12 31t-31 12t-31 -12t-12 -31t12 -31t31 -12t31 12z" />
    <glyph glyph-name="AEacute" unicode="&#x1fc;" horiz-adv-x="885" 
d="M520 325v-250h300v-75h-380v210h-261l-129 -210h-90l430 700h420v-75h-290v-225h280v-75h-280zM440 635l-215 -350h215v350zM545 765h-73l90 140h83z" />
    <glyph glyph-name="aeacute" unicode="&#x1fd;" horiz-adv-x="923" 
d="M769.5 469q54.5 -31 86.5 -86t32 -126q0 -24 -2 -37h-397q7 -73 50.5 -116.5t110.5 -43.5q49 0 86 22t60 63h80q-30 -75 -88.5 -115t-137.5 -40q-61 0 -114 28t-86 82q-29 -48 -83 -79t-122 -31q-55 0 -98 19t-67.5 53t-24.5 78q0 70 50.5 109t134.5 39h170v32
q0 47 -36.5 78.5t-98.5 31.5q-53 0 -85.5 -21t-44.5 -54h-75q13 65 68 105t137 40q65 0 111 -26.5t72 -73.5q35 50 85.5 75t107.5 25q64 0 118.5 -31zM545.5 392q-42.5 -38 -53.5 -104h317q-7 63 -52 102.5t-106 39.5q-63 0 -105.5 -38zM331 79q38 19 58.5 50t20.5 66v25
h-170q-107 0 -107 -80q0 -35 29 -57.5t83 -22.5q48 0 86 19zM492 560h-73l90 140h83z" />
    <glyph glyph-name="Oslashacute" unicode="&#x1fe;" horiz-adv-x="832" 
d="M664 613q53 -50 83 -118t30 -145q0 -98 -48 -181t-131 -131t-182 -48q-104 0 -191 54l-42 -54h-90l75 97q-53 50 -83 118t-30 145q0 98 48 181t131 131t182 48q104 0 191 -54l42 54h90zM158.5 240.5q20.5 -51.5 58.5 -90.5l343 445q-67 40 -144 40q-76 0 -139.5 -38
t-101 -103t-37.5 -144q0 -58 20.5 -109.5zM555.5 103q63.5 38 101 103t37.5 144q0 58 -20.5 109.5t-58.5 90.5l-343 -445q67 -40 144 -40q76 0 139.5 38zM439 765h-73l90 140h83z" />
    <glyph glyph-name="oslashacute" unicode="&#x1ff;" horiz-adv-x="592" 
d="M478 425q35 -34 54.5 -80.5t19.5 -99.5q0 -71 -34.5 -129.5t-93 -92t-128.5 -33.5q-71 0 -132 36l-28 -36h-80l58 74q-35 35 -54.5 81.5t-19.5 99.5q0 71 34.5 129.5t93 92t128.5 33.5q72 0 133 -36l28 36h80zM129 178.5q11 -31.5 32 -55.5l223 284q-40 23 -88 23
q-49 0 -89.5 -24.5t-64.5 -66.5t-24 -94q0 -35 11 -66.5zM385.5 84.5q40.5 24.5 64.5 66.5t24 94q0 69 -42 121l-223 -283q40 -23 87 -23q49 0 89.5 24.5zM319 560h-73l90 140h83z" />
    <glyph glyph-name="uni0218" unicode="&#x218;" horiz-adv-x="562" 
d="M162 17q-53 27 -81.5 75t-30.5 108h80q2 -59 43 -97t114 -38q65 0 103.5 31t38.5 84q0 41 -21.5 67.5t-53.5 41.5t-86 32q-66 23 -105 42.5t-67 58.5t-28 103q0 52 28 94t77.5 66.5t111.5 24.5q59 0 107.5 -25.5t77.5 -70.5t30 -99h-80q-2 53 -41 86.5t-97 33.5
q-57 0 -94 -28t-37 -82q0 -38 20.5 -63t51 -39t84.5 -33q65 -21 106.5 -42t70 -61.5t28.5 -106.5q0 -54 -29.5 -97.5t-80.5 -68t-115 -24.5q-72 0 -125 27zM264 -255h-69l47 170h84z" />
    <glyph glyph-name="uni0219" unicode="&#x219;" horiz-adv-x="483" 
d="M145.5 10q-43.5 20 -68.5 55t-27 80h75q3 -38 35 -61.5t86 -23.5q45 0 74.5 19t29.5 54q0 27 -16 43.5t-39.5 24.5t-66.5 18q-54 12 -86 24.5t-55 40.5t-23 76q0 39 24 71t64.5 50.5t88.5 18.5q47 0 86.5 -20t63.5 -54t25 -76h-75q-2 34 -31 57t-73 23q-40 0 -67.5 -19
t-27.5 -51q0 -24 15.5 -39t38 -23t63.5 -18q54 -12 87.5 -25.5t57.5 -42.5t24 -79q0 -64 -53 -103.5t-131 -39.5q-55 0 -98.5 20zM225 -255h-69l47 170h84z" />
    <glyph glyph-name="uni021A" unicode="&#x21a;" horiz-adv-x="490" 
d="M285 0h-80v625h-180v75h440v-75h-180v-625zM223 -255h-69l47 170h84z" />
    <glyph glyph-name="uni021B" unicode="&#x21b;" horiz-adv-x="350" 
d="M310 422h-125v-272q0 -37 21.5 -58.5t58.5 -21.5h45v-70h-50q-67 0 -108.5 40.5t-41.5 104.5v277h-80v68h80v130h75v-130h125v-68zM188 -255h-69l47 170h84z" />
    <glyph glyph-name="uni021E" unicode="&#x21e;" horiz-adv-x="720" 
d="M545 400v300h80v-700h-80v325h-370v-325h-80v700h80v-300h370zM392 765h-65l-124 135h80l76 -84l76 84h81z" />
    <glyph glyph-name="uni021F" unicode="&#x21f;" horiz-adv-x="580" 
d="M414.5 471.5q45.5 -28.5 70.5 -77.5t25 -109v-285h-75v285q0 65 -36 105t-99 40q-40 0 -73 -18.5t-52.5 -51.5t-19.5 -75v-285h-75v720h75v-295q30 37 69.5 56t85.5 19q59 0 104.5 -28.5zM327 785h-65l-124 135h80l76 -84l76 84h81z" />
    <glyph glyph-name="uni0232" unicode="&#x232;" horiz-adv-x="560" 
d="M281 384l175 316h89l-225 -395v-305h-80v305l-225 395h91zM422 799h-284v66h284v-66z" />
    <glyph glyph-name="uni0233" unicode="&#x233;" horiz-adv-x="520" 
d="M267 119l163 371h80l-310 -690h-80l105 235l-215 455h84zM402 594h-284v66h284v-66z" />
    <glyph glyph-name="uni0237" unicode="&#x237;" horiz-adv-x="225" 
d="M-50 -200v70h45q38 0 59 21t21 59v540h75v-545q0 -64 -41.5 -104.5t-108.5 -40.5h-50z" />
    <glyph glyph-name="uni0244" unicode="&#x244;" horiz-adv-x="714" 
d="M709 458v-70h-90v-130q0 -79 -32.5 -140t-92 -94.5t-137.5 -33.5t-137.5 33.5t-92 94.5t-32.5 140v130h-90v70h90v242h80v-242h364v242h80v-242h90zM539 388h-364v-130q0 -87 49 -140t133 -53t133 53t49 140v130z" />
    <glyph glyph-name="uni0259" unicode="&#x259;" horiz-adv-x="563" 
d="M402.5 466.5q56.5 -33.5 88.5 -91.5t32 -130t-32 -130t-88.5 -91.5t-125.5 -33.5q-67 0 -122.5 30.5t-87.5 86t-32 126.5q0 24 2 37h407q-7 73 -51.5 116.5t-115.5 43.5q-104 0 -150 -85h-80q30 75 89 115t141 40q69 0 125.5 -33.5zM386.5 98q43.5 38 54.5 104h-327
q7 -64 52.5 -103t110.5 -39q66 0 109.5 38z" />
    <glyph glyph-name="uni0289" unicode="&#x289;" horiz-adv-x="586" 
d="M576 345v-65h-70v-75q0 -62 -26.5 -111t-75 -76.5t-111.5 -27.5t-111.5 27.5t-75 76.5t-26.5 111v75h-70v65h70v145h75v-145h276v145h75v-145h70zM431 280h-276v-75q0 -64 38 -104.5t100 -40.5t100 40.5t38 104.5v75z" />
    <glyph glyph-name="uni02BB" unicode="&#x2bb;" horiz-adv-x="0" 
d="M-90 470h-90l75 230h70z" />
    <glyph glyph-name="uni02BC" unicode="&#x2bc;" horiz-adv-x="215" 
d="M105 470h-70l55 230h90z" />
    <glyph glyph-name="circumflex" unicode="&#x2c6;" horiz-adv-x="373" 
d="M111 560h-81l124 135h65l124 -135h-80l-76 84z" />
    <glyph glyph-name="caron" unicode="&#x2c7;" horiz-adv-x="373" 
d="M219 560h-65l-124 135h80l76 -84l76 84h81z" />
    <glyph glyph-name="breve" unicode="&#x2d8;" horiz-adv-x="370" 
d="M76 590.5q-42 38.5 -46 99.5h68q4 -37 27 -56t60 -19t60 19t27 56h68q-4 -61 -46 -99.5t-109 -38.5t-109 38.5z" />
    <glyph glyph-name="dotaccent" unicode="&#x2d9;" horiz-adv-x="147" 
d="M117 584h-87v92h87v-92z" />
    <glyph glyph-name="ring" unicode="&#x2da;" horiz-adv-x="252" 
d="M57 572q-27 27 -27 66t27 66t69 27t69 -27t27 -66t-27 -66t-69 -27t-69 27zM157 607q12 12 12 31t-12 31t-31 12t-31 -12t-12 -31t12 -31t31 -12t31 12z" />
    <glyph glyph-name="ogonek" unicode="&#x2db;" horiz-adv-x="205" 
d="M144 -200q-49 0 -81.5 27.5t-32.5 76.5q0 42 26.5 70t63.5 43l55 -17q-38 -11 -60.5 -34.5t-22.5 -53.5q0 -25 16.5 -39t50.5 -14h16v-59h-31z" />
    <glyph glyph-name="tilde" unicode="&#x2dc;" horiz-adv-x="365" 
d="M30 590q0 43 22 69t61 26q21 0 40.5 -9t43.5 -25q13 -8 25 -14.5t21 -6.5q17 0 24.5 11.5t7.5 34.5v9h60v-20q0 -43 -22 -69t-61 -26q-21 0 -40.5 9t-43.5 25q-13 8 -25 14.5t-21 6.5q-17 0 -24.5 -11.5t-7.5 -34.5v-9h-60v20z" />
    <glyph glyph-name="hungarumlaut" unicode="&#x2dd;" horiz-adv-x="374" 
d="M104 560h-74l90 140h84zM240 560h-73l94 140h83z" />
    <glyph glyph-name="gravecomb" unicode="&#x300;" horiz-adv-x="0" 
d="M-30 560h-76l-100 140h86z" />
    <glyph glyph-name="acutecomb" unicode="&#x301;" horiz-adv-x="0" 
d="M-130 560h-73l90 140h83z" />
    <glyph glyph-name="uni0302" unicode="&#x302;" horiz-adv-x="0" 
d="M-262 560h-81l124 135h65l124 -135h-80l-76 84z" />
    <glyph glyph-name="tildecomb" unicode="&#x303;" horiz-adv-x="0" 
d="M-335 590q0 43 22 69t61 26q21 0 40.5 -9t43.5 -25q13 -8 25 -14.5t21 -6.5q17 0 24.5 11.5t7.5 34.5v9h60v-20q0 -43 -22 -69t-61 -26q-21 0 -40.5 9t-43.5 25q-13 8 -25 14.5t-21 6.5q-17 0 -24.5 -11.5t-7.5 -34.5v-9h-60v20z" />
    <glyph glyph-name="uni0304" unicode="&#x304;" horiz-adv-x="0" 
d="M-30 594h-284v66h284v-66z" />
    <glyph glyph-name="uni0306" unicode="&#x306;" horiz-adv-x="0" 
d="M-294 590.5q-42 38.5 -46 99.5h68q4 -37 27 -56t60 -19t60 19t27 56h68q-4 -61 -46 -99.5t-109 -38.5t-109 38.5z" />
    <glyph glyph-name="uni0307" unicode="&#x307;" horiz-adv-x="0" 
d="M-30 584h-87v92h87v-92z" />
    <glyph glyph-name="uni0308" unicode="&#x308;" horiz-adv-x="0" 
d="M-215 584h-87v92h87v-92zM-30 584h-87v92h87v-92z" />
    <glyph glyph-name="uni030A" unicode="&#x30a;" horiz-adv-x="0" 
d="M-195 572q-27 27 -27 66t27 66t69 27t69 -27t27 -66t-27 -66t-69 -27t-69 27zM-95 607q12 12 12 31t-12 31t-31 12t-31 -12t-12 -31t12 -31t31 -12t31 12z" />
    <glyph glyph-name="uni030B" unicode="&#x30b;" horiz-adv-x="0" 
d="M-270 560h-74l90 140h84zM-134 560h-73l94 140h83z" />
    <glyph glyph-name="uni030C" unicode="&#x30c;" horiz-adv-x="0" 
d="M-154 560h-65l-124 135h80l76 -84l76 84h81z" />
    <glyph glyph-name="uni0312" unicode="&#x312;" horiz-adv-x="0" 
d="M-94 560h-83l77 170h70z" />
    <glyph glyph-name="dotbelowcomb" unicode="&#x323;" horiz-adv-x="0" 
d="M-30 -172h-87v92h87v-92z" />
    <glyph glyph-name="uni0326" unicode="&#x326;" horiz-adv-x="0" 
d="M-92 -255h-69l47 170h84z" />
    <glyph glyph-name="uni0327" unicode="&#x327;" horiz-adv-x="0" 
d="M-107 -39q38 -4 57.5 -26t19.5 -50q0 -42 -27 -63.5t-68 -21.5h-55v50h45q22 0 33.5 9.5t11.5 25.5t-11.5 25.5t-33.5 9.5h-32v35l34 76l46 -22v-5z" />
    <glyph glyph-name="uni0328" unicode="&#x328;" horiz-adv-x="0" 
d="M-61 -200q-49 0 -81.5 27.5t-32.5 76.5q0 42 26.5 70t63.5 43l55 -17q-38 -11 -60.5 -34.5t-22.5 -53.5q0 -25 16.5 -39t50.5 -14h16v-59h-31z" />
    <glyph glyph-name="uni0400" unicode="&#x400;" 
d="M175 325v-250h300v-75h-380v700h370v-75h-290v-225h280v-75h-280zM325 765h-76l-100 140h86z" />
    <glyph glyph-name="uni0401" unicode="&#x401;" 
d="M175 325v-250h300v-75h-380v700h370v-75h-290v-225h280v-75h-280zM234 789h-87v92h87v-92zM419 789h-87v92h87v-92z" />
    <glyph glyph-name="uni0402" unicode="&#x402;" horiz-adv-x="674" 
d="M507.5 396.5q58.5 -33.5 92.5 -92t34 -129.5t-34 -129.5t-92.5 -92t-129.5 -33.5v75q48 0 87.5 23t62.5 63.5t23 90.5q0 83 -50 133t-129 50q-38 0 -69.5 -5.5t-67.5 -18.5v-331h-80v625h-150v75h435v-75h-205v-219q29 11 67 17.5t75 6.5q72 0 130.5 -33.5z" />
    <glyph glyph-name="uni0403" unicode="&#x403;" horiz-adv-x="475" 
d="M175 0h-80v700h365v-75h-285v-625zM301 765h-73l90 140h83z" />
    <glyph glyph-name="uni0404" unicode="&#x404;" horiz-adv-x="776" 
d="M736 215q-42 -104 -126.5 -164.5t-198.5 -60.5q-97 0 -179 48t-129.5 131t-47.5 181t47.5 181t129.5 131t179 48q111 0 195 -60.5t126 -164.5h-85q-35 69 -96.5 109.5t-139.5 40.5q-68 0 -126.5 -32t-96.5 -88t-47 -125h329v-75h-330q8 -71 46 -128t97 -89.5t128 -32.5
q81 0 143 40.5t97 109.5h85z" />
    <glyph glyph-name="uni0405" unicode="&#x405;" horiz-adv-x="562" 
d="M162 17q-53 27 -81.5 75t-30.5 108h80q2 -59 43 -97t114 -38q65 0 103.5 31t38.5 84q0 41 -21.5 67.5t-53.5 41.5t-86 32q-66 23 -105 42.5t-67 58.5t-28 103q0 52 28 94t77.5 66.5t111.5 24.5q59 0 107.5 -25.5t77.5 -70.5t30 -99h-80q-2 53 -41 86.5t-97 33.5
q-57 0 -94 -28t-37 -82q0 -38 20.5 -63t51 -39t84.5 -33q65 -21 106.5 -42t70 -61.5t28.5 -106.5q0 -54 -29.5 -97.5t-80.5 -68t-115 -24.5q-72 0 -125 27z" />
    <glyph glyph-name="uni0406" unicode="&#x406;" horiz-adv-x="280" 
d="M180 0h-80v700h80v-700z" />
    <glyph glyph-name="uni0407" unicode="&#x407;" horiz-adv-x="280" 
d="M180 0h-80v700h80v-700zM91 789h-87v92h87v-92zM276 789h-87v92h87v-92z" />
    <glyph glyph-name="uni0408" unicode="&#x408;" horiz-adv-x="510" 
d="M108 17.5q-48 27.5 -75.5 75.5t-27.5 107h80q0 -60 37 -97.5t94 -37.5q58 0 93.5 39t35.5 106v490h80v-490q0 -64 -27 -114t-74.5 -78t-107.5 -28t-108 27.5z" />
    <glyph glyph-name="uni0409" unicode="&#x409;" horiz-adv-x="976" 
d="M699 420q71 0 126 -27.5t85.5 -75.5t30.5 -107t-30.5 -107t-85.5 -75.5t-126 -27.5h-200v625h-245l-28 -390q-9 -132 -56 -186t-131 -54h-24v78h17q56 0 82 37t32 125l33 465h400v-280h120zM699 75q73 0 116 37.5t43 97.5t-43 97.5t-116 37.5h-120v-270h120z" />
    <glyph glyph-name="uni040A" unicode="&#x40a;" horiz-adv-x="992" 
d="M713 410q72 0 126 -25.5t83.5 -72t29.5 -107.5t-29.5 -107.5t-83.5 -72t-126 -25.5h-203v335h-335v-335h-80v700h80v-290h335v290h80v-290h123zM713 75q74 0 115 33.5t41 96.5t-41 96.5t-115 33.5h-123v-260h123z" />
    <glyph glyph-name="uni040B" unicode="&#x40b;" horiz-adv-x="685" 
d="M563.5 367q61.5 -63 61.5 -173v-194h-80v194q0 75 -42 118t-115 43q-81 0 -153 -30v-325h-80v625h-150v75h435v-75h-205v-225q31 13 75 21.5t83 8.5q109 0 170.5 -63z" />
    <glyph glyph-name="uni040C" unicode="&#x40c;" horiz-adv-x="595" 
d="M260 361l330 -361h-106l-309 339v-339h-80v700h80v-325l294 325h98zM321 765h-73l90 140h83z" />
    <glyph glyph-name="uni040D" unicode="&#x40d;" horiz-adv-x="780" 
d="M175 147l460 553h50v-700h-80v553l-460 -553h-50v700h80v-553zM440 765h-76l-100 140h86z" />
    <glyph glyph-name="uni040E" unicode="&#x40e;" horiz-adv-x="602" 
d="M307 293l186 407h84l-320 -700h-84l93 203l-246 497h89zM189.5 795.5q-43.5 38.5 -47.5 99.5h71q4 -38 28 -57.5t61 -19.5t61 19.5t28 57.5h71q-4 -61 -47.5 -99.5t-112.5 -38.5t-112.5 38.5z" />
    <glyph glyph-name="uni040F" unicode="&#x40f;" horiz-adv-x="705" 
d="M393 -170h-80v170h-218v700h80v-625h355v625h80v-700h-217v-170z" />
    <glyph glyph-name="uni0410" unicode="&#x410;" horiz-adv-x="670" 
d="M650 0h-86l-75 190h-310l-75 -190h-84l285 700h60zM459 265l-125 316l-125 -316h250z" />
    <glyph glyph-name="uni0411" unicode="&#x411;" horiz-adv-x="567" 
d="M288 420q70 0 124.5 -27t84.5 -75t30 -108t-30 -108t-84.5 -75t-124.5 -27h-193v700h375v-75h-295v-205h113zM288 75q72 0 114 37t42 98t-42 98t-114 37h-113v-270h113z" />
    <glyph glyph-name="uni0412" unicode="&#x412;" horiz-adv-x="577" 
d="M493 310.5q34 -45.5 34 -105.5q0 -58 -30 -105t-84 -73.5t-123 -26.5h-195v700h185q67 0 116 -23.5t75 -65.5t26 -96q0 -44 -25.5 -82t-67.5 -58q55 -19 89 -64.5zM175 625v-220h105q62 0 98 31t36 79t-36 79t-98 31h-105zM290 75q69 0 111.5 37.5t42.5 92.5t-42.5 92.5
t-111.5 37.5h-115v-260h115z" />
    <glyph glyph-name="uni0413" unicode="&#x413;" horiz-adv-x="475" 
d="M175 0h-80v700h365v-75h-285v-625z" />
    <glyph glyph-name="uni0414" unicode="&#x414;" horiz-adv-x="720" 
d="M600 75h90v-245h-80v170h-505v-170h-80v245q53 7 84 51.5t38 123.5l39 450h414v-625zM520 75v550h-261l-33 -375q-6 -72 -19.5 -112t-41.5 -63h355z" />
    <glyph glyph-name="uni0415" unicode="&#x415;" 
d="M175 325v-250h300v-75h-380v700h370v-75h-290v-225h280v-75h-280z" />
    <glyph glyph-name="uni0416" unicode="&#x416;" horiz-adv-x="834" 
d="M539 359l290 -359h-100l-273 340v-340h-78v340l-273 -340h-100l290 359l-272 341h93l262 -330v330h78v-330l262 330h93z" />
    <glyph glyph-name="uni0417" unicode="&#x417;" horiz-adv-x="553" 
d="M471 297.5q32 -44.5 32 -104.5q0 -59 -29.5 -105t-82.5 -72t-122 -26q-67 0 -120 25.5t-84 72t-35 107.5h80q5 -59 48 -94.5t111 -35.5q67 0 109 35.5t42 94.5q0 58 -41.5 91.5t-112.5 33.5h-65v75h65q62 0 98 33.5t36 86.5t-36 86.5t-98 33.5q-63 0 -100.5 -33.5
t-43.5 -81.5h-80q4 53 33 96t79 68.5t112 25.5t111.5 -24.5t77.5 -68t28 -100.5q0 -52 -26 -90.5t-76 -61.5q58 -23 90 -67.5z" />
    <glyph glyph-name="uni0418" unicode="&#x418;" horiz-adv-x="780" 
d="M175 147l460 553h50v-700h-80v553l-460 -553h-50v700h80v-553z" />
    <glyph glyph-name="uni0419" unicode="&#x419;" horiz-adv-x="780" 
d="M175 147l460 553h50v-700h-80v553l-460 -553h-50v700h80v-553zM285.5 795.5q-43.5 38.5 -47.5 99.5h71q4 -38 28 -57.5t61 -19.5t61 19.5t28 57.5h71q-4 -61 -47.5 -99.5t-112.5 -38.5t-112.5 38.5z" />
    <glyph glyph-name="uni041A" unicode="&#x41a;" horiz-adv-x="595" 
d="M260 361l330 -361h-106l-309 339v-339h-80v700h80v-325l294 325h98z" />
    <glyph glyph-name="uni041B" unicode="&#x41b;" horiz-adv-x="694" 
d="M179 700h420v-700h-80v625h-265l-28 -390q-9 -132 -56 -186t-131 -54h-24v78h17q56 0 82 37t32 125z" />
    <glyph glyph-name="uni041C" unicode="&#x41c;" horiz-adv-x="910" 
d="M760 700l85 -700h-80l-60 516l-230 -516h-40l-232 519l-60 -519h-78l85 700h56l250 -561l250 561h54z" />
    <glyph glyph-name="uni041D" unicode="&#x41d;" horiz-adv-x="720" 
d="M545 400v300h80v-700h-80v325h-370v-325h-80v700h80v-300h370z" />
    <glyph glyph-name="uni041E" unicode="&#x41e;" horiz-adv-x="832" 
d="M234 38q-83 48 -131 131t-48 181t48 181t131 131t182 48t182 -48t131 -131t48 -181t-48 -181t-131 -131t-182 -48t-182 48zM555.5 103q63.5 38 101 103t37.5 144t-37.5 144t-101 103t-139.5 38t-139.5 -38t-101 -103t-37.5 -144t37.5 -144t101 -103t139.5 -38t139.5 38z
" />
    <glyph glyph-name="uni041F" unicode="&#x41f;" horiz-adv-x="715" 
d="M175 0h-80v700h525v-700h-80v625h-365v-625z" />
    <glyph glyph-name="uni0420" unicode="&#x420;" horiz-adv-x="562" 
d="M300 700q67 0 118.5 -26t80 -71.5t28.5 -102.5t-28.5 -102.5t-80 -71.5t-118.5 -26h-125v-300h-80v700h205zM300 375q66 0 105 34t39 91t-39 91t-105 34h-125v-250h125z" />
    <glyph glyph-name="uni0421" unicode="&#x421;" horiz-adv-x="776" 
d="M232 38q-82 48 -129.5 131t-47.5 181t47.5 181t129.5 131t179 48q111 0 195 -60.5t126 -164.5h-85q-35 69 -96.5 109.5t-139.5 40.5q-74 0 -137 -38t-99.5 -103t-36.5 -144t36.5 -144t99.5 -103t137 -38q81 0 143 40.5t97 109.5h85q-42 -104 -126.5 -164.5t-198.5 -60.5
q-97 0 -179 48z" />
    <glyph glyph-name="uni0422" unicode="&#x422;" horiz-adv-x="490" 
d="M285 0h-80v625h-180v75h440v-75h-180v-625z" />
    <glyph glyph-name="uni0423" unicode="&#x423;" horiz-adv-x="602" 
d="M307 293l186 407h84l-320 -700h-84l93 203l-246 497h89z" />
    <glyph glyph-name="uni0424" unicode="&#x424;" horiz-adv-x="810" 
d="M459 650q83 0 153 -38t111.5 -105.5t41.5 -151.5t-41.5 -151.5t-111.5 -105.5t-153 -38h-15v-85h-78v85h-15q-83 0 -153 38t-111.5 105.5t-41.5 151.5t41.5 151.5t111.5 105.5t153 38h15v75h78v-75h15zM366 132v446h-15q-62 0 -113 -28t-80.5 -78.5t-29.5 -116.5
t29.5 -116.5t80.5 -78.5t113 -28h15zM459 132q62 0 113 28t80.5 78.5t29.5 116.5t-29.5 116.5t-80.5 78.5t-113 28h-15v-446h15z" />
    <glyph glyph-name="uni0425" unicode="&#x425;" horiz-adv-x="580" 
d="M339 363l216 -363h-90l-175 298l-176 -298h-89l216 363l-196 337h90l156 -272l155 272h89z" />
    <glyph glyph-name="uni0426" unicode="&#x426;" horiz-adv-x="730" 
d="M700 -170h-80v170h-525v700h80v-625h355v625h80v-625h90v-245z" />
    <glyph glyph-name="uni0427" unicode="&#x427;" horiz-adv-x="650" 
d="M475 700h80v-700h-80v295q-32 -15 -77.5 -25t-90.5 -10q-110 0 -171 63.5t-61 181.5v195h80v-195q0 -80 39.5 -125t117.5 -45q45 0 83.5 8t79.5 27v330z" />
    <glyph glyph-name="uni0428" unicode="&#x428;" horiz-adv-x="1020" 
d="M925 0h-830v700h80v-625h295v625h80v-625h295v625h80v-700z" />
    <glyph glyph-name="uni0429" unicode="&#x429;" horiz-adv-x="1045" 
d="M1015 -170h-80v170h-840v700h80v-625h295v625h80v-625h295v625h80v-625h90v-245z" />
    <glyph glyph-name="uni042A" unicode="&#x42a;" horiz-adv-x="657" 
d="M375 430q71 0 126 -27.5t85.5 -76.5t30.5 -111t-30.5 -111t-85.5 -76.5t-126 -27.5h-195v625h-170v75h250v-270h115zM375 75q73 0 116 38.5t43 101.5t-43 101.5t-116 38.5h-115v-280h115z" />
    <glyph glyph-name="uni042B" unicode="&#x42b;" horiz-adv-x="800" 
d="M283 430q71 0 126 -27.5t85.5 -76.5t30.5 -111t-30.5 -111t-85.5 -76.5t-126 -27.5h-188v700h80v-270h108zM625 0v700h80v-700h-80zM283 75q73 0 116 38.5t43 101.5t-43 101.5t-116 38.5h-108v-280h108z" />
    <glyph glyph-name="uni042C" unicode="&#x42c;" horiz-adv-x="577" 
d="M295 430q71 0 126 -27.5t85.5 -76.5t30.5 -111t-30.5 -111t-85.5 -76.5t-126 -27.5h-200v700h80v-270h120zM295 75q73 0 116 38.5t43 101.5t-43 101.5t-116 38.5h-120v-280h120z" />
    <glyph glyph-name="uni042D" unicode="&#x42d;" horiz-adv-x="771" 
d="M539 662q82 -48 129.5 -131t47.5 -181t-47.5 -181t-129.5 -131t-179 -48q-114 0 -198.5 60.5t-126.5 164.5h85q35 -69 97 -109.5t143 -40.5q71 0 130.5 32.5t96.5 89.5t44 128h-330v75h330q-9 70 -46 125.5t-95.5 87.5t-129.5 32q-78 0 -139.5 -40.5t-96.5 -109.5h-85
q42 104 126 164.5t195 60.5q97 0 179 -48z" />
    <glyph glyph-name="uni042E" unicode="&#x42e;" horiz-adv-x="1051" 
d="M820.5 662q81.5 -48 128.5 -130.5t47 -181.5t-47 -181.5t-128.5 -130.5t-180.5 -48q-92 0 -170 42.5t-126.5 116.5t-57.5 164h-111v-313h-80v700h80v-312h111q9 90 57.5 163.5t126.5 116t170 42.5q99 0 180.5 -48zM778.5 103q62.5 38 98.5 103t36 144t-36 144t-98.5 103
t-138.5 38t-138.5 -38t-98.5 -103t-36 -144t36 -144t98.5 -103t138.5 -38t138.5 38z" />
    <glyph glyph-name="uni042F" unicode="&#x42f;" horiz-adv-x="605" 
d="M510 700v-700h-80v300h-95l-213 -300h-97l222 306q-77 15 -123 68.5t-46 125.5q0 56 28.5 101.5t79.5 72t117 26.5h207zM430 375v250h-127q-64 0 -103 -35t-39 -90t39 -90t103 -35h127z" />
    <glyph glyph-name="uni0430" unicode="&#x430;" horiz-adv-x="621" 
d="M471 490h75v-490h-75v75q-31 -39 -78 -62t-102 -23q-67 0 -125 33.5t-92 92t-34 129.5t34 129.5t92 92t125 33.5q55 0 102 -23t78 -62v75zM387 84.5q41 24.5 65 66.5t24 94t-24 94t-65 66.5t-90 24.5t-90 -24.5t-65 -66.5t-24 -94t24 -94t65 -66.5t90 -24.5t90 24.5z" />
    <glyph glyph-name="uni0431" unicode="&#x431;" horiz-adv-x="591" 
d="M437.5 447.5q54.5 -32.5 86.5 -89t32 -123.5t-33.5 -123.5t-90.5 -89t-124 -32.5q-68 0 -125 30t-92.5 97.5t-35.5 175.5q0 149 42.5 240t121.5 124q48 20 91.5 30t122.5 23q49 7 80 13v-75q-50 -9 -82 -14q-71 -11 -110.5 -19.5t-71.5 -23.5q-49 -22 -78 -71.5
t-35 -119.5q66 80 182 80q65 0 119.5 -32.5zM393 83.5q39 23.5 62 63.5t23 88t-23 88t-62 63.5t-85 23.5t-85 -23.5t-62 -63.5t-23 -88t23 -88t62 -63.5t85 -23.5t85 23.5z" />
    <glyph glyph-name="uni0432" unicode="&#x432;" horiz-adv-x="504" 
d="M442 215q22 -32 22 -75q0 -62 -47 -101t-127 -39h-215v490h200q76 0 120 -36t44 -94q0 -30 -16.5 -57t-42.5 -42q40 -14 62 -46zM150 420v-131h122q43 0 66 18.5t23 47.5q0 28 -22.5 46.5t-63.5 18.5h-125zM290 70q45 0 70.5 20t25.5 55q0 36 -26 56t-73 20h-137v-151
h140z" />
    <glyph glyph-name="uni0433" unicode="&#x433;" horiz-adv-x="395" 
d="M150 0h-75v490h310v-70h-235v-420z" />
    <glyph glyph-name="uni0434" unicode="&#x434;" horiz-adv-x="565" 
d="M470 70h75v-210h-75v140h-380v-140h-75v210q39 0 66.5 32t31.5 88l25 300h332v-420zM395 70v350h-188l-20 -230q-4 -44 -15 -72.5t-30 -47.5h253z" />
    <glyph glyph-name="uni0435" unicode="&#x435;" horiz-adv-x="563" 
d="M408.5 469.5q55.5 -30.5 87.5 -86t32 -126.5q0 -24 -2 -37h-407q7 -73 51.5 -116.5t115.5 -43.5q104 0 150 85h80q-30 -75 -89 -115t-141 -40q-69 0 -125.5 33.5t-88.5 91.5t-32 130t32 130t88.5 91.5t125.5 33.5q67 0 122.5 -30.5zM176.5 392q-43.5 -38 -54.5 -104h327
q-7 64 -52.5 103t-110.5 39q-66 0 -109.5 -38z" />
    <glyph glyph-name="uni0436" unicode="&#x436;" horiz-adv-x="669" 
d="M446 251l218 -251h-93l-200 231v-231h-73v231l-200 -231h-93l218 251l-201 239h88l188 -227v227h73v-227l188 227h88z" />
    <glyph glyph-name="uni0437" unicode="&#x437;" horiz-adv-x="453" 
d="M383 208.5q25 -32.5 25 -73.5q0 -42 -24.5 -75t-67 -51.5t-94.5 -18.5q-81 0 -134.5 41.5t-57.5 108.5h75q5 -36 35.5 -58t81.5 -22q47 0 77.5 21t30.5 59q0 35 -27 56.5t-84 21.5h-56v68h57q45 0 71 20t26 53q0 32 -26 51.5t-69 19.5q-47 0 -75 -21t-32 -54h-75
q8 64 58 104.5t124 40.5q47 0 87 -17.5t63 -48.5t23 -71q0 -37 -20.5 -65t-58.5 -43q42 -14 67 -46.5z" />
    <glyph glyph-name="uni0438" unicode="&#x438;" horiz-adv-x="580" 
d="M150 121l295 369h60v-490h-75v369l-295 -369h-60v490h75v-369z" />
    <glyph glyph-name="uni0439" unicode="&#x439;" horiz-adv-x="580" 
d="M150 121l295 369h60v-490h-75v369l-295 -369h-60v490h75v-369zM185 590.5q-42 38.5 -46 99.5h72q4 -38 26.5 -57.5t56.5 -19.5t56.5 19.5t26.5 57.5h72q-4 -61 -46 -99.5t-109 -38.5t-109 38.5z" />
    <glyph glyph-name="uni043A" unicode="&#x43a;" horiz-adv-x="484" 
d="M230 249l249 -249h-102l-227 230v-230h-75v490h75v-227l216 227h96z" />
    <glyph glyph-name="uni043B" unicode="&#x43b;" horiz-adv-x="553" 
d="M148 490h330v-490h-75v420h-185l-19 -250q-14 -175 -161 -175h-18v73h18q42 0 62 27t25 91z" />
    <glyph glyph-name="uni043C" unicode="&#x43c;" horiz-adv-x="710" 
d="M605 490l40 -490h-75l-22 354l-175 -354h-36l-176 357l-23 -357h-73l40 490h64l187 -381l187 381h62z" />
    <glyph glyph-name="uni043D" unicode="&#x43d;" horiz-adv-x="575" 
d="M425 285v205h75v-490h-75v215h-275v-215h-75v490h75v-205h275z" />
    <glyph glyph-name="uni043E" unicode="&#x43e;" horiz-adv-x="592" 
d="M167.5 23.5q-58.5 33.5 -93 92t-34.5 129.5t34.5 129.5t93 92t128.5 33.5t128.5 -33.5t93 -92t34.5 -129.5t-34.5 -129.5t-93 -92t-128.5 -33.5t-128.5 33.5zM385.5 84.5q40.5 24.5 64.5 66.5t24 94t-24 94t-64.5 66.5t-89.5 24.5t-89.5 -24.5t-64.5 -66.5t-24 -94
t24 -94t64.5 -66.5t89.5 -24.5t89.5 24.5z" />
    <glyph glyph-name="uni043F" unicode="&#x43f;" horiz-adv-x="568" 
d="M150 0h-75v490h418v-490h-75v420h-268v-420z" />
    <glyph glyph-name="uni0440" unicode="&#x440;" horiz-adv-x="621" 
d="M455 466.5q58 -33.5 92 -92t34 -129.5t-34 -129.5t-92 -92t-125 -33.5q-55 0 -102 23t-78 62v-275h-75v690h75v-75q31 39 78 62t102 23q67 0 125 -33.5zM414.5 84.5q40.5 24.5 64.5 66.5t24 94t-24 94t-64.5 66.5t-89.5 24.5t-90.5 -24.5t-65.5 -66.5t-24 -94t24 -94
t65.5 -66.5t90.5 -24.5t89.5 24.5z" />
    <glyph glyph-name="uni0441" unicode="&#x441;" horiz-adv-x="556" 
d="M165.5 23.5q-57.5 33.5 -91.5 92t-34 129.5t34 129.5t91.5 92t125.5 33.5q80 0 144.5 -44t90.5 -121h-80q-22 45 -64 70t-91 25q-47 0 -87 -24.5t-63 -66.5t-23 -94t23 -94t63 -66.5t87 -24.5q49 0 91 25t64 70h80q-26 -77 -90.5 -121t-144.5 -44q-68 0 -125.5 33.5z" />
    <glyph glyph-name="uni0442" unicode="&#x442;" horiz-adv-x="435" 
d="M255 0h-75v420h-170v70h415v-70h-170v-420z" />
    <glyph glyph-name="uni0443" unicode="&#x443;" horiz-adv-x="520" 
d="M267 119l163 371h80l-310 -690h-80l105 235l-215 455h84z" />
    <glyph glyph-name="uni0444" unicode="&#x444;" horiz-adv-x="691" 
d="M387 495q69 0 130 -32.5t97.5 -90t36.5 -127.5t-36.5 -127.5t-97.5 -90t-130 -32.5h-5v-195h-73v195h-5q-69 0 -130 32.5t-97.5 90t-36.5 127.5t36.5 127.5t97.5 90t130 32.5h5v225h73v-225h5zM142.5 152q24.5 -41 67 -64t94.5 -23h5v360h-5q-52 0 -94.5 -23t-67 -64
t-24.5 -93t24.5 -93zM387 65q52 0 94.5 23t67 64t24.5 93t-24.5 93t-67 64t-94.5 23h-5v-360h5z" />
    <glyph glyph-name="uni0445" unicode="&#x445;" horiz-adv-x="529" 
d="M312 257l187 -257h-93l-142 202l-145 -202h-89l186 254l-172 236h93l128 -184l132 184h90z" />
    <glyph glyph-name="uni0446" unicode="&#x446;" horiz-adv-x="580" 
d="M560 -140h-75v140h-410v490h75v-420h260v420h75v-420h75v-210z" />
    <glyph glyph-name="uni0447" unicode="&#x447;" horiz-adv-x="520" 
d="M370 490h75v-490h-75v195q-52 -25 -118 -25q-92 0 -144.5 51t-52.5 144v125h75v-125q0 -60 29 -92.5t98 -32.5q55 0 113 25v225z" />
    <glyph glyph-name="uni0448" unicode="&#x448;" horiz-adv-x="785" 
d="M710 0h-635v490h75v-420h205v420h75v-420h205v420h75v-490z" />
    <glyph glyph-name="uni0449" unicode="&#x449;" horiz-adv-x="805" 
d="M785 -140h-75v140h-635v490h75v-420h205v420h75v-420h205v420h75v-420h75v-210z" />
    <glyph glyph-name="uni044A" unicode="&#x44a;" horiz-adv-x="547" 
d="M328 320q87 0 138 -44t51 -116t-51 -116t-138 -44h-188v420h-135v70h210v-170h113zM328 70q54 0 82.5 22.5t28.5 67.5t-28.5 67.5t-82.5 22.5h-113v-180h113z" />
    <glyph glyph-name="uni044B" unicode="&#x44b;" horiz-adv-x="670" 
d="M256 320q87 0 138 -44t51 -116t-51 -116t-138 -44h-181v490h75v-170h106zM520 0v490h75v-490h-75zM256 70q54 0 82.5 22.5t28.5 67.5t-28.5 67.5t-82.5 22.5h-106v-180h106z" />
    <glyph glyph-name="uni044C" unicode="&#x44c;" horiz-adv-x="487" 
d="M268 320q87 0 138 -44t51 -116t-51 -116t-138 -44h-193v490h75v-170h118zM268 70q54 0 82.5 22.5t28.5 67.5t-28.5 67.5t-82.5 22.5h-118v-180h118z" />
    <glyph glyph-name="uni044D" unicode="&#x44d;" horiz-adv-x="566" 
d="M401.5 466.5q58.5 -33.5 91.5 -91.5t33 -130t-33.5 -130t-92 -91.5t-130.5 -33.5q-80 0 -144.5 44t-90.5 121h80q22 -45 64 -70t92 -25q66 0 115 42t59 109h-220v68h220q-10 67 -58.5 109t-114.5 42q-49 0 -91 -25t-64 -70h-80q26 77 90.5 121t144.5 44q71 0 129.5 -33.5
z" />
    <glyph glyph-name="uni044E" unicode="&#x44e;" horiz-adv-x="766" 
d="M602.5 466.5q57.5 -33.5 90.5 -92t33 -129.5t-33 -129.5t-90.5 -92t-127.5 -33.5q-64 0 -118 28.5t-88.5 78.5t-42.5 113h-76v-210h-75v490h75v-210h76q8 63 42.5 113t88.5 78.5t118 28.5q70 0 127.5 -33.5zM563.5 84.5q39.5 24.5 62 66.5t22.5 94t-22.5 94t-62 66.5
t-88.5 24.5t-88.5 -24.5t-62 -66.5t-22.5 -94t22.5 -94t62 -66.5t88.5 -24.5t88.5 24.5z" />
    <glyph glyph-name="uni044F" unicode="&#x44f;" horiz-adv-x="515" 
d="M440 490v-490h-75v182h-90l-150 -182h-90l154 185q-58 11 -94.5 52.5t-36.5 98.5q0 44 21.5 79t60 55t85.5 20h215zM365 252v168h-135q-42 0 -68 -22.5t-26 -61.5t26 -61.5t68 -22.5h135z" />
    <glyph glyph-name="uni0450" unicode="&#x450;" horiz-adv-x="563" 
d="M408.5 469.5q55.5 -30.5 87.5 -86t32 -126.5q0 -24 -2 -37h-407q7 -73 51.5 -116.5t115.5 -43.5q104 0 150 85h80q-30 -75 -89 -115t-141 -40q-69 0 -125.5 33.5t-88.5 91.5t-32 130t32 130t88.5 91.5t125.5 33.5q67 0 122.5 -30.5zM176.5 392q-43.5 -38 -54.5 -104h327
q-7 64 -52.5 103t-110.5 39q-66 0 -109.5 -38zM326 560h-76l-100 140h86z" />
    <glyph glyph-name="uni0451" unicode="&#x451;" horiz-adv-x="563" 
d="M408.5 469.5q55.5 -30.5 87.5 -86t32 -126.5q0 -24 -2 -37h-407q7 -73 51.5 -116.5t115.5 -43.5q104 0 150 85h80q-30 -75 -89 -115t-141 -40q-69 0 -125.5 33.5t-88.5 91.5t-32 130t32 130t88.5 91.5t125.5 33.5q67 0 122.5 -30.5zM176.5 392q-43.5 -38 -54.5 -104h327
q-7 64 -52.5 103t-110.5 39q-66 0 -109.5 -38zM236 584h-87v92h87v-92zM421 584h-87v92h87v-92z" />
    <glyph glyph-name="uni0452" unicode="&#x452;" horiz-adv-x="580" 
d="M414.5 441.5q45.5 -28.5 70.5 -77.5t25 -109v-310q0 -64 -41.5 -104.5t-108.5 -40.5h-50v70h45q38 0 59 21t21 59v305q0 65 -36 105t-99 40q-40 0 -73 -18.5t-52.5 -51.5t-19.5 -75v-255h-75v561h-75v65h75v94h75v-94h165v-65h-165v-166q30 37 69.5 56t85.5 19
q59 0 104.5 -28.5z" />
    <glyph glyph-name="uni0453" unicode="&#x453;" horiz-adv-x="395" 
d="M150 0h-75v490h310v-70h-235v-420zM268 560h-73l90 140h83z" />
    <glyph glyph-name="uni0454" unicode="&#x454;" horiz-adv-x="556" 
d="M382 85q42 25 64 70h80q-26 -77 -90.5 -121t-144.5 -44q-68 0 -125.5 33.5t-91.5 92t-34 129.5t34 129.5t91.5 92t125.5 33.5q80 0 144.5 -44t90.5 -121h-80q-22 45 -64 70t-91 25q-64 0 -112 -42.5t-58 -108.5h218v-68h-218q10 -66 58 -108.5t112 -42.5q49 0 91 25z" />
    <glyph glyph-name="uni0455" unicode="&#x455;" horiz-adv-x="483" 
d="M145.5 10q-43.5 20 -68.5 55t-27 80h75q3 -38 35 -61.5t86 -23.5q45 0 74.5 19t29.5 54q0 27 -16 43.5t-39.5 24.5t-66.5 18q-54 12 -86 24.5t-55 40.5t-23 76q0 39 24 71t64.5 50.5t88.5 18.5q47 0 86.5 -20t63.5 -54t25 -76h-75q-2 34 -31 57t-73 23q-40 0 -67.5 -19
t-27.5 -51q0 -24 15.5 -39t38 -23t63.5 -18q54 -12 87.5 -25.5t57.5 -42.5t24 -79q0 -64 -53 -103.5t-131 -39.5q-55 0 -98.5 20z" />
    <glyph glyph-name="uni0456" unicode="&#x456;" horiz-adv-x="225" 
d="M150 0h-75v490h75v-490zM156 584h-87v92h87v-92z" />
    <glyph glyph-name="uni0457" unicode="&#x457;" horiz-adv-x="225" 
d="M150 0h-75v490h75v-490zM89 584h-87v92h87v-92zM224 584h-87v92h87v-92z" />
    <glyph glyph-name="uni0458" unicode="&#x458;" horiz-adv-x="225" 
d="M-50 -200v70h45q38 0 59 21t21 59v540h75v-545q0 -64 -41.5 -104.5t-108.5 -40.5h-50zM156 584h-87v92h87v-92z" />
    <glyph glyph-name="uni0459" unicode="&#x459;" horiz-adv-x="775" 
d="M566 310q87 0 138 -43t51 -112t-51 -112t-138 -43h-178v420h-170l-19 -250q-14 -175 -161 -175h-18v73h18q42 0 62 27t25 91l23 304h315v-180h103zM566 70q53 0 82 22t29 63t-29 63t-82 22h-103v-170h103z" />
    <glyph glyph-name="uni045A" unicode="&#x45a;" horiz-adv-x="787" 
d="M588 300q53 0 93.5 -19.5t63 -54t22.5 -76.5t-22.5 -76.5t-63 -54t-93.5 -19.5h-188v230h-250v-230h-75v490h75v-190h250v190h75v-190h113zM588 70q46 0 73.5 21.5t27.5 58.5t-27.5 58.5t-73.5 21.5h-113v-160h113z" />
    <glyph glyph-name="uni045B" unicode="&#x45b;" horiz-adv-x="580" 
d="M414.5 441.5q45.5 -28.5 70.5 -77.5t25 -109v-255h-75v255q0 65 -36 105t-99 40q-40 0 -73 -18.5t-52.5 -51.5t-19.5 -75v-255h-75v561h-75v65h75v94h75v-94h165v-65h-165v-166q30 37 69.5 56t85.5 19q59 0 104.5 -28.5z" />
    <glyph glyph-name="uni045C" unicode="&#x45c;" horiz-adv-x="484" 
d="M230 249l249 -249h-102l-227 230v-230h-75v490h75v-227l216 227h96zM278 560h-73l90 140h83z" />
    <glyph glyph-name="uni045D" unicode="&#x45d;" horiz-adv-x="580" 
d="M150 121l295 369h60v-490h-75v369l-295 -369h-60v490h75v-369zM335 560h-76l-100 140h86z" />
    <glyph glyph-name="uni045E" unicode="&#x45e;" horiz-adv-x="520" 
d="M267 119l163 371h80l-310 -690h-80l105 235l-215 455h84zM151 590.5q-42 38.5 -46 99.5h72q4 -38 26.5 -57.5t56.5 -19.5t56.5 19.5t26.5 57.5h72q-4 -61 -46 -99.5t-109 -38.5t-109 38.5z" />
    <glyph glyph-name="uni045F" unicode="&#x45f;" horiz-adv-x="560" 
d="M317 -140h-75v140h-167v490h75v-420h260v420h75v-490h-168v-140z" />
    <glyph glyph-name="uni0490" unicode="&#x490;" horiz-adv-x="480" 
d="M175 0h-80v700h285v160h80v-235h-285v-625z" />
    <glyph glyph-name="uni0491" unicode="&#x491;" horiz-adv-x="400" 
d="M150 0h-75v490h235v145h75v-215h-235v-420z" />
    <glyph glyph-name="uni0492" unicode="&#x492;" horiz-adv-x="489" 
d="M469 700v-75h-285v-225h210v-75h-210v-325h-80v325h-89v75h89v300h365z" />
    <glyph glyph-name="uni0493" unicode="&#x493;" horiz-adv-x="430" 
d="M415 490v-70h-235v-143h172v-70h-172v-207h-75v207h-75v70h75v213h310z" />
    <glyph glyph-name="uni0496" unicode="&#x496;" horiz-adv-x="886" 
d="M539 359l230 -284h87v-245h-80v170h-47l-273 340v-340h-78v340l-273 -340h-100l290 359l-272 341h93l262 -330v330h78v-330l262 330h93z" />
    <glyph glyph-name="uni0497" unicode="&#x497;" horiz-adv-x="700" 
d="M446 251l157 -181h77v-210h-75v140h-34l-200 231v-231h-73v231l-200 -231h-93l218 251l-201 239h88l188 -227v227h73v-227l188 227h88z" />
    <glyph glyph-name="uni0498" unicode="&#x498;" horiz-adv-x="553" 
d="M450 58q-53 -55 -141 -66v-162h-80v162q-86 11 -140 65.5t-59 137.5h80q5 -59 48 -94.5t111 -35.5q67 0 109 35.5t42 94.5q0 58 -41.5 91.5t-112.5 33.5h-65v75h65q62 0 98 33.5t36 86.5t-36 86.5t-98 33.5q-63 0 -100.5 -33.5t-43.5 -81.5h-80q4 53 33 96t79 68.5
t112 25.5t111.5 -24.5t77.5 -68t28 -100.5q0 -52 -26 -90.5t-76 -61.5q58 -23 90 -67.5t32 -104.5q0 -80 -53 -135z" />
    <glyph glyph-name="uni0499" unicode="&#x499;" horiz-adv-x="453" 
d="M365 39.5q-43 -39.5 -111 -47.5v-132h-75v133q-64 11 -105 50.5t-44 96.5h75q5 -36 35.5 -58t81.5 -22q47 0 77.5 21t30.5 59q0 35 -27 56.5t-84 21.5h-56v68h57q45 0 71 20t26 53q0 32 -26 51.5t-69 19.5q-47 0 -75 -21t-32 -54h-75q8 64 58 104.5t124 40.5
q47 0 87 -17.5t63 -48.5t23 -71q0 -37 -20.5 -65t-58.5 -43q42 -14 67 -46.5t25 -73.5q0 -56 -43 -95.5z" />
    <glyph glyph-name="uni049A" unicode="&#x49a;" horiz-adv-x="633" 
d="M260 361l261 -286h82v-245h-80v170h-39l-309 339v-339h-80v700h80v-325l294 325h98z" />
    <glyph glyph-name="uni049B" unicode="&#x49b;" horiz-adv-x="506" 
d="M230 249l179 -179h77v-210h-75v140h-34l-227 230v-230h-75v490h75v-227l216 227h96z" />
    <glyph glyph-name="uni04A0" unicode="&#x4a0;" horiz-adv-x="680" 
d="M345 361l330 -361h-106l-309 339v-339h-80v625h-170v75h250v-325l294 325h98z" />
    <glyph glyph-name="uni04A1" unicode="&#x4a1;" horiz-adv-x="549" 
d="M295 249l249 -249h-102l-227 230v-230h-75v420h-135v70h210v-227l216 227h96z" />
    <glyph glyph-name="uni04A2" unicode="&#x4a2;" horiz-adv-x="745" 
d="M625 700v-625h90v-245h-80v170h-90v325h-370v-325h-80v700h80v-300h370v300h80z" />
    <glyph glyph-name="uni04A3" unicode="&#x4a3;" horiz-adv-x="595" 
d="M500 490v-420h75v-210h-75v140h-75v215h-275v-215h-75v490h75v-205h275v205h75z" />
    <glyph glyph-name="uni04AA" unicode="&#x4aa;" horiz-adv-x="776" 
d="M736 215q-38 -94 -112 -153.5t-173 -69.5v-162h-80v162q-88 10 -160.5 60t-114 128.5t-41.5 169.5q0 98 47.5 181t129.5 131t179 48q111 0 195 -60.5t126 -164.5h-85q-35 69 -96.5 109.5t-139.5 40.5q-74 0 -137 -38t-99.5 -103t-36.5 -144t36.5 -144t99.5 -103t137 -38
q81 0 143 40.5t97 109.5h85z" />
    <glyph glyph-name="uni04AB" unicode="&#x4ab;" horiz-adv-x="556" 
d="M382 85q42 25 64 70h80q-23 -68 -76.5 -110.5t-122.5 -52.5v-132h-75v133q-60 9 -108 44t-76 89.5t-28 118.5q0 71 34 129.5t91.5 92t125.5 33.5q80 0 144.5 -44t90.5 -121h-80q-22 45 -64 70t-91 25q-47 0 -87 -24.5t-63 -66.5t-23 -94t23 -94t63 -66.5t87 -24.5
q49 0 91 25z" />
    <glyph glyph-name="uni04AE" unicode="&#x4ae;" horiz-adv-x="560" 
d="M281 384l175 316h89l-225 -395v-305h-80v305l-225 395h91z" />
    <glyph glyph-name="uni04AF" unicode="&#x4af;" horiz-adv-x="511" 
d="M257 92l165 398h79l-208 -490v-200h-75v200l-208 490h81z" />
    <glyph glyph-name="uni04B0" unicode="&#x4b0;" horiz-adv-x="560" 
d="M456 700h89l-225 -395h136v-75h-136v-230h-80v230h-136v75h136l-225 395h91l175 -316z" />
    <glyph glyph-name="uni04B1" unicode="&#x4b1;" horiz-adv-x="511" 
d="M422 490h79l-208 -490h110v-70h-110v-130h-75v130h-111v70h111l-208 490h81l166 -398z" />
    <glyph glyph-name="uni04B2" unicode="&#x4b2;" horiz-adv-x="626" 
d="M339 363l171 -288h86v-245h-80v170h-51l-175 298l-176 -298h-89l216 363l-196 337h90l156 -272l155 272h89z" />
    <glyph glyph-name="uni04B3" unicode="&#x4b3;" horiz-adv-x="541" 
d="M312 257l136 -187h73v-210h-75v140h-40l-142 202l-145 -202h-89l186 254l-172 236h93l128 -184l132 184h90z" />
    <glyph glyph-name="uni04B6" unicode="&#x4b6;" horiz-adv-x="675" 
d="M555 75h90v-245h-80v170h-90v295q-32 -15 -77.5 -25t-90.5 -10q-110 0 -171 63.5t-61 181.5v195h80v-195q0 -80 39.5 -125t117.5 -45q45 0 83.5 8t79.5 27v330h80v-625z" />
    <glyph glyph-name="uni04B7" unicode="&#x4b7;" 
d="M445 70h75v-210h-75v140h-75v195q-52 -25 -118 -25q-92 0 -144.5 51t-52.5 144v125h75v-125q0 -60 29 -92.5t98 -32.5q55 0 113 25v225h75v-420z" />
    <glyph glyph-name="uni04BA" unicode="&#x4ba;" horiz-adv-x="650" 
d="M514 376.5q61 -63.5 61 -181.5v-195h-80v195q0 80 -39.5 125t-117.5 45q-45 0 -83.5 -8t-79.5 -27v-330h-80v700h80v-295q32 15 77.5 25t90.5 10q110 0 171 -63.5z" />
    <glyph glyph-name="uni04BB" unicode="&#x4bb;" horiz-adv-x="580" 
d="M414.5 471.5q45.5 -28.5 70.5 -77.5t25 -109v-285h-75v285q0 65 -36 105t-99 40q-40 0 -73 -18.5t-52.5 -51.5t-19.5 -75v-285h-75v720h75v-295q30 37 69.5 56t85.5 19q59 0 104.5 -28.5z" />
    <glyph glyph-name="uni04C0" unicode="&#x4c0;" horiz-adv-x="280" 
d="M180 0h-80v700h80v-700z" />
    <glyph glyph-name="uni04CF" unicode="&#x4cf;" horiz-adv-x="235" 
d="M155 0h-75v720h75v-720z" />
    <glyph glyph-name="uni04D0" unicode="&#x4d0;" horiz-adv-x="670" 
d="M650 0h-86l-75 190h-310l-75 -190h-84l285 700h60zM459 265l-125 316l-125 -316h250zM222.5 795.5q-43.5 38.5 -47.5 99.5h71q4 -38 28 -57.5t61 -19.5t61 19.5t28 57.5h71q-4 -61 -47.5 -99.5t-112.5 -38.5t-112.5 38.5z" />
    <glyph glyph-name="uni04D1" unicode="&#x4d1;" horiz-adv-x="621" 
d="M471 490h75v-490h-75v75q-31 -39 -78 -62t-102 -23q-67 0 -125 33.5t-92 92t-34 129.5t34 129.5t92 92t125 33.5q55 0 102 -23t78 -62v75zM387 84.5q41 24.5 65 66.5t24 94t-24 94t-65 66.5t-90 24.5t-90 -24.5t-65 -66.5t-24 -94t24 -94t65 -66.5t90 -24.5t90 24.5z
M202 590.5q-42 38.5 -46 99.5h72q4 -38 26.5 -57.5t56.5 -19.5t56.5 19.5t26.5 57.5h72q-4 -61 -46 -99.5t-109 -38.5t-109 38.5z" />
    <glyph glyph-name="uni04D6" unicode="&#x4d6;" 
d="M175 325v-250h300v-75h-380v700h370v-75h-290v-225h280v-75h-280zM170.5 795.5q-43.5 38.5 -47.5 99.5h71q4 -38 28 -57.5t61 -19.5t61 19.5t28 57.5h71q-4 -61 -47.5 -99.5t-112.5 -38.5t-112.5 38.5z" />
    <glyph glyph-name="uni04D7" unicode="&#x4d7;" horiz-adv-x="563" 
d="M408.5 469.5q55.5 -30.5 87.5 -86t32 -126.5q0 -24 -2 -37h-407q7 -73 51.5 -116.5t115.5 -43.5q104 0 150 85h80q-30 -75 -89 -115t-141 -40q-69 0 -125.5 33.5t-88.5 91.5t-32 130t32 130t88.5 91.5t125.5 33.5q67 0 122.5 -30.5zM176.5 392q-43.5 -38 -54.5 -104h327
q-7 64 -52.5 103t-110.5 39q-66 0 -109.5 -38zM176 590.5q-42 38.5 -46 99.5h72q4 -38 26.5 -57.5t56.5 -19.5t56.5 19.5t26.5 57.5h72q-4 -61 -46 -99.5t-109 -38.5t-109 38.5z" />
    <glyph glyph-name="uni04D8" unicode="&#x4d8;" horiz-adv-x="807" 
d="M576 662.5q81 -47.5 128.5 -130t47.5 -182.5t-47 -182.5t-127.5 -130t-176.5 -47.5q-98 0 -178.5 48.5t-126.5 131.5t-46 182q0 12 2 36h615q-8 71 -46 127.5t-96.5 88t-127.5 31.5q-88 0 -151 -44t-98 -118h-85q38 107 127 172t207 65q98 0 179 -47.5zM526 97
q58 32 95.5 88.5t45.5 127.5h-532q8 -71 45.5 -127.5t95.5 -88.5t125 -32t125 32z" />
    <glyph glyph-name="uni04D9" unicode="&#x4d9;" horiz-adv-x="563" 
d="M402.5 466.5q56.5 -33.5 88.5 -91.5t32 -130t-32 -130t-88.5 -91.5t-125.5 -33.5q-67 0 -122.5 30.5t-87.5 86t-32 126.5q0 24 2 37h407q-7 73 -51.5 116.5t-115.5 43.5q-104 0 -150 -85h-80q30 75 89 115t141 40q69 0 125.5 -33.5zM386.5 98q43.5 38 54.5 104h-327
q7 -64 52.5 -103t110.5 -39q66 0 109.5 38z" />
    <glyph glyph-name="uni04E2" unicode="&#x4e2;" horiz-adv-x="780" 
d="M175 147l460 553h50v-700h-80v553l-460 -553h-50v700h80v-553zM540 799h-284v66h284v-66z" />
    <glyph glyph-name="uni04E3" unicode="&#x4e3;" horiz-adv-x="580" 
d="M150 121l295 369h60v-490h-75v369l-295 -369h-60v490h75v-369zM436 594h-284v66h284v-66z" />
    <glyph glyph-name="uni04E8" unicode="&#x4e8;" horiz-adv-x="832" 
d="M598 662q83 -48 131 -131t48 -181t-48 -181t-131 -131t-182 -48t-182 48t-131 131t-48 181t48 181t131 131t182 48t182 -48zM286 602.5q-60 -32.5 -98.5 -89t-47.5 -126.5h552q-9 70 -47.5 126.5t-98.5 89t-130 32.5t-130 -32.5zM546 97.5q60 32.5 98.5 89t47.5 126.5
h-552q9 -70 47.5 -126.5t98.5 -89t130 -32.5t130 32.5z" />
    <glyph glyph-name="uni04E9" unicode="&#x4e9;" horiz-adv-x="592" 
d="M424.5 466.5q58.5 -33.5 93 -92t34.5 -129.5t-34.5 -129.5t-93 -92t-128.5 -33.5t-128.5 33.5t-93 92t-34.5 129.5t34.5 129.5t93 92t128.5 33.5t128.5 -33.5zM181 387.5q-49 -42.5 -60 -108.5h350q-11 66 -60 108.5t-115 42.5t-115 -42.5zM411 102.5q49 42.5 60 108.5
h-350q11 -66 60 -108.5t115 -42.5t115 42.5z" />
    <glyph glyph-name="uni04EE" unicode="&#x4ee;" horiz-adv-x="602" 
d="M307 293l186 407h84l-320 -700h-84l93 203l-246 497h89zM444 799h-284v66h284v-66z" />
    <glyph glyph-name="uni04EF" unicode="&#x4ef;" horiz-adv-x="520" 
d="M267 119l163 371h80l-310 -690h-80l105 235l-215 455h84zM402 594h-284v66h284v-66z" />
    <glyph glyph-name="uni04F2" unicode="&#x4f2;" horiz-adv-x="602" 
d="M307 293l186 407h84l-320 -700h-84l93 203l-246 497h89zM264 765h-74l90 140h84zM400 765h-73l94 140h83z" />
    <glyph glyph-name="uni04F3" unicode="&#x4f3;" horiz-adv-x="520" 
d="M267 119l163 371h80l-310 -690h-80l105 235l-215 455h84zM219 560h-74l90 140h84zM355 560h-73l94 140h83z" />
    <glyph glyph-name="uni1E24" unicode="&#x1e24;" horiz-adv-x="720" 
d="M545 400v300h80v-700h-80v325h-370v-325h-80v700h80v-300h370zM403 -172h-87v92h87v-92z" />
    <glyph glyph-name="uni1E25" unicode="&#x1e25;" horiz-adv-x="580" 
d="M414.5 471.5q45.5 -28.5 70.5 -77.5t25 -109v-285h-75v285q0 65 -36 105t-99 40q-40 0 -73 -18.5t-52.5 -51.5t-19.5 -75v-285h-75v720h75v-295q30 37 69.5 56t85.5 19q59 0 104.5 -28.5zM338 -172h-87v92h87v-92z" />
    <glyph glyph-name="uni1E26" unicode="&#x1e26;" horiz-adv-x="720" 
d="M545 400v300h80v-700h-80v325h-370v-325h-80v700h80v-300h370zM311 789h-87v92h87v-92zM496 789h-87v92h87v-92z" />
    <glyph glyph-name="uni1E27" unicode="&#x1e27;" horiz-adv-x="580" 
d="M414.5 471.5q45.5 -28.5 70.5 -77.5t25 -109v-285h-75v285q0 65 -36 105t-99 40q-40 0 -73 -18.5t-52.5 -51.5t-19.5 -75v-285h-75v720h75v-295q30 37 69.5 56t85.5 19q59 0 104.5 -28.5zM246 809h-87v92h87v-92zM431 809h-87v92h87v-92z" />
    <glyph glyph-name="uni1E30" unicode="&#x1e30;" horiz-adv-x="595" 
d="M260 361l330 -361h-106l-309 339v-339h-80v700h80v-325l294 325h98zM321 765h-73l90 140h83z" />
    <glyph glyph-name="uni1E31" unicode="&#x1e31;" horiz-adv-x="489" 
d="M235 253l249 -253h-102l-227 234v-234h-75v720h75v-453l216 223h96zM296 785h-73l90 140h83z" />
    <glyph glyph-name="uni1E36" unicode="&#x1e36;" horiz-adv-x="480" 
d="M445 0h-350v700h80v-625h270v-75zM313 -172h-87v92h87v-92z" />
    <glyph glyph-name="uni1E37" unicode="&#x1e37;" horiz-adv-x="235" 
d="M155 0h-75v720h75v-720zM161 -172h-87v92h87v-92z" />
    <glyph glyph-name="uni1E3E" unicode="&#x1e3e;" horiz-adv-x="910" 
d="M760 700l85 -700h-80l-60 516l-230 -516h-40l-232 519l-60 -519h-78l85 700h56l250 -561l250 561h54zM478 765h-73l90 140h83z" />
    <glyph glyph-name="uni1E3F" unicode="&#x1e3f;" horiz-adv-x="870" 
d="M711 472.5q42 -27.5 65.5 -75t23.5 -107.5v-290h-75v290q0 61 -32.5 100.5t-87.5 39.5q-35 0 -64.5 -18.5t-47.5 -50.5t-18 -71v-290h-75v290q0 61 -32.5 100.5t-87.5 39.5q-35 0 -64.5 -18.5t-47.5 -50.5t-18 -71v-290h-75v490h75v-65q26 37 62 56t78 19
q51 0 94.5 -27.5t65.5 -72.5q26 48 69 74t96 26q54 0 96 -27.5zM458 560h-73l90 140h83z" />
    <glyph glyph-name="uni1E54" unicode="&#x1e54;" horiz-adv-x="562" 
d="M300 700q67 0 118.5 -26t80 -71.5t28.5 -102.5t-28.5 -102.5t-80 -71.5t-118.5 -26h-125v-300h-80v700h205zM300 375q66 0 105 34t39 91t-39 91t-105 34h-125v-250h125zM309 765h-73l90 140h83z" />
    <glyph glyph-name="uni1E55" unicode="&#x1e55;" horiz-adv-x="621" 
d="M455 466.5q58 -33.5 92 -92t34 -129.5t-34 -129.5t-92 -92t-125 -33.5q-55 0 -102 23t-78 62v-275h-75v690h75v-75q31 39 78 62t102 23q67 0 125 -33.5zM414.5 84.5q40.5 24.5 64.5 66.5t24 94t-24 94t-64.5 66.5t-89.5 24.5t-90.5 -24.5t-65.5 -66.5t-24 -94t24 -94
t65.5 -66.5t90.5 -24.5t89.5 24.5zM333 560h-73l90 140h83z" />
    <glyph glyph-name="Wgrave" unicode="&#x1e80;" horiz-adv-x="980" 
d="M696 152l176 548h83l-235 -700h-51l-180 546l-180 -546h-49l-235 700h85l175 -545l180 545h50zM532 765h-76l-100 140h86z" />
    <glyph glyph-name="wgrave" unicode="&#x1e81;" horiz-adv-x="800" 
d="M571 117l141 373h78l-195 -490h-51l-145 364l-145 -364h-49l-195 490h80l140 -370l145 370h50zM441 560h-76l-100 140h86z" />
    <glyph glyph-name="Wacute" unicode="&#x1e82;" horiz-adv-x="980" 
d="M696 152l176 548h83l-235 -700h-51l-180 546l-180 -546h-49l-235 700h85l175 -545l180 545h50zM513 765h-73l90 140h83z" />
    <glyph glyph-name="wacute" unicode="&#x1e83;" horiz-adv-x="800" 
d="M571 117l141 373h78l-195 -490h-51l-145 364l-145 -364h-49l-195 490h80l140 -370l145 370h50zM423 560h-73l90 140h83z" />
    <glyph glyph-name="Wdieresis" unicode="&#x1e84;" horiz-adv-x="980" 
d="M696 152l176 548h83l-235 -700h-51l-180 546l-180 -546h-49l-235 700h85l175 -545l180 545h50zM441 789h-87v92h87v-92zM626 789h-87v92h87v-92z" />
    <glyph glyph-name="wdieresis" unicode="&#x1e85;" horiz-adv-x="800" 
d="M571 117l141 373h78l-195 -490h-51l-145 364l-145 -364h-49l-195 490h80l140 -370l145 370h50zM351 584h-87v92h87v-92zM536 584h-87v92h87v-92z" />
    <glyph glyph-name="uni1E8C" unicode="&#x1e8c;" horiz-adv-x="580" 
d="M339 363l216 -363h-90l-175 298l-176 -298h-89l216 363l-196 337h90l156 -272l155 272h89zM241 789h-87v92h87v-92zM426 789h-87v92h87v-92z" />
    <glyph glyph-name="uni1E8D" unicode="&#x1e8d;" horiz-adv-x="529" 
d="M312 257l187 -257h-93l-142 202l-145 -202h-89l186 254l-172 236h93l128 -184l132 184h90zM218 584h-87v92h87v-92zM403 584h-87v92h87v-92z" />
    <glyph glyph-name="uni1E9E" unicode="&#x1e9e;" horiz-adv-x="670" 
d="M422 418q58 -4 104.5 -33.5t72.5 -75.5t26 -99q0 -57 -29.5 -105t-82 -76.5t-118.5 -28.5h-75v75h72q44 0 78 18t53 49t19 68t-19 68t-53 49t-78 18h-72v55l150 225h-155q-60 0 -100 -41t-40 -104v-480h-80v480q0 62 29 112t79 79t112 29h255v-60z" />
    <glyph glyph-name="uni1EBC" unicode="&#x1ebc;" 
d="M175 325v-250h300v-75h-380v700h370v-75h-290v-225h280v-75h-280zM130 795q0 43 22 69t61 26q21 0 40.5 -9t43.5 -25q13 -8 25 -14.5t21 -6.5q17 0 24.5 11.5t7.5 34.5v9h60v-20q0 -43 -22 -69t-61 -26q-21 0 -40.5 9t-43.5 25q-13 8 -25 14.5t-21 6.5q-17 0 -24.5 -11.5
t-7.5 -34.5v-9h-60v20z" />
    <glyph glyph-name="uni1EBD" unicode="&#x1ebd;" horiz-adv-x="563" 
d="M408.5 469.5q55.5 -30.5 87.5 -86t32 -126.5q0 -24 -2 -37h-407q7 -73 51.5 -116.5t115.5 -43.5q104 0 150 85h80q-30 -75 -89 -115t-141 -40q-69 0 -125.5 33.5t-88.5 91.5t-32 130t32 130t88.5 91.5t125.5 33.5q67 0 122.5 -30.5zM176.5 392q-43.5 -38 -54.5 -104h327
q-7 64 -52.5 103t-110.5 39q-66 0 -109.5 -38zM132 590q0 43 22 69t61 26q21 0 40.5 -9t43.5 -25q13 -8 25 -14.5t21 -6.5q17 0 24.5 11.5t7.5 34.5v9h60v-20q0 -43 -22 -69t-61 -26q-21 0 -40.5 9t-43.5 25q-13 8 -25 14.5t-21 6.5q-17 0 -24.5 -11.5t-7.5 -34.5v-9h-60v20
z" />
    <glyph glyph-name="Ygrave" unicode="&#x1ef2;" horiz-adv-x="560" 
d="M281 384l175 316h89l-225 -395v-305h-80v305l-225 395h91zM322 765h-76l-100 140h86z" />
    <glyph glyph-name="ygrave" unicode="&#x1ef3;" horiz-adv-x="520" 
d="M267 119l163 371h80l-310 -690h-80l105 235l-215 455h84zM301 560h-76l-100 140h86z" />
    <glyph glyph-name="uni1EF8" unicode="&#x1ef8;" horiz-adv-x="560" 
d="M281 384l175 316h89l-225 -395v-305h-80v305l-225 395h91zM127 795q0 43 22 69t61 26q21 0 40.5 -9t43.5 -25q13 -8 25 -14.5t21 -6.5q17 0 24.5 11.5t7.5 34.5v9h60v-20q0 -43 -22 -69t-61 -26q-21 0 -40.5 9t-43.5 25q-13 8 -25 14.5t-21 6.5q-17 0 -24.5 -11.5
t-7.5 -34.5v-9h-60v20z" />
    <glyph glyph-name="uni1EF9" unicode="&#x1ef9;" horiz-adv-x="520" 
d="M267 119l163 371h80l-310 -690h-80l105 235l-215 455h84zM107 590q0 43 22 69t61 26q21 0 40.5 -9t43.5 -25q13 -8 25 -14.5t21 -6.5q17 0 24.5 11.5t7.5 34.5v9h60v-20q0 -43 -22 -69t-61 -26q-21 0 -40.5 9t-43.5 25q-13 8 -25 14.5t-21 6.5q-17 0 -24.5 -11.5
t-7.5 -34.5v-9h-60v20z" />
    <glyph glyph-name="endash" unicode="&#x2013;" horiz-adv-x="600" 
d="M550 223h-500v65h500v-65z" />
    <glyph glyph-name="emdash" unicode="&#x2014;" horiz-adv-x="1000" 
d="M950 223h-900v65h900v-65z" />
    <glyph glyph-name="quoteleft" unicode="&#x2018;" horiz-adv-x="215" 
d="M125 470h-90l75 230h70z" />
    <glyph glyph-name="quoteright" unicode="&#x2019;" horiz-adv-x="215" 
d="M105 470h-70l55 230h90z" />
    <glyph glyph-name="quotesinglbase" unicode="&#x201a;" horiz-adv-x="215" 
d="M105 -133h-70l55 230h90z" />
    <glyph glyph-name="quotedblleft" unicode="&#x201c;" horiz-adv-x="385" 
d="M125 470h-90l75 230h70zM295 470h-90l75 230h70z" />
    <glyph glyph-name="quotedblright" unicode="&#x201d;" horiz-adv-x="385" 
d="M105 470h-70l55 230h90zM275 470h-70l55 230h90z" />
    <glyph glyph-name="quotedblbase" unicode="&#x201e;" horiz-adv-x="385" 
d="M105 -133h-70l55 230h90zM275 -133h-70l55 230h90z" />
    <glyph glyph-name="dagger" unicode="&#x2020;" horiz-adv-x="445" 
d="M260 530h135v-70h-135v-460h-75v460h-135v70h135v170h75v-170z" />
    <glyph glyph-name="daggerdbl" unicode="&#x2021;" horiz-adv-x="445" 
d="M395 530v-70h-135v-220h135v-70h-135v-170h-75v170h-135v70h135v220h-135v70h135v170h75v-170h135z" />
    <glyph glyph-name="bullet" unicode="&#x2022;" horiz-adv-x="381" 
d="M127 191q-27 27 -27 64t27 63.5t64 26.5t63.5 -26.5t26.5 -63.5t-26.5 -64t-63.5 -27t-64 27z" />
    <glyph glyph-name="ellipsis" unicode="&#x2026;" horiz-adv-x="737" 
d="M164 0h-89v97h89v-97zM413 0h-89v97h89v-97zM662 0h-89v97h89v-97z" />
    <glyph glyph-name="perthousand" unicode="&#x2030;" horiz-adv-x="1217" 
d="M131 393q-40 23 -63 62t-23 85t23 85t63 62t87 23t87 -23t63 -62t23 -85t-23 -85t-63 -62t-87 -23t-87 23zM217 0h-83l480 700h83zM292.5 462.5q29.5 30.5 29.5 77.5t-29.5 77.5t-74.5 30.5t-74.5 -30.5t-29.5 -77.5t29.5 -77.5t74.5 -30.5t74.5 30.5zM526 13
q-40 23 -63 62t-23 85t23 85t63 62t87 23t87 -23t63 -62t23 -85t-23 -85t-63 -62t-87 -23t-87 23zM912 13q-40 23 -63 62t-23 85t23 85t63 62t87 23t87 -23t63 -62t23 -85t-23 -85t-63 -62t-87 -23t-87 23zM687.5 82.5q29.5 30.5 29.5 77.5t-29.5 77.5t-74.5 30.5
t-74.5 -30.5t-29.5 -77.5t29.5 -77.5t74.5 -30.5t74.5 30.5zM1073.5 82.5q29.5 30.5 29.5 77.5t-29.5 77.5t-74.5 30.5t-74.5 -30.5t-29.5 -77.5t29.5 -77.5t74.5 -30.5t74.5 30.5z" />
    <glyph glyph-name="guilsinglleft" unicode="&#x2039;" horiz-adv-x="305" 
d="M255 75h-85l-145 180l145 180h85l-145 -180z" />
    <glyph glyph-name="guilsinglright" unicode="&#x203a;" horiz-adv-x="305" 
d="M135 75h-85l145 180l-145 180h85l145 -180z" />
    <glyph glyph-name="fraction" unicode="&#x2044;" horiz-adv-x="143" 
d="M-127 0h-83l480 700h83z" />
    <glyph glyph-name="uni2070" unicode="&#x2070;" horiz-adv-x="348" 
d="M74.5 532q-39.5 49 -39.5 132t39.5 132t99.5 49t99.5 -49t39.5 -132t-39.5 -132t-99.5 -49t-99.5 49zM227 575q21 33 21 89t-21 89t-53 33t-53 -33t-21 -89t21 -89t53 -33t53 33z" />
    <glyph glyph-name="uni2074" unicode="&#x2074;" horiz-adv-x="310" 
d="M239 616h51v-53h-51v-75h-62v75h-167v44l169 233h60v-224zM177 753l-98 -137h98v137z" />
    <glyph glyph-name="uni2075" unicode="&#x2075;" horiz-adv-x="318" 
d="M248 690.5q35 -34.5 35 -86.5t-35.5 -86.5t-93.5 -34.5q-53 0 -89 29t-40 74h67q3 -18 20.5 -31.5t40.5 -13.5q28 0 45.5 18t17.5 45t-17.5 45t-45.5 18q-33 0 -52 -23l-55 22l43 174h180v-58h-136l-15 -64q18 7 40 7q55 0 90 -34.5z" />
    <glyph glyph-name="uni2076" unicode="&#x2076;" horiz-adv-x="333" 
d="M262 691.5q36 -35.5 36 -86.5q0 -52 -37 -87t-95 -35q-57 0 -94 35t-37 87q0 24 8 44t24 46l94 145h73l-75 -114q4 1 14 1q53 0 89 -35.5zM212.5 560q18.5 19 18.5 45q0 27 -18 46t-47 19q-28 0 -46 -19t-18 -46q0 -26 18 -45t46 -19t46.5 19z" />
    <glyph glyph-name="uni2077" unicode="&#x2077;" horiz-adv-x="278" 
d="M25 782v58h243v-41l-145 -311h-71l137 294h-164z" />
    <glyph glyph-name="uni2078" unicode="&#x2078;" horiz-adv-x="324" 
d="M273 644q16 -23 16 -56q0 -44 -34 -74.5t-93 -30.5t-93 30.5t-34 74.5q0 33 16 56t44 35q-21 10 -34.5 30t-13.5 44q0 40 33 66t82 26t82 -26t33 -66q0 -24 -13.5 -44t-34.5 -30q28 -12 44 -35zM125 778q-14 -13 -14 -32t14 -32.5t37 -13.5t37 13.5t14 32.5t-14 32
t-37 13t-37 -13zM205.5 552.5q16.5 15.5 16.5 38.5t-16.5 39t-43.5 16t-43.5 -16t-16.5 -39t16.5 -38.5t43.5 -15.5t43.5 15.5z" />
    <glyph glyph-name="uni2079" unicode="&#x2079;" horiz-adv-x="333" 
d="M261 810q37 -35 37 -87q0 -24 -8 -44t-24 -46l-94 -145h-73l75 114q-4 -1 -14 -1q-53 0 -89 35.5t-36 86.5q0 52 37 87t95 35q57 0 94 -35zM213 677q18 19 18 46q0 26 -18 45t-46 19t-46.5 -19t-18.5 -45q0 -27 18 -46t47 -19q28 0 46 19z" />
    <glyph glyph-name="uni2080" unicode="&#x2080;" horiz-adv-x="348" 
d="M74.5 -96q-39.5 49 -39.5 132t39.5 132t99.5 49t99.5 -49t39.5 -132t-39.5 -132t-99.5 -49t-99.5 49zM227 -53q21 33 21 89t-21 89t-53 33t-53 -33t-21 -89t21 -89t53 -33t53 33z" />
    <glyph glyph-name="uni2081" unicode="&#x2081;" horiz-adv-x="245" 
d="M30 171l89 41h61v-352h-63v288l-87 -37v60z" />
    <glyph glyph-name="uni2082" unicode="&#x2082;" horiz-adv-x="311" 
d="M136 -82h150v-58h-249v42l135 139q22 22 30.5 38t8.5 34q0 20 -15 33t-37 13q-27 0 -42.5 -15.5t-16.5 -41.5h-65q1 57 36 86t88 29q51 0 85 -27.5t34 -73.5q0 -30 -13.5 -54t-43.5 -56z" />
    <glyph glyph-name="uni2083" unicode="&#x2083;" horiz-adv-x="322" 
d="M271 10.5q16 -22.5 16 -51.5q0 -46 -33.5 -75t-92.5 -29q-58 0 -94 31t-37 86h68q1 -26 17.5 -42.5t45.5 -16.5q27 0 43 14.5t16 37.5q0 24 -17 37.5t-45 13.5h-30v49h28q24 0 39.5 14t15.5 37q0 19 -15 31.5t-38 12.5q-26 0 -40.5 -15.5t-15.5 -37.5h-65q1 52 36.5 81
t85.5 29q51 0 84.5 -27t33.5 -70q0 -27 -13.5 -46.5t-36.5 -29.5q28 -11 44 -33.5z" />
    <glyph glyph-name="uni2084" unicode="&#x2084;" horiz-adv-x="310" 
d="M239 -12h51v-53h-51v-75h-62v75h-167v44l169 233h60v-224zM177 125l-98 -137h98v137z" />
    <glyph glyph-name="uni2085" unicode="&#x2085;" horiz-adv-x="318" 
d="M248 62.5q35 -34.5 35 -86.5t-35.5 -86.5t-93.5 -34.5q-53 0 -89 29t-40 74h67q3 -18 20.5 -31.5t40.5 -13.5q28 0 45.5 18t17.5 45t-17.5 45t-45.5 18q-33 0 -52 -23l-55 22l43 174h180v-58h-136l-15 -64q18 7 40 7q55 0 90 -34.5z" />
    <glyph glyph-name="uni2086" unicode="&#x2086;" horiz-adv-x="333" 
d="M262 63.5q36 -35.5 36 -86.5q0 -52 -37 -87t-95 -35q-57 0 -94 35t-37 87q0 24 8 44t24 46l94 145h73l-75 -114q4 1 14 1q53 0 89 -35.5zM212.5 -68q18.5 19 18.5 45q0 27 -18 46t-47 19q-28 0 -46 -19t-18 -46q0 -26 18 -45t46 -19t46.5 19z" />
    <glyph glyph-name="uni2087" unicode="&#x2087;" horiz-adv-x="278" 
d="M25 154v58h243v-41l-145 -311h-71l137 294h-164z" />
    <glyph glyph-name="uni2088" unicode="&#x2088;" horiz-adv-x="324" 
d="M273 16q16 -23 16 -56q0 -44 -34 -74.5t-93 -30.5t-93 30.5t-34 74.5q0 33 16 56t44 35q-21 10 -34.5 30t-13.5 44q0 40 33 66t82 26t82 -26t33 -66q0 -24 -13.5 -44t-34.5 -30q28 -12 44 -35zM125 150q-14 -13 -14 -32t14 -32.5t37 -13.5t37 13.5t14 32.5t-14 32t-37 13
t-37 -13zM205.5 -75.5q16.5 15.5 16.5 38.5t-16.5 39t-43.5 16t-43.5 -16t-16.5 -39t16.5 -38.5t43.5 -15.5t43.5 15.5z" />
    <glyph glyph-name="uni2089" unicode="&#x2089;" horiz-adv-x="333" 
d="M261 182q37 -35 37 -87q0 -24 -8 -44t-24 -46l-94 -145h-73l75 114q-4 -1 -14 -1q-53 0 -89 35.5t-36 86.5q0 52 37 87t95 35q57 0 94 -35zM213 49q18 19 18 46q0 26 -18 45t-46 19t-46.5 -19t-18.5 -45q0 -27 18 -46t47 -19q28 0 46 19z" />
    <glyph glyph-name="uni20A9" unicode="&#x20a9;" horiz-adv-x="960" 
d="M925 471v-70h-128l-26 -90h154v-70h-175l-71 -241h-49l-151 538l-151 -538h-47l-71 241h-175v70h154l-26 90h-128v70h107l-67 229h83l147 -533l150 533h50l151 -536l148 536h81l-67 -229h107z" />
    <glyph glyph-name="Euro" unicode="&#x20ac;" horiz-adv-x="705" 
d="M300 585q-69 -50 -99 -130h419l-25 -70h-411q-2 -22 -2 -35q0 -29 4 -50h379l-25 -70h-333q33 -74 100 -119.5t148 -45.5q65 0 111.5 15.5t88.5 49.5v-85q-44 -29 -92.5 -42t-107.5 -13q-77 0 -145 30.5t-117.5 85t-73.5 124.5h-114l25 70h72q-3 24 -3 50q0 11 2 35h-96
l25 70h84q22 74 72 132t119.5 90.5t149.5 32.5q59 0 107.5 -13t92.5 -42v-85q-42 34 -88.5 49.5t-111.5 15.5q-86 0 -155 -50z" />
    <glyph glyph-name="uni20AE" unicode="&#x20ae;" horiz-adv-x="490" 
d="M465 700v-75h-180v-160l117 51v-78l-117 -51v-80l117 51v-78l-117 -51v-229h-80v193l-117 -51v78l117 51v80l-117 -51v78l117 51v196h-180v75h440z" />
    <glyph glyph-name="uni20B4" unicode="&#x20b4;" horiz-adv-x="619" 
d="M569 456v-70h-524v70h376q21 29 21 69q0 54 -37 82t-94 28q-59 0 -97.5 -30.5t-40.5 -79.5h-80q1 52 30 94t77.5 66.5t107.5 24.5q63 0 112.5 -23.5t77 -63.5t27.5 -88q0 -43 -19 -79h63zM45 244v70h524v-70h-376q-21 -29 -21 -69q0 -54 37 -82t94 -28q59 0 97.5 30.5
t40.5 79.5h80q-1 -52 -30 -94t-77.5 -66.5t-107.5 -24.5q-63 0 -112.5 23.5t-77 63.5t-27.5 88q0 43 19 79h-63z" />
    <glyph glyph-name="uni20B8" unicode="&#x20b8;" horiz-adv-x="500" 
d="M470 625h-440v75h440v-75zM290 0h-80v475h-180v75h440v-75h-180v-475z" />
    <glyph glyph-name="uni20B9" unicode="&#x20b9;" horiz-adv-x="546" 
d="M511 700v-75h-134q18 -14 32 -38.5t20 -56.5h82v-75h-82q-10 -63 -53 -106t-109 -58l243 -291h-100l-236 285h-124v75h155q55 0 92 25t48 70h-295v75h295q-11 45 -47.5 70t-92.5 25h-155v75h461z" />
    <glyph glyph-name="uni20BA" unicode="&#x20ba;" horiz-adv-x="565" 
d="M550 330q-5 -91 -51 -166.5t-125 -119.5t-179 -44h-80v250l-95 -35v73l95 35v89l-95 -35v73l95 35v215h80v-185l200 75v-73l-200 -75v-89l200 75v-73l-200 -75v-205q75 1 135 33.5t96.5 89.5t43.5 132h80z" />
    <glyph glyph-name="uni20BD" unicode="&#x20bd;" horiz-adv-x="577" 
d="M190 300v-85h215v-75h-215v-140h-80v140h-90v75h90v85h-90v75h90v325h205q67 0 118.5 -26t80 -71.5t28.5 -102.5t-28.5 -102.5t-80 -71.5t-118.5 -26h-125zM190 625v-250h125q66 0 105 34t39 91t-39 91t-105 34h-125z" />
    <glyph glyph-name="uni20BF" unicode="&#x20bf;" horiz-adv-x="577" 
d="M493 94q-34 -49 -93 -73v-126h-70v107q-26 -2 -40 -2h-50v-105h-70v105h-75v700h75v105h70v-105h40q29 0 50 -4v109h70v-131q46 -23 71.5 -64.5t25.5 -94.5q0 -45 -26.5 -83t-66.5 -57q55 -19 89 -64.5t34 -105.5q0 -62 -34 -111zM378 594q-36 31 -98 31h-105v-220h105
q62 0 98 31t36 79t-36 79zM290 75q69 0 111.5 37.5t42.5 92.5t-42.5 92.5t-111.5 37.5h-115v-260h115z" />
    <glyph glyph-name="som" unicode="&#x20c0;" horiz-adv-x="566" 
d="M168.5 234.5q-57.5 34.5 -90.5 93t-33 127.5t33 127.5t90.5 93t127.5 34.5q81 0 145.5 -44.5t89.5 -120.5h-80q-22 44 -64 69.5t-91 25.5q-50 0 -89.5 -25.5t-61.5 -68t-22 -91.5t22 -91.5t61.5 -68t89.5 -25.5t91.5 25.5t63.5 69.5h80q-25 -76 -89.5 -120.5
t-145.5 -44.5q-70 0 -127.5 34.5zM525 0h-460v70h460v-70z" />
    <glyph glyph-name="uni2116" unicode="&#x2116;" horiz-adv-x="1115" 
d="M145 700l462 -552v552h78v-700h-50l-462 552v-552h-78v700h50zM851.5 185q-34.5 20 -54 53.5t-19.5 74.5t19.5 74.5t54 53.5t77.5 20t77.5 -20t54 -53.5t19.5 -74.5t-19.5 -74.5t-54 -53.5t-77.5 -20t-77.5 20zM871 372q-23 -23 -23 -59t23 -59t58 -23t58 23t23 59
t-23 59t-58 23t-58 -23zM1059 0h-260v75h260v-75z" />
    <glyph glyph-name="trademark" unicode="&#x2122;" horiz-adv-x="744" 
d="M120 645h-95v55h250v-55h-95v-267h-60v267zM633 700l41 -322h-56l-26 205l-93 -205h-17l-95 209l-26 -209h-55l41 322h46l98 -215l97 215h45z" />
    <glyph glyph-name="uni2150" unicode="&#x2150;" horiz-adv-x="686" 
d="M30 659l89 41h61v-352h-63v288l-87 -37v60zM118 0h-83l480 700h83zM433 294v58h243v-41l-145 -311h-71l137 294h-164z" />
    <glyph glyph-name="uni2151" unicode="&#x2151;" horiz-adv-x="721" 
d="M30 659l89 41h61v-352h-63v288l-87 -37v60zM118 0h-83l480 700h83zM649 322q37 -35 37 -87q0 -24 -8 -44t-24 -46l-94 -145h-73l75 114q-4 -1 -14 -1q-53 0 -89 35.5t-36 86.5q0 52 37 87t95 35q57 0 94 -35zM601 189q18 19 18 46q0 26 -18 45t-46 19t-46.5 -19
t-18.5 -45q0 -27 18 -46t47 -19q28 0 46 19z" />
    <glyph glyph-name="uni2152" unicode="&#x2152;" horiz-adv-x="981" 
d="M30 659l89 41h61v-352h-63v288l-87 -37v60zM118 0h-83l480 700h83zM418 311l89 41h61v-352h-63v288l-87 -37v60zM707.5 44q-39.5 49 -39.5 132t39.5 132t99.5 49t99.5 -49t39.5 -132t-39.5 -132t-99.5 -49t-99.5 49zM860 87q21 33 21 89t-21 89t-53 33t-53 -33t-21 -89
t21 -89t53 -33t53 33z" />
    <glyph glyph-name="uni2153" unicode="&#x2153;" horiz-adv-x="710" 
d="M30 659l89 41h61v-352h-63v288l-87 -37v60zM118 0h-83l480 700h83zM659 150.5q16 -22.5 16 -51.5q0 -46 -33.5 -75t-92.5 -29q-58 0 -94 31t-37 86h68q1 -26 17.5 -42.5t45.5 -16.5q27 0 43 14.5t16 37.5q0 24 -17 37.5t-45 13.5h-30v49h28q24 0 39.5 14t15.5 37
q0 19 -15 31.5t-38 12.5q-26 0 -40.5 -15.5t-15.5 -37.5h-65q1 52 36.5 81t85.5 29q51 0 84.5 -27t33.5 -70q0 -27 -13.5 -46.5t-36.5 -29.5q28 -11 44 -33.5z" />
    <glyph glyph-name="uni2154" unicode="&#x2154;" horiz-adv-x="776" 
d="M136 406h150v-58h-249v42l135 139q22 22 30.5 38t8.5 34q0 20 -15 33t-37 13q-27 0 -42.5 -15.5t-16.5 -41.5h-65q1 57 36 86t88 29q51 0 85 -27.5t34 -73.5q0 -30 -13.5 -54t-43.5 -56zM184 0h-83l480 700h83zM725 150.5q16 -22.5 16 -51.5q0 -46 -33.5 -75t-92.5 -29
q-58 0 -94 31t-37 86h68q1 -26 17.5 -42.5t45.5 -16.5q27 0 43 14.5t16 37.5q0 24 -17 37.5t-45 13.5h-30v49h28q24 0 39.5 14t15.5 37q0 19 -15 31.5t-38 12.5q-26 0 -40.5 -15.5t-15.5 -37.5h-65q1 52 36.5 81t85.5 29q51 0 84.5 -27t33.5 -70q0 -27 -13.5 -46.5
t-36.5 -29.5q28 -11 44 -33.5z" />
    <glyph glyph-name="uni2155" unicode="&#x2155;" horiz-adv-x="696" 
d="M30 659l89 41h61v-352h-63v288l-87 -37v60zM118 0h-83l480 700h83zM626 202.5q35 -34.5 35 -86.5t-35.5 -86.5t-93.5 -34.5q-53 0 -89 29t-40 74h67q3 -18 20.5 -31.5t40.5 -13.5q28 0 45.5 18t17.5 45t-17.5 45t-45.5 18q-33 0 -52 -23l-55 22l43 174h180v-58h-136
l-15 -64q18 7 40 7q55 0 90 -34.5z" />
    <glyph glyph-name="uni2156" unicode="&#x2156;" horiz-adv-x="762" 
d="M136 406h150v-58h-249v42l135 139q22 22 30.5 38t8.5 34q0 20 -15 33t-37 13q-27 0 -42.5 -15.5t-16.5 -41.5h-65q1 57 36 86t88 29q51 0 85 -27.5t34 -73.5q0 -30 -13.5 -54t-43.5 -56zM184 0h-83l480 700h83zM692 202.5q35 -34.5 35 -86.5t-35.5 -86.5t-93.5 -34.5
q-53 0 -89 29t-40 74h67q3 -18 20.5 -31.5t40.5 -13.5q28 0 45.5 18t17.5 45t-17.5 45t-45.5 18q-33 0 -52 -23l-55 22l43 174h180v-58h-136l-15 -64q18 7 40 7q55 0 90 -34.5z" />
    <glyph glyph-name="uni2157" unicode="&#x2157;" horiz-adv-x="773" 
d="M271 498.5q16 -22.5 16 -51.5q0 -46 -33.5 -75t-92.5 -29q-58 0 -94 31t-37 86h68q1 -26 17.5 -42.5t45.5 -16.5q27 0 43 14.5t16 37.5q0 24 -17 37.5t-45 13.5h-30v49h28q24 0 39.5 14t15.5 37q0 19 -15 31.5t-38 12.5q-26 0 -40.5 -15.5t-15.5 -37.5h-65q1 52 36.5 81
t85.5 29q51 0 84.5 -27t33.5 -70q0 -27 -13.5 -46.5t-36.5 -29.5q28 -11 44 -33.5zM195 0h-83l480 700h83zM703 202.5q35 -34.5 35 -86.5t-35.5 -86.5t-93.5 -34.5q-53 0 -89 29t-40 74h67q3 -18 20.5 -31.5t40.5 -13.5q28 0 45.5 18t17.5 45t-17.5 45t-45.5 18
q-33 0 -52 -23l-55 22l43 174h180v-58h-136l-15 -64q18 7 40 7q55 0 90 -34.5z" />
    <glyph glyph-name="uni2158" unicode="&#x2158;" horiz-adv-x="761" 
d="M239 476h51v-53h-51v-75h-62v75h-167v44l169 233h60v-224zM177 613l-98 -137h98v137zM183 0h-83l480 700h83zM691 202.5q35 -34.5 35 -86.5t-35.5 -86.5t-93.5 -34.5q-53 0 -89 29t-40 74h67q3 -18 20.5 -31.5t40.5 -13.5q28 0 45.5 18t17.5 45t-17.5 45t-45.5 18
q-33 0 -52 -23l-55 22l43 174h180v-58h-136l-15 -64q18 7 40 7q55 0 90 -34.5z" />
    <glyph glyph-name="uni2159" unicode="&#x2159;" horiz-adv-x="701" 
d="M30 659l89 41h61v-352h-63v288l-87 -37v60zM118 0h-83l480 700h83zM630 203.5q36 -35.5 36 -86.5q0 -52 -37 -87t-95 -35q-57 0 -94 35t-37 87q0 24 8 44t24 46l94 145h73l-75 -114q4 1 14 1q53 0 89 -35.5zM580.5 72q18.5 19 18.5 45q0 27 -18 46t-47 19q-28 0 -46 -19
t-18 -46q0 -26 18 -45t46 -19t46.5 19z" />
    <glyph glyph-name="uni215A" unicode="&#x215a;" horiz-adv-x="774" 
d="M248 550.5q35 -34.5 35 -86.5t-35.5 -86.5t-93.5 -34.5q-53 0 -89 29t-40 74h67q3 -18 20.5 -31.5t40.5 -13.5q28 0 45.5 18t17.5 45t-17.5 45t-45.5 18q-33 0 -52 -23l-55 22l43 174h180v-58h-136l-15 -64q18 7 40 7q55 0 90 -34.5zM191 0h-83l480 700h83zM703 203.5
q36 -35.5 36 -86.5q0 -52 -37 -87t-95 -35q-57 0 -94 35t-37 87q0 24 8 44t24 46l94 145h73l-75 -114q4 1 14 1q53 0 89 -35.5zM653.5 72q18.5 19 18.5 45q0 27 -18 46t-47 19q-28 0 -46 -19t-18 -46q0 -26 18 -45t46 -19t46.5 19z" />
    <glyph glyph-name="oneeighth" unicode="&#x215b;" horiz-adv-x="712" 
d="M30 659l89 41h61v-352h-63v288l-87 -37v60zM118 0h-83l480 700h83zM661 156q16 -23 16 -56q0 -44 -34 -74.5t-93 -30.5t-93 30.5t-34 74.5q0 33 16 56t44 35q-21 10 -34.5 30t-13.5 44q0 40 33 66t82 26t82 -26t33 -66q0 -24 -13.5 -44t-34.5 -30q28 -12 44 -35zM513 290
q-14 -13 -14 -32t14 -32.5t37 -13.5t37 13.5t14 32.5t-14 32t-37 13t-37 -13zM593.5 64.5q16.5 15.5 16.5 38.5t-16.5 39t-43.5 16t-43.5 -16t-16.5 -39t16.5 -38.5t43.5 -15.5t43.5 15.5z" />
    <glyph glyph-name="threeeighths" unicode="&#x215c;" horiz-adv-x="789" 
d="M271 498.5q16 -22.5 16 -51.5q0 -46 -33.5 -75t-92.5 -29q-58 0 -94 31t-37 86h68q1 -26 17.5 -42.5t45.5 -16.5q27 0 43 14.5t16 37.5q0 24 -17 37.5t-45 13.5h-30v49h28q24 0 39.5 14t15.5 37q0 19 -15 31.5t-38 12.5q-26 0 -40.5 -15.5t-15.5 -37.5h-65q1 52 36.5 81
t85.5 29q51 0 84.5 -27t33.5 -70q0 -27 -13.5 -46.5t-36.5 -29.5q28 -11 44 -33.5zM195 0h-83l480 700h83zM738 156q16 -23 16 -56q0 -44 -34 -74.5t-93 -30.5t-93 30.5t-34 74.5q0 33 16 56t44 35q-21 10 -34.5 30t-13.5 44q0 40 33 66t82 26t82 -26t33 -66
q0 -24 -13.5 -44t-34.5 -30q28 -12 44 -35zM590 290q-14 -13 -14 -32t14 -32.5t37 -13.5t37 13.5t14 32.5t-14 32t-37 13t-37 -13zM670.5 64.5q16.5 15.5 16.5 38.5t-16.5 39t-43.5 16t-43.5 -16t-16.5 -39t16.5 -38.5t43.5 -15.5t43.5 15.5z" />
    <glyph glyph-name="fiveeighths" unicode="&#x215d;" horiz-adv-x="785" 
d="M248 550.5q35 -34.5 35 -86.5t-35.5 -86.5t-93.5 -34.5q-53 0 -89 29t-40 74h67q3 -18 20.5 -31.5t40.5 -13.5q28 0 45.5 18t17.5 45t-17.5 45t-45.5 18q-33 0 -52 -23l-55 22l43 174h180v-58h-136l-15 -64q18 7 40 7q55 0 90 -34.5zM191 0h-83l480 700h83zM734 156
q16 -23 16 -56q0 -44 -34 -74.5t-93 -30.5t-93 30.5t-34 74.5q0 33 16 56t44 35q-21 10 -34.5 30t-13.5 44q0 40 33 66t82 26t82 -26t33 -66q0 -24 -13.5 -44t-34.5 -30q28 -12 44 -35zM586 290q-14 -13 -14 -32t14 -32.5t37 -13.5t37 13.5t14 32.5t-14 32t-37 13t-37 -13z
M666.5 64.5q16.5 15.5 16.5 38.5t-16.5 39t-43.5 16t-43.5 -16t-16.5 -39t16.5 -38.5t43.5 -15.5t43.5 15.5z" />
    <glyph glyph-name="seveneighths" unicode="&#x215e;" horiz-adv-x="705" 
d="M25 642v58h243v-41l-145 -311h-71l137 294h-164zM111 0h-83l480 700h83zM654 156q16 -23 16 -56q0 -44 -34 -74.5t-93 -30.5t-93 30.5t-34 74.5q0 33 16 56t44 35q-21 10 -34.5 30t-13.5 44q0 40 33 66t82 26t82 -26t33 -66q0 -24 -13.5 -44t-34.5 -30q28 -12 44 -35z
M506 290q-14 -13 -14 -32t14 -32.5t37 -13.5t37 13.5t14 32.5t-14 32t-37 13t-37 -13zM586.5 64.5q16.5 15.5 16.5 38.5t-16.5 39t-43.5 16t-43.5 -16t-16.5 -39t16.5 -38.5t43.5 -15.5t43.5 15.5z" />
    <glyph glyph-name="uni215F" unicode="&#x215f;" horiz-adv-x="388" 
d="M30 659l89 41h61v-352h-63v288l-87 -37v60zM118 0h-83l480 700h83z" />
    <glyph glyph-name="arrowleft" unicode="&#x2190;" horiz-adv-x="780" 
d="M175 385h565v-70h-565l215 -215l-50 -50l-300 300l300 300l50 -50z" />
    <glyph glyph-name="arrowup" unicode="&#x2191;" horiz-adv-x="690" 
d="M345 700l300 -300l-50 -50l-215 215v-565h-70v565l-215 -215l-50 50z" />
    <glyph glyph-name="arrowright" unicode="&#x2192;" horiz-adv-x="780" 
d="M390 600l50 50l300 -300l-300 -300l-50 50l215 215h-565v70h565z" />
    <glyph glyph-name="arrowdown" unicode="&#x2193;" horiz-adv-x="690" 
d="M380 135l215 215l50 -50l-300 -300l-300 300l50 50l215 -215v565h70v-565z" />
    <glyph glyph-name="uni2196" unicode="&#x2196;" horiz-adv-x="670" 
d="M205 630l400 -400l-50 -50l-400 400v-305h-70v425h425v-70h-305z" />
    <glyph glyph-name="uni2197" unicode="&#x2197;" horiz-adv-x="670" 
d="M160 630v70h425v-425h-70v305l-400 -400l-50 50l400 400h-305z" />
    <glyph glyph-name="uni2198" unicode="&#x2198;" horiz-adv-x="670" 
d="M515 120v305h70v-425h-425v70h305l-400 400l50 50z" />
    <glyph glyph-name="uni2199" unicode="&#x2199;" horiz-adv-x="670" 
d="M555 520l50 -50l-400 -400h305v-70h-425v425h70v-305z" />
    <glyph glyph-name="minus" unicode="&#x2212;" 
d="M510 304h-480v72h480v-72z" />
    <glyph glyph-name="approxequal" unicode="&#x2248;" 
d="M310 371q-27 13 -61 37q-26 20 -44 29t-40 9q-31 0 -47 -18.5t-16 -48.5v-16h-72v21q0 63 37.5 98.5t96.5 35.5q39 0 66 -13t61 -37q26 -20 44 -29t40 -9q31 0 47 18.5t16 48.5v16h72v-21q0 -63 -37.5 -98.5t-96.5 -35.5q-39 0 -66 13zM310 176q-27 13 -61 37
q-26 20 -44 29t-40 9q-31 0 -47 -18.5t-16 -48.5v-16h-72v21q0 63 37.5 98.5t96.5 35.5q39 0 66 -13t61 -37q26 -20 44 -29t40 -9q31 0 47 18.5t16 48.5v16h72v-21q0 -63 -37.5 -98.5t-96.5 -35.5q-39 0 -66 13z" />
    <glyph glyph-name="notequal" unicode="&#x2260;" 
d="M505 469v-72h-174l-53 -112h227v-72h-261l-47 -98h-69l47 98h-140v72h174l53 112h-227v72h261l46 97h69l-46 -97h140z" />
    <glyph glyph-name="lessequal" unicode="&#x2264;" 
d="M35 432l460 154v-76l-384 -119l384 -119v-76l-460 154v82zM495 93h-460v72h460v-72z" />
    <glyph glyph-name="greaterequal" unicode="&#x2265;" 
d="M45 510v76l460 -154v-82l-460 -154v76l384 119zM505 93h-460v72h460v-72z" />
    <glyph glyph-name="uni2460" unicode="&#x2460;" horiz-adv-x="838" 
d="M603.5 662q83.5 -48 131.5 -130.5t48 -181.5t-48 -181.5t-131.5 -130.5t-184.5 -48t-184.5 48t-131.5 130.5t-48 181.5t48 181.5t131.5 130.5t184.5 48t184.5 -48zM561.5 103q64.5 38 101.5 103t37 144t-37 144t-101.5 103t-142.5 38t-142.5 -38t-101.5 -103t-37 -144
t37 -144t101.5 -103t142.5 -38t142.5 38zM317 425v60l89 41h61v-352h-63v288z" />
    <glyph glyph-name="uni2461" unicode="&#x2461;" horiz-adv-x="838" 
d="M603.5 662q83.5 -48 131.5 -130.5t48 -181.5t-48 -181.5t-131.5 -130.5t-184.5 -48t-184.5 48t-131.5 130.5t-48 181.5t48 181.5t131.5 130.5t184.5 48t184.5 -48zM561.5 103q64.5 38 101.5 103t37 144t-37 144t-101.5 103t-142.5 38t-142.5 -38t-101.5 -103t-37 -144
t37 -144t101.5 -103t142.5 -38t142.5 38zM398 232h150v-58h-249v42l135 139q22 22 30.5 38t8.5 34q0 20 -15 33t-37 13q-27 0 -42.5 -15.5t-16.5 -41.5h-65q1 57 36 86t88 29q52 0 85.5 -27.5t33.5 -73.5q0 -30 -13.5 -54t-43.5 -56z" />
    <glyph glyph-name="uni2462" unicode="&#x2462;" horiz-adv-x="838" 
d="M603.5 662q83.5 -48 131.5 -130.5t48 -181.5t-48 -181.5t-131.5 -130.5t-184.5 -48t-184.5 48t-131.5 130.5t-48 181.5t48 181.5t131.5 130.5t184.5 48t184.5 -48zM561.5 103q64.5 38 101.5 103t37 144t-37 144t-101.5 103t-142.5 38t-142.5 -38t-101.5 -103t-37 -144
t37 -144t101.5 -103t142.5 -38t142.5 38zM528 323.5q16 -22.5 16 -51.5q0 -46 -33.5 -75t-92.5 -29q-58 0 -94 31t-37 86h68q1 -26 17.5 -42.5t45.5 -16.5q27 0 43 14.5t16 37.5q0 24 -17 37.5t-45 13.5h-30v49h28q24 0 39.5 14t15.5 37q0 19 -15 31.5t-38 12.5
q-26 0 -40.5 -15.5t-15.5 -37.5h-65q1 52 36.5 81t85.5 29q51 0 84.5 -27t33.5 -70q0 -27 -13.5 -46.5t-36.5 -29.5q28 -11 44 -33.5z" />
    <glyph glyph-name="uni2463" unicode="&#x2463;" horiz-adv-x="838" 
d="M603.5 662q83.5 -48 131.5 -130.5t48 -181.5t-48 -181.5t-131.5 -130.5t-184.5 -48t-184.5 48t-131.5 130.5t-48 181.5t48 181.5t131.5 130.5t184.5 48t184.5 -48zM561.5 103q64.5 38 101.5 103t37 144t-37 144t-101.5 103t-142.5 38t-142.5 -38t-101.5 -103t-37 -144
t37 -144t101.5 -103t142.5 -38t142.5 38zM433 526h60v-224h51v-53h-51v-75h-62v75h-167v44zM431 439l-98 -137h98v137z" />
    <glyph glyph-name="uni2464" unicode="&#x2464;" horiz-adv-x="838" 
d="M603.5 662q83.5 -48 131.5 -130.5t48 -181.5t-48 -181.5t-131.5 -130.5t-184.5 -48t-184.5 48t-131.5 130.5t-48 181.5t48 181.5t131.5 130.5t184.5 48t184.5 -48zM561.5 103q64.5 38 101.5 103t37 144t-37 144t-101.5 103t-142.5 38t-142.5 -38t-101.5 -103t-37 -144
t37 -144t101.5 -103t142.5 -38t142.5 38zM510 376.5q35 -34.5 35 -86.5t-35.5 -86.5t-93.5 -34.5q-53 0 -89 29t-40 74h67q3 -18 20.5 -31.5t40.5 -13.5q28 0 45.5 18t17.5 45t-17.5 45t-45.5 18q-33 0 -52 -23l-55 22l43 174h180v-58h-136l-15 -64q18 7 40 7q55 0 90 -34.5
z" />
    <glyph glyph-name="uni2465" unicode="&#x2465;" horiz-adv-x="838" 
d="M603.5 662q83.5 -48 131.5 -130.5t48 -181.5t-48 -181.5t-131.5 -130.5t-184.5 -48t-184.5 48t-131.5 130.5t-48 181.5t48 181.5t131.5 130.5t184.5 48t184.5 -48zM561.5 103q64.5 38 101.5 103t37 144t-37 144t-101.5 103t-142.5 38t-142.5 -38t-101.5 -103t-37 -144
t37 -144t101.5 -103t142.5 -38t142.5 38zM507 377.5q36 -35.5 36 -86.5q0 -52 -37 -87t-95 -35q-57 0 -94 35t-37 87q0 24 8 44t24 46l94 145h73l-75 -114q4 1 14 1q53 0 89 -35.5zM457.5 246q18.5 19 18.5 45q0 27 -18 46t-47 19q-28 0 -46 -19t-18 -46q0 -26 18 -45
t46 -19t46.5 19z" />
    <glyph glyph-name="uni2466" unicode="&#x2466;" horiz-adv-x="838" 
d="M603.5 662q83.5 -48 131.5 -130.5t48 -181.5t-48 -181.5t-131.5 -130.5t-184.5 -48t-184.5 48t-131.5 130.5t-48 181.5t48 181.5t131.5 130.5t184.5 48t184.5 -48zM561.5 103q64.5 38 101.5 103t37 144t-37 144t-101.5 103t-142.5 38t-142.5 -38t-101.5 -103t-37 -144
t37 -144t101.5 -103t142.5 -38t142.5 38zM471 468h-164v58h243v-41l-145 -311h-71z" />
    <glyph glyph-name="uni2467" unicode="&#x2467;" horiz-adv-x="838" 
d="M603.5 662q83.5 -48 131.5 -130.5t48 -181.5t-48 -181.5t-131.5 -130.5t-184.5 -48t-184.5 48t-131.5 130.5t-48 181.5t48 181.5t131.5 130.5t184.5 48t184.5 -48zM561.5 103q64.5 38 101.5 103t37 144t-37 144t-101.5 103t-142.5 38t-142.5 -38t-101.5 -103t-37 -144
t37 -144t101.5 -103t142.5 -38t142.5 38zM530 330q16 -23 16 -56q0 -44 -34 -74.5t-93 -30.5t-93 30.5t-34 74.5q0 33 16 56t44 35q-21 10 -34.5 30t-13.5 44q0 40 33 66t82 26t82 -26t33 -66q0 -24 -13.5 -44t-34.5 -30q28 -12 44 -35zM382 464q-14 -13 -14 -32t14 -32.5
t37 -13.5t37 13.5t14 32.5t-14 32t-37 13t-37 -13zM462.5 238.5q16.5 15.5 16.5 38.5t-16.5 39t-43.5 16q-26 0 -43 -16t-17 -39t16.5 -38.5t43.5 -15.5t43.5 15.5z" />
    <glyph glyph-name="uni2468" unicode="&#x2468;" horiz-adv-x="838" 
d="M603.5 662q83.5 -48 131.5 -130.5t48 -181.5t-48 -181.5t-131.5 -130.5t-184.5 -48t-184.5 48t-131.5 130.5t-48 181.5t48 181.5t131.5 130.5t184.5 48t184.5 -48zM561.5 103q64.5 38 101.5 103t37 144t-37 144t-101.5 103t-142.5 38t-142.5 -38t-101.5 -103t-37 -144
t37 -144t101.5 -103t142.5 -38t142.5 38zM514 496q37 -35 37 -87q0 -24 -8 -44t-24 -46l-94 -145h-73l75 114q-4 -1 -14 -1q-53 0 -89 35.5t-36 86.5q0 52 37 87t95 35q57 0 94 -35zM466 363q18 19 18 46q0 26 -18 45t-46 19t-46.5 -19t-18.5 -45q0 -27 18 -46t47 -19
q28 0 46 19z" />
    <glyph glyph-name="uni24EA" unicode="&#x24ea;" horiz-adv-x="838" 
d="M234.5 38q-83.5 48 -131.5 130.5t-48 181.5t48 181.5t131.5 130.5t184.5 48t184.5 -48t131.5 -130.5t48 -181.5t-48 -181.5t-131.5 -130.5t-184.5 -48t-184.5 48zM561.5 103q64.5 38 101.5 103t37 144t-37 144t-101.5 103t-142.5 38t-142.5 -38t-101.5 -103t-37 -144
t37 -144t101.5 -103t142.5 -38t142.5 38zM319.5 218q-39.5 49 -39.5 132t39.5 132t99.5 49q61 0 100 -48.5t39 -132.5q0 -83 -39.5 -132t-99.5 -49t-99.5 49zM472 261q21 33 21 89t-21 89t-53 33t-53 -33t-21 -89t21 -89t53 -33t53 33z" />
    <glyph glyph-name="uni24FF" unicode="&#x24ff;" horiz-adv-x="838" 
d="M234.5 38q-83.5 48 -131.5 130.5t-48 181.5t48 181.5t131.5 130.5t184.5 48t184.5 -48t131.5 -130.5t48 -181.5t-48 -181.5t-131.5 -130.5t-184.5 -48t-184.5 48zM518.5 218q39.5 49 39.5 132q0 84 -39 132.5t-100 48.5q-60 0 -99.5 -49t-39.5 -132t39.5 -132t99.5 -49
t99.5 49zM366 261q-21 33 -21 89t21 89t53 33t53 -33t21 -89t-21 -89t-53 -33t-53 33z" />
    <glyph glyph-name="uni2776" unicode="&#x2776;" horiz-adv-x="838" 
d="M234.5 38q-83.5 48 -131.5 130.5t-48 181.5t48 181.5t131.5 130.5t184.5 48t184.5 -48t131.5 -130.5t48 -181.5t-48 -181.5t-131.5 -130.5t-184.5 -48t-184.5 48zM404 462v-288h63v352h-61l-89 -41v-60z" />
    <glyph glyph-name="uni2777" unicode="&#x2777;" horiz-adv-x="838" 
d="M234.5 38q-83.5 48 -131.5 130.5t-48 181.5t48 181.5t131.5 130.5t184.5 48t184.5 -48t131.5 -130.5t48 -181.5t-48 -181.5t-131.5 -130.5t-184.5 -48t-184.5 48zM299 174h249v58h-150l85 88q30 32 43.5 56t13.5 54q0 46 -33.5 73.5t-85.5 27.5q-53 0 -88 -29t-36 -86h65
q1 26 16.5 41.5t42.5 15.5q22 0 37 -13t15 -33q0 -18 -8.5 -34t-30.5 -38l-135 -139v-42z" />
    <glyph glyph-name="uni2778" unicode="&#x2778;" horiz-adv-x="838" 
d="M234.5 38q-83.5 48 -131.5 130.5t-48 181.5t48 181.5t131.5 130.5t184.5 48t184.5 -48t131.5 -130.5t48 -181.5t-48 -181.5t-131.5 -130.5t-184.5 -48t-184.5 48zM510.5 197q33.5 29 33.5 75q0 29 -16 51.5t-44 33.5q23 10 36.5 29.5t13.5 46.5q0 43 -33.5 70t-84.5 27
q-50 0 -85.5 -29t-36.5 -81h65q1 22 15.5 37.5t40.5 15.5q23 0 38 -12.5t15 -31.5q0 -23 -15.5 -37t-39.5 -14h-28v-49h30q28 0 45 -13.5t17 -37.5q0 -23 -16 -37.5t-43 -14.5q-29 0 -45.5 16.5t-17.5 42.5h-68q1 -55 37 -86t94 -31q59 0 92.5 29z" />
    <glyph glyph-name="uni2779" unicode="&#x2779;" horiz-adv-x="838" 
d="M234.5 38q-83.5 48 -131.5 130.5t-48 181.5t48 181.5t131.5 130.5t184.5 48t184.5 -48t131.5 -130.5t48 -181.5t-48 -181.5t-131.5 -130.5t-184.5 -48t-184.5 48zM431 249v-75h62v75h51v53h-51v224h-60l-169 -233v-44h167zM431 302h-98l98 137v-137z" />
    <glyph glyph-name="uni277A" unicode="&#x277a;" horiz-adv-x="838" 
d="M234.5 38q-83.5 48 -131.5 130.5t-48 181.5t48 181.5t131.5 130.5t184.5 48t184.5 -48t131.5 -130.5t48 -181.5t-48 -181.5t-131.5 -130.5t-184.5 -48t-184.5 48zM509.5 203.5q35.5 34.5 35.5 86.5t-35 86.5t-90 34.5q-22 0 -40 -7l15 64h136v58h-180l-43 -174l55 -22
q19 23 52 23q28 0 45.5 -18t17.5 -45t-17.5 -45t-45.5 -18q-23 0 -40.5 13.5t-20.5 31.5h-67q4 -45 40 -74t89 -29q58 0 93.5 34.5z" />
    <glyph glyph-name="uni277B" unicode="&#x277b;" horiz-adv-x="838" 
d="M234.5 38q-83.5 48 -131.5 130.5t-48 181.5t48 181.5t131.5 130.5t184.5 48t184.5 -48t131.5 -130.5t48 -181.5t-48 -181.5t-131.5 -130.5t-184.5 -48t-184.5 48zM506 204q37 35 37 87q0 51 -36 86.5t-89 35.5q-10 0 -14 -1l75 114h-73l-94 -145q-16 -26 -24 -46t-8 -44
q0 -52 37 -87t94 -35q58 0 95 35zM365 246q-18 19 -18 45q0 27 18 46t46 19q29 0 47 -19t18 -46q0 -26 -18.5 -45t-46.5 -19t-46 19z" />
    <glyph glyph-name="uni277C" unicode="&#x277c;" horiz-adv-x="838" 
d="M234.5 38q-83.5 48 -131.5 130.5t-48 181.5t48 181.5t131.5 130.5t184.5 48t184.5 -48t131.5 -130.5t48 -181.5t-48 -181.5t-131.5 -130.5t-184.5 -48t-184.5 48zM471 468l-137 -294h71l145 311v41h-243v-58h164z" />
    <glyph glyph-name="uni277D" unicode="&#x277d;" horiz-adv-x="838" 
d="M234.5 38q-83.5 48 -131.5 130.5t-48 181.5t48 181.5t131.5 130.5t184.5 48t184.5 -48t131.5 -130.5t48 -181.5t-48 -181.5t-131.5 -130.5t-184.5 -48t-184.5 48zM512 199.5q34 30.5 34 74.5q0 33 -16 56t-44 35q21 10 34.5 30t13.5 44q0 40 -33 66t-82 26t-82 -26
t-33 -66q0 -24 13.5 -44t34.5 -30q-28 -12 -44 -35t-16 -56q0 -44 34 -74.5t93 -30.5t93 30.5zM382 399.5q-14 13.5 -14 32.5t14 32t37 13t37 -13t14 -32t-14 -32.5t-37 -13.5t-37 13.5zM375.5 238.5q-16.5 15.5 -16.5 38.5t17 39t43 16q27 0 43.5 -16t16.5 -39t-16.5 -38.5
t-43.5 -15.5t-43.5 15.5z" />
    <glyph glyph-name="uni277E" unicode="&#x277e;" horiz-adv-x="838" 
d="M234.5 38q-83.5 48 -131.5 130.5t-48 181.5t48 181.5t131.5 130.5t184.5 48t184.5 -48t131.5 -130.5t48 -181.5t-48 -181.5t-131.5 -130.5t-184.5 -48t-184.5 48zM352 174h73l94 145q16 26 24 46t8 44q0 52 -37 87t-94 35q-58 0 -95 -35t-37 -87q0 -51 36 -86.5t89 -35.5
q10 0 14 1zM373 363q-18 19 -18 46q0 26 18.5 45t46.5 19t46 -19t18 -45q0 -27 -18 -46t-46 -19q-29 0 -47 19z" />
    <glyph glyph-name="sum" unicode="&#xe900;" horiz-adv-x="652" 
d="M214 24q-62 34 -95.5 99t-33.5 155v422h78v-422q0 -103 51.5 -158t142.5 -55q74 0 118.5 35t44.5 92q0 35 -16.5 60t-41.5 42t-67 40q-50 28 -80.5 50.5t-52 59t-21.5 89.5q0 81 48.5 129t128.5 48q79 0 129 -47t54 -125h-74q-5 47 -34 74t-75 27t-73.5 -27t-27.5 -74
q0 -37 17.5 -63t43 -43.5t69.5 -40.5q50 -26 81 -48t52.5 -57.5t21.5 -88.5q0 -62 -30.5 -109t-85.5 -72.5t-127 -25.5q-83 0 -145 34z" />
    <glyph glyph-name="uni0498.loclBSH" unicode="&#xf50a;" horiz-adv-x="553" 
d="M450.5 59q-52.5 -55 -138.5 -66l25 -37q24 -36 24 -70q0 -40 -25.5 -63t-69.5 -23h-60v56h47q45 0 45 41q0 18 -16 41l-37 53q-92 7 -150.5 62t-64.5 142h80q5 -59 48 -94.5t111 -35.5q67 0 109 35.5t42 94.5q0 58 -41.5 91.5t-112.5 33.5h-65v75h65q62 0 98 33.5
t36 86.5t-36 86.5t-98 33.5q-63 0 -100.5 -33.5t-43.5 -81.5h-80q4 53 33 96t79 68.5t112 25.5t111.5 -24.5t77.5 -68t28 -100.5q0 -52 -26 -90.5t-76 -61.5q58 -23 90 -67.5t32 -104.5q0 -79 -52.5 -134z" />
    <glyph glyph-name="uni0499.loclBSH" unicode="&#xf50b;" horiz-adv-x="453" 
d="M367 41.5q-41 -38.5 -106 -48.5l25 -37q24 -36 24 -70q0 -40 -25.5 -63t-69.5 -23h-60v56h47q45 0 45 41q0 18 -16 41l-37 53q-70 8 -115 48t-49 101h75q5 -36 35.5 -58t81.5 -22q47 0 77.5 21t30.5 59q0 35 -27 56.5t-84 21.5h-56v68h57q45 0 71 20t26 53q0 32 -26 51.5
t-69 19.5q-47 0 -75 -21t-32 -54h-75q8 64 58 104.5t124 40.5q47 0 87 -17.5t63 -48.5t23 -71q0 -37 -20.5 -65t-58.5 -43q42 -14 67 -46.5t25 -73.5q0 -55 -41 -93.5z" />
    <glyph glyph-name="uni04AA.loclCHU" unicode="&#xf50c;" horiz-adv-x="776" 
d="M736 215q-40 -98 -118 -157.5t-183 -66.5l-14 -30q38 -4 57.5 -26t19.5 -50q0 -42 -27 -63.5t-68 -21.5h-55v50h45q22 0 33.5 9.5t11.5 25.5t-11.5 25.5t-33.5 9.5h-32v35l16 37q-90 8 -163.5 57.5t-116 128.5t-42.5 172q0 98 47.5 181t129.5 131t179 48q111 0 195 -60.5
t126 -164.5h-85q-35 69 -96.5 109.5t-139.5 40.5q-74 0 -137 -38t-99.5 -103t-36.5 -144t36.5 -144t99.5 -103t137 -38q81 0 143 40.5t97 109.5h85z" />
    <glyph glyph-name="uni04AB.loclCHU" unicode="&#xf50d;" horiz-adv-x="556" 
d="M382 85q42 25 64 70h80q-23 -71 -80.5 -114t-130.5 -50l-14 -30q38 -4 57.5 -26t19.5 -50q0 -42 -27 -63.5t-68 -21.5h-55v50h45q22 0 33.5 9.5t11.5 25.5t-11.5 25.5t-33.5 9.5h-32v35l17 37q-61 8 -111 43t-78.5 90t-28.5 120q0 71 34 129.5t91.5 92t125.5 33.5
q80 0 144.5 -44t90.5 -121h-80q-22 45 -64 70t-91 25q-47 0 -87 -24.5t-63 -66.5t-23 -94t23 -94t63 -66.5t87 -24.5q49 0 91 25z" />
    <glyph glyph-name="uniF51A" unicode="&#xf51a;" horiz-adv-x="832" 
d="M234 38q-83 48 -131 131t-48 181t48 181t131 131t182 48t182 -48t131 -131t48 -181t-48 -181t-131 -131t-182 -48t-182 48zM555.5 103q63.5 38 101 103t37.5 144t-37.5 144t-101 103t-139.5 38t-139.5 -38t-101 -103t-37.5 -144t37.5 -144t101 -103t139.5 -38t139.5 38z
M303.5 795.5q-43.5 38.5 -47.5 99.5h71q4 -38 28 -57.5t61 -19.5t61 19.5t28 57.5h71q-4 -61 -47.5 -99.5t-112.5 -38.5t-112.5 38.5z" />
    <glyph glyph-name="uniF51B" unicode="&#xf51b;" horiz-adv-x="592" 
d="M167.5 23.5q-58.5 33.5 -93 92t-34.5 129.5t34.5 129.5t93 92t128.5 33.5t128.5 -33.5t93 -92t34.5 -129.5t-34.5 -129.5t-93 -92t-128.5 -33.5t-128.5 33.5zM385.5 84.5q40.5 24.5 64.5 66.5t24 94t-24 94t-64.5 66.5t-89.5 24.5t-89.5 -24.5t-64.5 -66.5t-24 -94
t24 -94t64.5 -66.5t89.5 -24.5t89.5 24.5zM187 590.5q-42 38.5 -46 99.5h72q4 -38 26.5 -57.5t56.5 -19.5t56.5 19.5t26.5 57.5h72q-4 -61 -46 -99.5t-109 -38.5t-109 38.5z" />
    <glyph glyph-name="uniF524" unicode="&#xf524;" horiz-adv-x="771" 
d="M539 662q82 -48 129.5 -131t47.5 -181t-47.5 -181t-129.5 -131t-179 -48q-114 0 -198.5 60.5t-126.5 164.5h85q35 -69 97 -109.5t143 -40.5q71 0 130.5 32.5t96.5 89.5t44 128h-330v75h330q-9 70 -46 125.5t-95.5 87.5t-129.5 32q-78 0 -139.5 -40.5t-96.5 -109.5h-85
q42 104 126 164.5t195 60.5q97 0 179 -48zM273.5 795.5q-43.5 38.5 -47.5 99.5h71q4 -38 28 -57.5t61 -19.5t61 19.5t28 57.5h71q-4 -61 -47.5 -99.5t-112.5 -38.5t-112.5 38.5z" />
    <glyph glyph-name="uniF525" unicode="&#xf525;" horiz-adv-x="566" 
d="M401.5 466.5q58.5 -33.5 91.5 -91.5t33 -130t-33.5 -130t-92 -91.5t-130.5 -33.5q-80 0 -144.5 44t-90.5 121h80q22 -45 64 -70t92 -25q66 0 115 42t59 109h-220v68h220q-10 67 -58.5 109t-114.5 42q-49 0 -91 -25t-64 -70h-80q26 77 90.5 121t144.5 44q71 0 129.5 -33.5
zM172 590.5q-42 38.5 -46 99.5h72q4 -38 26.5 -57.5t56.5 -19.5t56.5 19.5t26.5 57.5h72q-4 -61 -46 -99.5t-109 -38.5t-109 38.5z" />
    <glyph glyph-name="uniF536" unicode="&#xf536;" horiz-adv-x="800" 
d="M283 430q71 0 126 -27.5t85.5 -76.5t30.5 -111t-30.5 -111t-85.5 -76.5t-126 -27.5h-188v700h80v-270h108zM625 0v700h80v-700h-80zM283 75q73 0 116 38.5t43 101.5t-43 101.5t-116 38.5h-108v-280h108zM287.5 795.5q-43.5 38.5 -47.5 99.5h71q4 -38 28 -57.5t61 -19.5
t61 19.5t28 57.5h71q-4 -61 -47.5 -99.5t-112.5 -38.5t-112.5 38.5z" />
    <glyph glyph-name="uniF537" unicode="&#xf537;" horiz-adv-x="670" 
d="M256 320q87 0 138 -44t51 -116t-51 -116t-138 -44h-181v490h75v-170h106zM520 0v490h75v-490h-75zM256 70q54 0 82.5 22.5t28.5 67.5t-28.5 67.5t-82.5 22.5h-106v-180h106zM226 590.5q-42 38.5 -46 99.5h72q4 -38 26.5 -57.5t56.5 -19.5t56.5 19.5t26.5 57.5h72
q-4 -61 -46 -99.5t-109 -38.5t-109 38.5z" />
    <glyph glyph-name="uni0492.loclBSH" unicode="&#xf53c;" horiz-adv-x="475" 
d="M425 700v-75h-250v-225h240v-75h-240v-325h-80v700h330z" />
    <glyph glyph-name="uni0493.loclBSH" unicode="&#xf53d;" horiz-adv-x="405" 
d="M385 490v-70h-235v-143h218v-70h-218v-207h-75v490h310z" />
    <glyph glyph-name="uni04AA.loclBSH" unicode="&#xf53e;" horiz-adv-x="776" 
d="M736 215q-38 -94 -111 -153t-171 -70l25 -36q24 -36 24 -70q0 -40 -25.5 -63t-69.5 -23h-60v56h47q45 0 45 41q0 18 -16 41l-37 53q-92 6 -168 55t-120 129.5t-44 174.5q0 98 47.5 181t129.5 131t179 48q111 0 195 -60.5t126 -164.5h-85q-35 69 -96.5 109.5t-139.5 40.5
q-74 0 -137 -38t-99.5 -103t-36.5 -144t36.5 -144t99.5 -103t137 -38q81 0 143 40.5t97 109.5h85z" />
    <glyph glyph-name="uni04AB.loclBSH" unicode="&#xf53f;" horiz-adv-x="556" 
d="M382 85q42 25 64 70h80q-22 -67 -73.5 -109t-119.5 -53l26 -37q24 -36 24 -70q0 -40 -25.5 -63t-69.5 -23h-60v56h47q45 0 45 41q0 18 -16 41l-37 53q-63 6 -115 40.5t-82 90.5t-30 123q0 71 34 129.5t91.5 92t125.5 33.5q80 0 144.5 -44t90.5 -121h-80q-22 45 -64 70
t-91 25q-47 0 -87 -24.5t-63 -66.5t-23 -94t23 -94t63 -66.5t87 -24.5q49 0 91 25z" />
    <glyph glyph-name="uniF8FF" unicode="&#xf8ff;" horiz-adv-x="1538" 
d="M206 230h-35v199h-71v31h178v-31h-72v-199zM867 230h-35v199h-71v31h178v-31h-72v-199zM438 169v224h24l9 -19q19 22 48 22q32 0 54.5 -25t22.5 -59q0 -36 -22.5 -60.5t-54.5 -24.5q-29 0 -47 21v-79h-34zM646 251.5q-23 24.5 -23 60.5q0 35 23 59.5t55 24.5t54 -24.5
t22 -58.5q0 -8 -1 -15h-119q2 -17 14.5 -28.5t29.5 -11.5q28 0 37 16h35q-9 -22 -28.5 -34.5t-43.5 -12.5q-32 0 -55 24.5zM1099 169v224h24l9 -19q19 22 48 22q32 0 54.5 -25t22.5 -59q0 -36 -22.5 -60.5t-54.5 -24.5q-29 0 -47 21v-79h-34zM1307 251.5q-23 24.5 -23 60.5
q0 35 23 59.5t55 24.5t54 -24.5t22 -58.5q0 -8 -1 -15h-119q2 -17 14.5 -28.5t29.5 -11.5q28 0 37 16h35q-9 -22 -28.5 -34.5t-43.5 -12.5q-32 0 -55 24.5zM278 170v28q23 0 31 20l6 16l-63 159h37l44 -116l44 116h37l-77 -190q-6 -15 -19 -24.5t-30 -9.5q-7 0 -10 1z
M939 170v28q23 0 31 20l6 16l-63 159h37l44 -116l44 116h37l-77 -190q-6 -15 -19 -24.5t-30 -9.5q-7 0 -10 1zM549 274q14 16 14 38t-14 37.5t-33 15.5t-33 -15.5t-14 -37.5t13.5 -38t33.5 -16q19 0 33 16zM745 325q-1 17 -14.5 28.5t-29.5 11.5t-29 -11t-15 -29h88z
M1210 274q14 16 14 38t-14 37.5t-33 15.5t-33 -15.5t-14 -37.5t13.5 -38t33.5 -16q19 0 33 16zM1406 325q-1 17 -14.5 28.5t-29.5 11.5t-29 -11t-15 -29h88z" />
    <glyph glyph-name="colon.calt" horiz-adv-x="239" 
d="M164 473h-89v97h89v-97zM164 80h-89v97h89v-97z" />
    <glyph glyph-name="periodcentered.ss07" horiz-adv-x="280" 
d="M104 216q-15 15 -15 37q0 20 15 35t36 15t36 -15t15 -35q0 -22 -15 -37t-36 -15t-36 15z" />
    <glyph glyph-name="period.ss07" horiz-adv-x="238" 
d="M83 10q-15 15 -15 37q0 20 15 35t36 15t36 -15t15 -35q0 -22 -15 -37t-36 -15t-36 15z" />
    <glyph glyph-name="ellipsis.ss07" horiz-adv-x="737" 
d="M83 10q-15 15 -15 37q0 20 15 35t36 15t36 -15t15 -35q0 -22 -15 -37t-36 -15t-36 15zM332 10q-15 15 -15 37q0 20 15 35t36 15t36 -15t15 -35q0 -22 -15 -37t-36 -15t-36 15zM581 10q-15 15 -15 37q0 20 15 35t36 15t36 -15t15 -35q0 -22 -15 -37t-36 -15t-36 15z" />
    <glyph glyph-name="colon.ss07" horiz-adv-x="238" 
d="M83 408q-15 15 -15 37q0 20 15 35t36 15t36 -15t15 -35q0 -22 -15 -37t-36 -15t-36 15zM83 10q-15 15 -15 37q0 20 15 35t36 15t36 -15t15 -35q0 -22 -15 -37t-36 -15t-36 15z" />
    <glyph glyph-name="colon.calt.ss07" horiz-adv-x="239" 
d="M83 488q-15 15 -15 37q0 20 15 35t36 15t36 -15t15 -35q0 -22 -15 -37t-36 -15t-36 15zM83 90q-15 15 -15 37q0 20 15 35t36 15t36 -15t15 -35q0 -22 -15 -37t-36 -15t-36 15z" />
    <glyph glyph-name="semicolon.ss07" horiz-adv-x="255" 
d="M99 408q-15 15 -15 37q0 20 15 35t36 15t36 -15t15 -35q0 -22 -15 -37t-36 -15t-36 15zM105 -133h-70l55 230h90z" />
    <glyph glyph-name="exclam.ss07" horiz-adv-x="293" 
d="M184 185h-75l-5 515h85zM110 10q-15 15 -15 37q0 20 15 35t36 15t36 -15t15 -35q0 -22 -15 -37t-36 -15t-36 15z" />
    <glyph glyph-name="exclamdown.ss07" horiz-adv-x="293" 
d="M110 408q-15 15 -15 37q0 20 15 35t36 15t36 -15t15 -35q0 -22 -15 -37t-36 -15t-36 15zM189 -200h-85l5 505h75z" />
    <glyph glyph-name="question.ss07" horiz-adv-x="507" 
d="M197 220q0 46 14 78t34 52.5t52 45.5q40 32 58.5 56t18.5 63q0 52 -36.5 86t-92.5 34t-92.5 -35t-37.5 -85h-80q1 54 29.5 98.5t76 70.5t104.5 26q58 0 106.5 -25t77 -69.5t28.5 -100.5q0 -38 -12.5 -66.5t-31.5 -48t-49 -43.5q-29 -24 -46.5 -41.5t-29 -42.5t-11.5 -58
v-30h-80v35zM202 10q-15 15 -15 37q0 20 15 35t36 15t36 -15t15 -35q0 -22 -15 -37t-36 -15t-36 15z" />
    <glyph glyph-name="questiondown.ss07" horiz-adv-x="492" 
d="M228 408q-15 15 -15 37q0 20 15 35t36 15t36 -15t15 -35q0 -22 -15 -37t-36 -15t-36 15zM150.5 -185q-48.5 25 -77 69.5t-28.5 100.5q0 38 12.5 66.5t31.5 48t49 43.5q29 24 46.5 41.5t29 42.5t11.5 58v20h80v-25q0 -46 -14 -78t-34 -52.5t-52 -45.5q-40 -32 -58.5 -56
t-18.5 -63q0 -52 36.5 -86t92.5 -34q55 0 91.5 35t38.5 85h80q-1 -54 -29.5 -98.5t-76 -70.5t-104.5 -26q-58 0 -106.5 25z" />
    <glyph glyph-name="numbersign.sc" horiz-adv-x="566" 
d="M561 426l-17 -63h-106l-46 -166h107l-18 -63h-106l-37 -134h-64l37 134h-136l-37 -134h-64l37 134h-106l17 63h106l46 166h-107l18 63h106l37 134h64l-37 -134h136l37 134h64l-37 -134h106zM192 197h136l46 166h-136z" />
    <glyph glyph-name="uni2116.sc" horiz-adv-x="935" 
d="M127 560l374 -431v431h73v-560h-49l-374 431v-431h-73v560h49zM685.5 186q-36.5 36 -36.5 87t36.5 87t91.5 36t91.5 -36t36.5 -87t-36.5 -87t-91.5 -36t-91.5 36zM729.5 321q-18.5 -19 -18.5 -48t18.5 -48t47.5 -19t47.5 19t18.5 48t-18.5 48t-47.5 19t-47.5 -19zM883 0
h-212v70h212v-70z" />
    <glyph glyph-name="ampersand.sc" horiz-adv-x="542" 
d="M537 244l-111 -125l111 -119h-90l-66 71q-41 -42 -83 -61.5t-96 -19.5q-75 0 -118.5 40t-43.5 99q0 76 68 132l55 44l-29 31q-25 27 -38.5 50.5t-13.5 55.5q0 54 39 91t101 37t101 -35t39 -87q0 -35 -16 -61.5t-54 -57.5l-36 -29l125 -133l69 77h87zM213 346l24 19
q26 21 39 39.5t13 43.5q0 23 -18 40t-49 17t-49 -18.5t-18 -44.5q0 -21 9 -36.5t28 -36.5zM272 69q29 14 64 50l-131 140l-47 -38q-25 -20 -35 -40t-10 -47q0 -32 23.5 -55.5t71.5 -23.5q35 0 64 14z" />
    <glyph glyph-name="section.sc" horiz-adv-x="535" 
d="M458 121.5q-12 -27.5 -34 -50.5q32 -35 32 -91q0 -42 -23 -76.5t-64 -54t-94 -19.5q-89 0 -144 47.5t-55 126.5h73q0 -45 34.5 -74.5t91.5 -29.5q44 0 73.5 22t29.5 56q0 60 -70 77l-99 24q-74 18 -109 52t-35 94q0 27 12.5 54.5t35.5 51.5q-30 36 -30 89q0 42 22.5 76.5
t63.5 54t93 19.5q86 0 140.5 -47.5t54.5 -126.5h-73q0 45 -34 74.5t-88 29.5q-43 0 -72 -22t-29 -56q0 -61 68 -77l99 -24q72 -18 107 -52t35 -94q0 -26 -12 -53.5zM325 123q27 -7 42 -13q25 22 25 65q0 58 -69 75l-111 27q-25 6 -45 15q-24 -27 -24 -67q0 -58 71 -75z" />
    <glyph glyph-name="Iacute_J.loclNLD" horiz-adv-x="790" 
d="M180 0h-80v700h80v-700zM163 765h-73l90 140h83zM388 17.5q-48 27.5 -75.5 75.5t-27.5 107h80q0 -60 37 -97.5t94 -37.5q58 0 93.5 39t35.5 106v490h80v-490q0 -64 -27 -114t-74.5 -78t-107.5 -28t-108 27.5zM688 765h-73l90 140h83z" />
    <glyph glyph-name="i.loclTRK" horiz-adv-x="225" 
d="M150 0h-75v490h75v-490zM156 584h-87v92h87v-92z" />
    <glyph glyph-name="iacute_j.loclNLD" horiz-adv-x="450" 
d="M150 0h-75v490h75v-490zM136 560h-73l90 140h83zM175 -200v70h45q38 0 59 21t21 59v540h75v-545q0 -64 -41.5 -104.5t-108.5 -40.5h-50zM361 560h-73l90 140h83z" />
    <glyph glyph-name="a.sc" horiz-adv-x="563" 
d="M548 0h-81l-56 138h-260l-56 -138h-80l237 560h59zM384 208l-103 253l-103 -253h206z" />
    <glyph glyph-name="b.sc" horiz-adv-x="488" 
d="M415.5 247q27.5 -36 27.5 -83t-24.5 -84t-71 -58.5t-108.5 -21.5h-161v560h154q86 0 136 -40.5t50 -106.5q0 -36 -20 -67t-55 -48q45 -15 72.5 -51zM153 490v-165h78q53 0 81 22t28 61t-28 60.5t-81 21.5h-78zM240 70q59 0 92 26t33 69t-33 69t-92 26h-87v-190h87z" />
    <glyph glyph-name="c.sc" horiz-adv-x="633" 
d="M187 28.5q-67 38.5 -106 105t-39 146.5t39 146.5t106 105t147 38.5q92 0 162 -51.5t102 -138.5h-79q-26 54 -74 87t-111 33q-59 0 -108 -29t-77.5 -79t-28.5 -112t28.5 -112t77.5 -79t108 -29q64 0 113 33t75 87h79q-33 -88 -103.5 -139t-163.5 -51q-80 0 -147 38.5z" />
    <glyph glyph-name="d.sc" horiz-adv-x="589" 
d="M78 0v560h158q93 0 163.5 -35t109 -98.5t38.5 -146.5t-38.5 -146.5t-109 -98.5t-163.5 -35h-158zM235 70q109 0 171.5 57t62.5 153t-62.5 153t-171.5 57h-82v-420h82z" />
    <glyph glyph-name="e.sc" horiz-adv-x="455" 
d="M153 255v-185h252v-70h-327v560h318v-70h-243v-165h235v-70h-235z" />
    <glyph glyph-name="f.sc" horiz-adv-x="403" 
d="M363 560v-70h-210v-165h202v-70h-202v-255h-75v560h285z" />
    <glyph glyph-name="g.sc" horiz-adv-x="646" 
d="M315 297h299v-25q0 -76 -35 -140.5t-99 -103t-148 -38.5q-79 0 -145.5 38.5t-105.5 105t-39 146.5t39 146.5t105.5 105t145.5 38.5q94 0 166 -50.5t107 -139.5h-80q-27 55 -77.5 87.5t-115.5 32.5q-58 0 -106.5 -29t-77 -79.5t-28.5 -112.5q0 -61 28.5 -111.5t77 -79
t106.5 -28.5q81 0 137 46.5t68 125.5h-222v65z" />
    <glyph glyph-name="h.sc" horiz-adv-x="605" 
d="M452 324v236h75v-560h-75v254h-299v-254h-75v560h75v-236h299z" />
    <glyph glyph-name="i.sc" horiz-adv-x="241" 
d="M158 0h-75v560h75v-560z" />
    <glyph glyph-name="j.sc" horiz-adv-x="431" 
d="M91 13.5q-41 23.5 -63.5 63.5t-22.5 88h75q0 -47 29 -76t75 -29q47 0 75.5 30t28.5 82v388h75v-388q0 -53 -23 -94.5t-63.5 -64.5t-92.5 -23t-93 23.5z" />
    <glyph glyph-name="k.sc" horiz-adv-x="511" 
d="M233 289l273 -289h-101l-252 268v-268h-75v560h75v-258l239 258h95z" />
    <glyph glyph-name="l.sc" horiz-adv-x="412" 
d="M382 0h-304v560h75v-490h229v-70z" />
    <glyph glyph-name="m.sc" horiz-adv-x="760" 
d="M637 560l73 -560h-75l-50 402l-185 -402h-39l-185 403l-51 -403h-75l73 560h57l201 -439l201 439h55z" />
    <glyph glyph-name="n.sc" horiz-adv-x="662" 
d="M511 129v431h73v-560h-49l-384 431v-431h-73v560h49z" />
    <glyph glyph-name="o.sc" horiz-adv-x="668" 
d="M187 28.5q-67 38.5 -106 105t-39 146.5t39 146.5t106 105t147 38.5t147 -38.5t106 -105t39 -146.5t-39 -146.5t-106 -105t-147 -38.5t-147 38.5zM442 89q49 29 77.5 79t28.5 112t-28.5 112t-77.5 79t-108 29t-108 -29t-77.5 -79t-28.5 -112t28.5 -112t77.5 -79t108 -29
t108 29z" />
    <glyph glyph-name="p.sc" horiz-adv-x="473" 
d="M249 560q57 0 101 -21.5t68.5 -59.5t24.5 -87t-24.5 -87t-68.5 -59.5t-101 -21.5h-96v-224h-75v560h171zM247 294q55 0 86.5 26t31.5 72t-31.5 72t-86.5 26h-94v-196h94z" />
    <glyph glyph-name="q.sc" horiz-adv-x="668" 
d="M639 -75h-89l-82 96q-62 -31 -134 -31q-80 0 -147 38.5t-106 105t-39 146.5t39 146.5t106 105t147 38.5t147 -38.5t106 -105t39 -146.5q0 -66 -26.5 -123t-74.5 -98zM420 78l-122 142h89l90 -105q34 30 52.5 72.5t18.5 92.5q0 62 -28.5 112t-77.5 79t-108 29t-108 -29
t-77.5 -79t-28.5 -112t28.5 -112t77.5 -79t108 -29q47 0 86 18z" />
    <glyph glyph-name="r.sc" horiz-adv-x="517" 
d="M418 0l-193 224h-72v-224h-75v560h171q57 0 101 -21.5t68.5 -59.5t24.5 -87q0 -59 -35.5 -102t-95.5 -58l200 -232h-94zM153 490v-196h94q55 0 86.5 26t31.5 72t-31.5 72t-86.5 26h-94z" />
    <glyph glyph-name="s.sc" horiz-adv-x="496" 
d="M107 37.5q-55 47.5 -57 127.5h74q2 -47 36 -76t93 -29q53 0 84 23.5t31 61.5q0 31 -17.5 51t-43 31t-71.5 26q-55 17 -89 33t-58 47.5t-24 82.5q0 44 24 79.5t66.5 55t95.5 19.5q50 0 91.5 -20.5t67 -58t26.5 -84.5h-74q-2 39 -33.5 66t-79.5 27q-46 0 -76 -22t-30 -59
q0 -29 17 -47.5t42 -29.5t70 -26q56 -18 90.5 -34.5t59 -48.5t24.5 -85q0 -45 -24.5 -81t-68.5 -56.5t-100 -20.5q-91 0 -146 47.5z" />
    <glyph glyph-name="t.sc" horiz-adv-x="415" 
d="M245 0h-75v490h-150v70h375v-70h-150v-490z" />
    <glyph glyph-name="u.sc" horiz-adv-x="580" 
d="M173.5 17.5q-50.5 27.5 -78 77t-27.5 114.5v351h75v-350q0 -68 39.5 -109t107.5 -41t107.5 41.5t39.5 108.5v350h75v-351q0 -64 -27.5 -114t-78 -77.5t-116.5 -27.5t-116.5 27.5z" />
    <glyph glyph-name="v.sc" horiz-adv-x="519" 
d="M260 127l161 433h81l-218 -560h-50l-217 560h82z" />
    <glyph glyph-name="w.sc" horiz-adv-x="819" 
d="M582 130l142 430h78l-195 -560h-50l-148 435l-147 -435h-50l-195 560h80l141 -430l146 430h51z" />
    <glyph glyph-name="x.sc" horiz-adv-x="496" 
d="M296 290l182 -290h-85l-145 236l-146 -236h-84l182 290l-165 270h85l128 -215l129 215h84z" />
    <glyph glyph-name="y.sc" horiz-adv-x="471" 
d="M236 305l141 255h84l-188 -329v-231h-75v231l-188 329h85z" />
    <glyph glyph-name="z.sc" horiz-adv-x="472" 
d="M421 513l-283 -443h299v-70h-397v47l283 443h-267v70h365v-47z" />
    <glyph glyph-name="aacute.sc" horiz-adv-x="563" 
d="M548 0h-81l-56 138h-260l-56 -138h-80l237 560h59zM384 208l-103 253l-103 -253h206zM305 630h-73l90 140h83z" />
    <glyph glyph-name="abreve.sc" horiz-adv-x="563" 
d="M548 0h-81l-56 138h-260l-56 -138h-80l237 560h59zM384 208l-103 253l-103 -253h206zM173 660.5q-42 38.5 -46 99.5h68q4 -37 27 -56t60 -19t60 19t27 56h68q-4 -61 -46 -99.5t-109 -38.5t-109 38.5z" />
    <glyph glyph-name="uni01CE.sc" horiz-adv-x="563" 
d="M548 0h-81l-56 138h-260l-56 -138h-80l237 560h59zM384 208l-103 253l-103 -253h206zM314 630h-65l-124 135h80l76 -84l76 84h81z" />
    <glyph glyph-name="acircumflex.sc" horiz-adv-x="563" 
d="M548 0h-81l-56 138h-260l-56 -138h-80l237 560h59zM384 208l-103 253l-103 -253h206zM206 630h-81l124 135h65l124 -135h-80l-76 84z" />
    <glyph glyph-name="adieresis.sc" horiz-adv-x="563" 
d="M548 0h-81l-56 138h-260l-56 -138h-80l237 560h59zM384 208l-103 253l-103 -253h206zM233 654h-87v92h87v-92zM418 654h-87v92h87v-92z" />
    <glyph glyph-name="agrave.sc" horiz-adv-x="563" 
d="M548 0h-81l-56 138h-260l-56 -138h-80l237 560h59zM384 208l-103 253l-103 -253h206zM323 630h-76l-100 140h86z" />
    <glyph glyph-name="amacron.sc" horiz-adv-x="563" 
d="M548 0h-81l-56 138h-260l-56 -138h-80l237 560h59zM384 208l-103 253l-103 -253h206zM424 664h-284v66h284v-66z" />
    <glyph glyph-name="aogonek.sc" horiz-adv-x="563" 
d="M481.5 -127q16.5 -14 50.5 -14h16v-59h-31q-49 0 -81.5 27.5t-32.5 76.5q0 62 63 99l-55 135h-260l-56 -138h-80l237 560h59l237 -560q-38 -11 -60.5 -34.5t-22.5 -53.5q0 -25 16.5 -39zM384 208l-103 253l-103 -253h206z" />
    <glyph glyph-name="aring.sc" horiz-adv-x="563" 
d="M548 0h-81l-56 138h-260l-56 -138h-80l237 560h59zM384 208l-103 253l-103 -253h206zM213 642q-27 27 -27 66t27 66t69 27t69 -27t27 -66t-27 -66t-69 -27t-69 27zM313 677q12 12 12 31t-12 31t-31 12t-31 -12t-12 -31t12 -31t31 -12t31 12z" />
    <glyph glyph-name="aringacute.sc" horiz-adv-x="563" 
d="M548 0h-81l-56 138h-260l-56 -138h-80l237 560h59zM384 208l-103 253l-103 -253h206zM325 792q24 -11 38.5 -33.5t14.5 -50.5q0 -39 -27 -66t-69 -27t-69 27t-27 66q0 31 18.5 55.5t48.5 33.5l50 84h83zM313 677q12 12 12 31t-12 31t-31 12t-31 -12t-12 -31t12 -31
t31 -12t31 12z" />
    <glyph glyph-name="atilde.sc" horiz-adv-x="563" 
d="M548 0h-81l-56 138h-260l-56 -138h-80l237 560h59zM384 208l-103 253l-103 -253h206zM129 660q0 43 22 69t61 26q21 0 40.5 -9t43.5 -25q13 -8 25 -14.5t21 -6.5q17 0 24.5 11.5t7.5 34.5v9h60v-20q0 -43 -22 -69t-61 -26q-21 0 -40.5 9t-43.5 25q-13 8 -25 14.5t-21 6.5
q-17 0 -24.5 -11.5t-7.5 -34.5v-9h-60v20z" />
    <glyph glyph-name="ae.sc" horiz-adv-x="736" 
d="M434 255v-185h252v-70h-327v152h-221l-97 -152h-86l360 560h362v-70h-243v-165h235v-70h-235zM359 500l-177 -278h177v278z" />
    <glyph glyph-name="aeacute.sc" horiz-adv-x="736" 
d="M434 255v-185h252v-70h-327v152h-221l-97 -152h-86l360 560h362v-70h-243v-165h235v-70h-235zM359 500l-177 -278h177v278zM452 630h-73l90 140h83z" />
    <glyph glyph-name="cacute.sc" horiz-adv-x="633" 
d="M187 28.5q-67 38.5 -106 105t-39 146.5t39 146.5t106 105t147 38.5q92 0 162 -51.5t102 -138.5h-79q-26 54 -74 87t-111 33q-59 0 -108 -29t-77.5 -79t-28.5 -112t28.5 -112t77.5 -79t108 -29q64 0 113 33t75 87h79q-33 -88 -103.5 -139t-163.5 -51q-80 0 -147 38.5z
M358 630h-73l90 140h83z" />
    <glyph glyph-name="ccaron.sc" horiz-adv-x="633" 
d="M187 28.5q-67 38.5 -106 105t-39 146.5t39 146.5t106 105t147 38.5q92 0 162 -51.5t102 -138.5h-79q-26 54 -74 87t-111 33q-59 0 -108 -29t-77.5 -79t-28.5 -112t28.5 -112t77.5 -79t108 -29q64 0 113 33t75 87h79q-33 -88 -103.5 -139t-163.5 -51q-80 0 -147 38.5z
M367 630h-65l-124 135h80l76 -84l76 84h81z" />
    <glyph glyph-name="ccedilla.sc" horiz-adv-x="633" 
d="M601 180q-30 -82 -94 -132t-148 -57l-14 -30q38 -4 57.5 -26t19.5 -50q0 -42 -27 -63.5t-68 -21.5h-55v50h45q22 0 33.5 9.5t11.5 25.5t-11.5 25.5t-33.5 9.5h-32v35l16 37q-72 7 -131 47t-93.5 103t-34.5 138q0 80 39 146.5t106 105t147 38.5q92 0 162 -51.5t102 -138.5
h-79q-26 54 -74 87t-111 33q-59 0 -108 -29t-77.5 -79t-28.5 -112t28.5 -112t77.5 -79t108 -29q64 0 113 33t75 87h79z" />
    <glyph glyph-name="ccircumflex.sc" horiz-adv-x="633" 
d="M187 28.5q-67 38.5 -106 105t-39 146.5t39 146.5t106 105t147 38.5q92 0 162 -51.5t102 -138.5h-79q-26 54 -74 87t-111 33q-59 0 -108 -29t-77.5 -79t-28.5 -112t28.5 -112t77.5 -79t108 -29q64 0 113 33t75 87h79q-33 -88 -103.5 -139t-163.5 -51q-80 0 -147 38.5z
M259 630h-81l124 135h65l124 -135h-80l-76 84z" />
    <glyph glyph-name="cdotaccent.sc" horiz-adv-x="633" 
d="M187 28.5q-67 38.5 -106 105t-39 146.5t39 146.5t106 105t147 38.5q92 0 162 -51.5t102 -138.5h-79q-26 54 -74 87t-111 33q-59 0 -108 -29t-77.5 -79t-28.5 -112t28.5 -112t77.5 -79t108 -29q64 0 113 33t75 87h79q-33 -88 -103.5 -139t-163.5 -51q-80 0 -147 38.5z
M378 654h-87v92h87v-92z" />
    <glyph glyph-name="eth.sc" horiz-adv-x="609" 
d="M256 560q93 0 163.5 -35t109 -98.5t38.5 -146.5t-38.5 -146.5t-109 -98.5t-163.5 -35h-158v249h-90v66h90v245h158zM255 70q109 0 171.5 57t62.5 153t-62.5 153t-171.5 57h-82v-175h165v-66h-165v-179h82z" />
    <glyph glyph-name="dcaron.sc" horiz-adv-x="589" 
d="M78 0v560h158q93 0 163.5 -35t109 -98.5t38.5 -146.5t-38.5 -146.5t-109 -98.5t-163.5 -35h-158zM235 70q109 0 171.5 57t62.5 153t-62.5 153t-171.5 57h-82v-420h82zM337 630h-65l-124 135h80l76 -84l76 84h81z" />
    <glyph glyph-name="dcroat.sc" horiz-adv-x="609" 
d="M256 560q93 0 163.5 -35t109 -98.5t38.5 -146.5t-38.5 -146.5t-109 -98.5t-163.5 -35h-158v249h-90v66h90v245h158zM255 70q109 0 171.5 57t62.5 153t-62.5 153t-171.5 57h-82v-175h165v-66h-165v-179h82z" />
    <glyph glyph-name="uni01F2.sc" horiz-adv-x="1173" 
d="M95 0v700h185q117 0 204 -43.5t134.5 -123t47.5 -183.5t-47.5 -183.5t-134.5 -123t-204 -43.5h-185zM280 75q93 0 161.5 34t105 96.5t36.5 144.5t-36.5 144.5t-105 96.5t-161.5 34h-105v-550h105zM1122 513l-283 -443h299v-70h-397v47l283 443h-267v70h365v-47z" />
    <glyph glyph-name="uni01F3.sc" horiz-adv-x="1041" 
d="M78 0v560h158q93 0 163.5 -35t109 -98.5t38.5 -146.5t-38.5 -146.5t-109 -98.5t-163.5 -35h-158zM235 70q109 0 171.5 57t62.5 153t-62.5 153t-171.5 57h-82v-420h82zM990 513l-283 -443h299v-70h-397v47l283 443h-267v70h365v-47z" />
    <glyph glyph-name="uni01C5.sc" horiz-adv-x="1173" 
d="M95 0v700h185q117 0 204 -43.5t134.5 -123t47.5 -183.5t-47.5 -183.5t-134.5 -123t-204 -43.5h-185zM280 75q93 0 161.5 34t105 96.5t36.5 144.5t-36.5 144.5t-105 96.5t-161.5 34h-105v-550h105zM1122 513l-283 -443h299v-70h-397v47l283 443h-267v70h365v-47zM972 630
h-65l-124 135h80l76 -84l76 84h81z" />
    <glyph glyph-name="uni01C6.sc" horiz-adv-x="1041" 
d="M78 0v560h158q93 0 163.5 -35t109 -98.5t38.5 -146.5t-38.5 -146.5t-109 -98.5t-163.5 -35h-158zM235 70q109 0 171.5 57t62.5 153t-62.5 153t-171.5 57h-82v-420h82zM990 513l-283 -443h299v-70h-397v47l283 443h-267v70h365v-47zM840 630h-65l-124 135h80l76 -84l76 84
h81z" />
    <glyph glyph-name="eacute.sc" horiz-adv-x="455" 
d="M153 255v-185h252v-70h-327v560h318v-70h-243v-165h235v-70h-235zM260 630h-73l90 140h83z" />
    <glyph glyph-name="ebreve.sc" horiz-adv-x="455" 
d="M153 255v-185h252v-70h-327v560h318v-70h-243v-165h235v-70h-235zM128 660.5q-42 38.5 -46 99.5h68q4 -37 27 -56t60 -19t60 19t27 56h68q-4 -61 -46 -99.5t-109 -38.5t-109 38.5z" />
    <glyph glyph-name="ecaron.sc" horiz-adv-x="455" 
d="M153 255v-185h252v-70h-327v560h318v-70h-243v-165h235v-70h-235zM269 630h-65l-124 135h80l76 -84l76 84h81z" />
    <glyph glyph-name="ecircumflex.sc" horiz-adv-x="455" 
d="M153 255v-185h252v-70h-327v560h318v-70h-243v-165h235v-70h-235zM161 630h-81l124 135h65l124 -135h-80l-76 84z" />
    <glyph glyph-name="edieresis.sc" horiz-adv-x="455" 
d="M153 255v-185h252v-70h-327v560h318v-70h-243v-165h235v-70h-235zM188 654h-87v92h87v-92zM373 654h-87v92h87v-92z" />
    <glyph glyph-name="edotaccent.sc" horiz-adv-x="455" 
d="M153 255v-185h252v-70h-327v560h318v-70h-243v-165h235v-70h-235zM280 654h-87v92h87v-92z" />
    <glyph glyph-name="egrave.sc" horiz-adv-x="455" 
d="M153 255v-185h252v-70h-327v560h318v-70h-243v-165h235v-70h-235zM278 630h-76l-100 140h86z" />
    <glyph glyph-name="emacron.sc" horiz-adv-x="455" 
d="M153 255v-185h252v-70h-327v560h318v-70h-243v-165h235v-70h-235zM379 664h-284v66h284v-66z" />
    <glyph glyph-name="eogonek.sc" horiz-adv-x="455" 
d="M405 0q-38 -11 -60.5 -34.5t-22.5 -53.5q0 -25 16.5 -39t50.5 -14h16v-59h-31q-49 0 -81.5 27.5t-32.5 76.5q0 60 57 96h-239v560h318v-70h-243v-165h235v-70h-235v-185h252v-70z" />
    </font>
</defs>
</svg>
