<svg width="537" height="218" viewBox="0 0 537 218" fill="none" xmlns="http://www.w3.org/2000/svg">
<path d="M205.4 196H174.6L165.6 165.8H114.6L105.6 196H75.8L119.8 56H161.2L205.4 196ZM139.6 82L122.2 140.4H158L140.6 82H139.6ZM293.45 123.4C301.717 126.333 308.05 130.8 312.45 136.8C316.85 142.8 319.05 149.933 319.05 158.2C319.05 166.333 316.917 173.467 312.65 179.6C308.383 185.6 302.25 190.267 294.25 193.6C286.383 196.8 277.25 198.4 266.85 198.4C251.25 198.4 238.45 194.733 228.45 187.4C218.583 180.067 212.117 169.4 209.05 155.4L238.05 151.8C242.05 164.867 251.183 171.4 265.45 171.4C272.517 171.4 278.05 169.867 282.05 166.8C286.05 163.733 288.05 159.533 288.05 154.2C288.05 149.133 286.05 145.067 282.05 142C278.183 138.8 272.917 137.2 266.25 137.2H249.45V112.2H265.65C271.517 112.2 276.183 110.8 279.65 108C283.25 105.067 285.05 101.133 285.05 96.2C285.05 91.2667 283.25 87.3333 279.65 84.4C276.05 81.4667 271.25 80 265.25 80C258.85 80 253.45 81.5333 249.05 84.6C244.783 87.6667 241.717 92.1333 239.85 98L212.05 94.6C215.117 81.6667 221.383 71.6 230.85 64.4C240.45 57.2 252.317 53.6 266.45 53.6C275.783 53.6 284.117 55.2 291.45 58.4C298.917 61.6 304.717 66.0667 308.85 71.8C313.117 77.5333 315.25 84.1333 315.25 91.6C315.25 98.6667 313.317 105 309.45 110.6C305.717 116.067 300.383 120.333 293.45 123.4ZM414.153 123.4C422.42 126.333 428.753 130.8 433.153 136.8C437.553 142.8 439.753 149.933 439.753 158.2C439.753 166.333 437.62 173.467 433.353 179.6C429.086 185.6 422.953 190.267 414.953 193.6C407.086 196.8 397.953 198.4 387.553 198.4C371.953 198.4 359.153 194.733 349.153 187.4C339.286 180.067 332.82 169.4 329.753 155.4L358.753 151.8C362.753 164.867 371.886 171.4 386.153 171.4C393.22 171.4 398.753 169.867 402.753 166.8C406.753 163.733 408.753 159.533 408.753 154.2C408.753 149.133 406.753 145.067 402.753 142C398.886 138.8 393.62 137.2 386.953 137.2H370.153V112.2H386.353C392.22 112.2 396.886 110.8 400.353 108C403.953 105.067 405.753 101.133 405.753 96.2C405.753 91.2667 403.953 87.3333 400.353 84.4C396.753 81.4667 391.953 80 385.953 80C379.553 80 374.153 81.5333 369.753 84.6C365.486 87.6667 362.42 92.1333 360.553 98L332.753 94.6C335.82 81.6667 342.086 71.6 351.553 64.4C361.153 57.2 373.02 53.6 387.153 53.6C396.486 53.6 404.82 55.2 412.153 58.4C419.62 61.6 425.42 66.0667 429.553 71.8C433.82 77.5333 435.953 84.1333 435.953 91.6C435.953 98.6667 434.02 105 430.153 110.6C426.42 116.067 421.086 120.333 414.153 123.4ZM478.075 196V106.8H450.275V80.4H471.075C474.008 80.4 476.142 79.7333 477.475 78.4C478.942 76.9333 479.675 74.7333 479.675 71.8V56H508.275V196H478.075Z" fill="#252219"/>
<path d="M99.5384 55.9093L0.000360864 104.955L47.2824 114.701L62.7822 155.723L99.5384 55.9093Z" fill="#252219"/>
</svg>
